<svg width="279" height="279" xmlns="http://www.w3.org/2000/svg"><g fill-rule="evenodd" transform="translate(-35 -34)"><path d="M55.384 118.3c3.267-1.838 3.998-3.165 2.194-3.982-1.809-.819 4.787-2.021 2.287-2.789-3.314-1.016-5.165-2.142 0-3.184.704-.142-5.776.158-4.48 0 1.533-.186 3.027-.363 4.48-.53 102.529-11.782 170.482-8.287 203.86 10.486 32.137 18.075 7.062 51.137-61.994 98.199-31.278 21.316-65.547 40.342-102.805 57.078-17.217 6.62-16.436 3.04 2.344-10.74 60.381-44.304 90.156-78.278 85.014-104.28-4.268-21.587-56.655-34.041-135.397-34.133-3.355-.375 4.039-2.75 2.008-2.876-4.257-.263-3.427-1.345 2.49-3.248z" fill="#D0021B"/><circle fill="none" stroke="#D0021B" stroke-width="9" cx="174.5" cy="173.5" r="130.5"/></g></svg>