<svg width="226" height="218" xmlns="http://www.w3.org/2000/svg"><g fill="#999"><path d="M112.559 104.173L64.226 56.938c-12.896-18.565-12.896-34.34 0-47.323 19.342-19.474 48.333 0 48.333 0s28.601-23.148 50.91 3.512c4.829 5.771 6.899 12.114 7.217 18.361.105 2.08.358 4.086 0 6.142-1.255 7.19-9.8 18.229-25.637 33.118l-32.49 33.425zM112.682 113.742l48.333 47.235c12.895 18.565 12.895 34.34 0 47.323-19.343 19.474-48.333 0-48.333 0s-28.602 23.148-50.91-3.512c-4.83-5.771-6.9-12.114-7.217-18.361-.106-2.08-.359-4.086 0-6.142 1.254-7.19 9.8-18.229 25.636-33.118l32.49-33.425zM119.61 107.682l47.234-48.333c18.566-12.895 34.34-12.895 47.323 0 19.475 19.343 0 48.333 0 48.333s23.149 28.602-3.512 50.91c-5.77 4.83-12.113 6.899-18.36 7.217-2.081.106-4.087.359-6.143 0-7.19-1.254-18.229-9.8-33.118-25.637l-33.425-32.49zM104.332 108.332l-47.234 48.333c-18.566 12.895-34.34 12.895-47.323 0-19.475-19.343 0-48.333 0-48.333s-23.149-28.602 3.512-50.91c5.77-4.83 12.113-6.899 18.36-7.217 2.081-.106 4.087-.359 6.142 0 7.19 1.254 18.23 9.8 33.119 25.637l33.424 32.49z"/></g></svg>