<svg width="200" height="200" xmlns="http://www.w3.org/2000/svg"><g transform="translate(24 14)"   fill-rule="evenodd"><path d="M61.83 151.293v20.458c55.339-9.15 85.395-40.637 90.17-94.463-55.388 23.668-85.444 48.336-90.17 74.005z" fill="#999"/><circle fill="#999" cx="76" cy="76" r="76"/><path d="M66.238 55.82c-7.126-1.237-12.523-5.751-16.193-13.542-5.505-11.687 11.267-18.254 16.193-7.976 3.283 6.853 3.283 14.025 0 21.517zm17.614.484c-4.164-5.913-4.789-12.922-1.874-21.026 4.37-12.156 20.874-4.94 17.089 5.81-2.523 7.168-7.595 12.24-15.215 15.216zM54.586 67.289c-5.913 4.164-12.921 4.789-21.025 1.875-12.156-4.372-4.94-20.875 5.81-17.09 7.168 2.524 12.24 7.595 15.215 15.215zm-1.343 15.897c-1.237 7.125-5.75 12.523-13.542 16.193-11.686 5.504-18.253-11.268-7.975-16.193 6.852-3.284 14.025-3.284 21.517 0zM66.712 95.56c3.3 6.435 2.944 13.463-1.07 21.082-6.02 11.43-21.359 1.987-16.115-8.132 3.497-6.746 9.225-11.063 17.185-12.95zm16.474-.238c7.125 1.237 12.523 5.75 16.193 13.542 5.504 11.686-11.268 18.253-16.193 7.975-3.284-6.852-3.284-14.025 0-21.517zm11.727-12.584c5.984-4.06 13.002-4.562 21.054-1.507 12.078 4.583 4.575 20.957-6.108 16.985-7.121-2.648-12.104-7.807-14.946-15.478z" fill="#FFF"/></g></svg>