<svg width="200" height="200" xmlns="http://www.w3.org/2000/svg"><g transform="translate(24 15)"   fill-rule="evenodd"><path d="M62 150.642V171c55.234-9.105 85.234-40.438 90-94-55.284 23.551-85.284 48.099-90 73.642z" fill="#00A818"/><circle fill="#00A818" cx="76" cy="76" r="76"/><path d="M65.631 56c-6.854-1.254-12.047-5.832-15.577-13.734-5.295-11.853 10.839-18.513 15.577-8.089 3.159 6.95 3.159 14.224 0 21.823zm17.365 1.088c-3.96-5.733-4.394-12.642-1.303-20.726 4.637-12.125 20.755-5.426 16.734 5.295-2.68 7.148-7.824 12.292-15.43 15.431zM54.088 68.004c-5.733 3.96-12.642 4.394-20.726 1.303-12.125-4.637-5.426-20.755 5.295-16.734 7.148 2.68 12.292 7.824 15.431 15.43zM53 83.369c-1.254 6.854-5.832 12.047-13.734 15.577-11.853 5.295-18.513-10.839-8.089-15.577 6.95-3.159 14.224-3.159 21.823 0zM66.99 95.68c3.123 6.23 2.592 13.131-1.594 20.706-6.28 11.362-21.308 2.485-15.834-7.572C53.21 102.109 59.02 97.73 66.99 95.68zM83.369 95c6.854 1.254 12.047 5.832 15.577 13.734 5.295 11.853-10.839 18.513-15.577 8.089-3.159-6.95-3.159-14.224 0-21.823zm10.624-12.258c5.801-3.859 12.716-4.172 20.745-.94 12.043 4.847 5.064 20.846-5.586 16.638-7.1-2.804-12.153-8.037-15.16-15.698z" fill="#FFF"/></g></svg>