<svg width="200" height="200" xmlns="http://www.w3.org/2000/svg" xmlns:xlink="http://www.w3.org/1999/xlink"><defs><path d="M31.884 0v36.07H14.775v18.035H.452c-.061.522-.11 1.045-.16 1.569-.896 9.826.806 18.887 4.714 26.636l1.312 2.377c.787 1.424 1.704 2.762 2.674 4.067.968 1.304 1.31 2.025 1.92 2.892 10.333 11.711 25.738 17.349 43.524 17.349 39.387 0 72.814-17.595 87.607-57.12 10.496 1.086 20.564-1.627 25.153-10.659-7.31-4.253-16.703-2.89-22.115-.147L159.42 0l-55.99 36.07H85.541V0H31.884z" id="a"/><path d="M31.884 0v36.07H14.775v18.035H.452c-.061.522-.11 1.045-.16 1.569-.896 9.826.806 18.887 4.714 26.636l1.312 2.377c.787 1.424 1.704 2.762 2.674 4.067.968 1.304 1.31 2.025 1.92 2.892 10.333 11.711 25.738 17.349 43.524 17.349 39.387 0 72.814-17.595 87.607-57.12 10.496 1.086 20.564-1.627 25.153-10.659-7.31-4.253-16.703-2.89-22.115-.147L159.42 0l-55.99 36.07H85.541V0H31.884z" id="c"/><path d="M31.884 0v36.07H14.775v18.035H.452c-.061.522-.11 1.045-.16 1.569-.896 9.826.806 18.887 4.714 26.636l1.312 2.377c.787 1.424 1.704 2.762 2.674 4.067.968 1.304 1.31 2.025 1.92 2.892 10.333 11.711 25.738 17.349 43.524 17.349 39.387 0 72.814-17.595 87.607-57.12 10.496 1.086 20.564-1.627 25.153-10.659-7.31-4.253-16.703-2.89-22.115-.147L159.42 0l-55.99 36.07H85.541V0H31.884z" id="e"/><path d="M31.884 0v36.07H14.775v18.035H.452c-.061.522-.11 1.045-.16 1.569-.896 9.826.806 18.887 4.714 26.636l1.312 2.377c.787 1.424 1.704 2.762 2.674 4.067.968 1.304 1.31 2.025 1.92 2.892 10.333 11.711 25.738 17.349 43.524 17.349 39.387 0 72.814-17.595 87.607-57.12 10.496 1.086 20.564-1.627 25.153-10.659-7.31-4.253-16.703-2.89-22.115-.147L159.42 0l-55.99 36.07H85.541V0H31.884z" id="g"/><path d="M31.884 0v36.07H14.775v18.035H.452c-.061.522-.11 1.045-.16 1.569-.896 9.826.806 18.887 4.714 26.636l1.312 2.377c.787 1.424 1.704 2.762 2.674 4.067.968 1.304 1.31 2.025 1.92 2.892 10.333 11.711 25.738 17.349 43.524 17.349 39.387 0 72.814-17.595 87.607-57.12 10.496 1.086 20.564-1.627 25.153-10.659-7.31-4.253-16.703-2.89-22.115-.147L159.42 0l-55.99 36.07H85.541V0H31.884z" id="i"/></defs><g   fill-rule="evenodd"><path d="M115.57 78.755h17.947v18.276h9.074c4.19 0 8.501-.744 12.47-2.083 1.95-.659 4.138-1.576 6.062-2.728-2.534-3.295-3.827-7.456-4.208-11.557-.517-5.578.613-12.838 4.403-17.204l1.886-2.174 2.248 1.8c5.66 4.53 10.42 10.86 11.26 18.076 6.815-1.997 14.816-1.525 20.823 1.929L200 84.506l-1.297 2.522c-5.08 9.878-15.702 12.937-26.086 12.396-15.538 38.552-49.367 56.804-90.385 56.804-21.19 0-40.633-7.892-51.704-26.62-.65-1.164-1.205-2.38-1.795-3.575-3.742-8.244-4.985-17.275-4.142-26.299l.253-2.703h15.347V78.756h17.947V60.878h35.894V43h21.537v35.756" fill="#394D54"/><g transform="translate(27.513 45.116)"><mask id="b" fill="#fff"><use xlink:href="#a"/></mask><g mask="url(#b)"><path fill="#00ACD3" d="M69.102-16.51h15.41V-.97h-15.41z"/><path fill="#20C2EF" d="M69.102 1.42h15.41v15.54h-15.41z"/><path d="M70.994-2.265v-12.951m2.311 12.95v-12.95m2.334 12.95v-12.95m2.336 12.95v-12.95m2.335 12.95v-12.95m2.31 12.95v-12.95M70.994 15.665V2.714m2.311 12.95V2.715m2.334 12.95V2.715m2.336 12.95V2.715m2.335 12.95V2.715m2.31 12.95V2.715" stroke="#394D54" stroke-width="1.56" fill="#000"/><path fill="#00ACD3" d="M86.883 16.959h15.412V1.419H86.883z"/><path fill="#20C2EF" d="M86.883-.97h15.412v-15.54H86.883z"/><path d="M88.776 2.714v12.951m2.31-12.95v12.95m2.335-12.95v12.95m2.336-12.95v12.95m2.335-12.95v12.95m2.31-12.95v12.95M88.776-15.216v12.951m2.31-12.95v12.95m2.335-12.95v12.95m2.336-12.95v12.95m2.335-12.95v12.95m2.31-12.95v12.95" stroke="#394D54" stroke-width="1.56" fill="#000"/><g><path fill="#00ACD3" d="M-2.026 19.35h15.411v15.54h-15.41z"/><path fill="#20C2EF" d="M-2.026 37.28h15.411v15.54h-15.41z"/><path d="M-.133 33.595V20.644m2.31 12.95v-12.95m2.335 12.95v-12.95m2.336 12.95v-12.95m2.335 12.95v-12.95m2.31 12.95v-12.95M-.133 51.525v-12.95m2.31 12.95v-12.95m2.335 12.95v-12.95m2.336 12.95v-12.95m2.335 12.95v-12.95m2.31 12.95v-12.95" stroke="#394D54" stroke-width="1.56" fill="#000"/><path fill="#00ACD3" d="M15.756 52.819h15.411v-15.54h-15.41z"/><path fill="#20C2EF" d="M15.756 34.89h15.411V19.35h-15.41z"/><path d="M17.648 38.575v12.95m2.311-12.95v12.95m2.335-12.95v12.95m2.335-12.95v12.95m2.336-12.95v12.95m2.31-12.95v12.95M17.648 20.644v12.951m2.311-12.95v12.95m2.335-12.95v12.95m2.335-12.95v12.95m2.336-12.95v12.95m2.31-12.95v12.95" stroke="#394D54" stroke-width="1.56" fill="#000"/></g><g><path fill="#00ACD3" d="M33.538 19.35h15.411v15.54H33.538z"/><path fill="#20C2EF" d="M33.538 37.28h15.411v15.54H33.538z"/><path d="M35.43 33.595V20.644m2.311 12.95v-12.95m2.335 12.95v-12.95m2.335 12.95v-12.95m2.336 12.95v-12.95m2.31 12.95v-12.95M35.43 51.525v-12.95m2.311 12.95v-12.95m2.335 12.95v-12.95m2.335 12.95v-12.95m2.336 12.95v-12.95m2.31 12.95v-12.95" stroke="#394D54" stroke-width="1.56" fill="#000"/><path fill="#00ACD3" d="M51.32 52.819h15.41v-15.54H51.32z"/><path fill="#20C2EF" d="M51.32 34.89h15.41V19.35H51.32z"/><path d="M53.212 38.575v12.95m2.311-12.95v12.95m2.335-12.95v12.95m2.335-12.95v12.95m2.335-12.95v12.95m2.311-12.95v12.95M53.212 20.644v12.951m2.311-12.95v12.95m2.335-12.95v12.95m2.335-12.95v12.95m2.335-12.95v12.95m2.311-12.95v12.95" stroke="#394D54" stroke-width="1.56" fill="#000"/></g><g><path fill="#00ACD3" d="M69.102 19.35h15.41v15.54h-15.41z"/><path fill="#20C2EF" d="M69.102 37.28h15.41v15.54h-15.41z"/><path d="M70.994 33.595V20.644m2.311 12.95v-12.95m2.334 12.95v-12.95m2.336 12.95v-12.95m2.335 12.95v-12.95m2.31 12.95v-12.95M70.994 51.525v-12.95m2.311 12.95v-12.95m2.334 12.95v-12.95m2.336 12.95v-12.95m2.335 12.95v-12.95m2.31 12.95v-12.95" stroke="#394D54" stroke-width="1.56" fill="#000"/><path fill="#00ACD3" d="M86.883 52.819h15.412v-15.54H86.883z"/><path fill="#20C2EF" d="M86.883 34.89h15.412V19.35H86.883z"/><path d="M88.776 38.575v12.95m2.31-12.95v12.95m2.335-12.95v12.95m2.336-12.95v12.95m2.335-12.95v12.95m2.31-12.95v12.95M88.776 20.644v12.951m2.31-12.95v12.95m2.335-12.95v12.95m2.336-12.95v12.95m2.335-12.95v12.95m2.31-12.95v12.95" stroke="#394D54" stroke-width="1.56" fill="#000"/></g></g></g><g transform="translate(27.513 45.116)"><mask id="d" fill="#fff"><use xlink:href="#c"/></mask><path d="M145.087 41.073c1.193-9.343-5.742-16.683-10.043-20.167-4.955 5.777-5.725 20.919 2.05 27.294-4.34 3.886-13.483 7.409-22.845 7.409H-.778c-.91 9.854 0 57.306 0 57.306h168.751l-.767-71.688c-7.309-4.253-16.707-2.897-22.119-.154" fill="#17B5EB" mask="url(#d)"/></g><g transform="translate(27.513 45.116)"><mask id="f" fill="#fff"><use xlink:href="#e"/></mask><path fill-opacity=".17" fill="#000" mask="url(#f)" d="M-.778 68.22v44.695h168.751V68.22"/></g><g transform="translate(27.513 45.116)"><mask id="h" fill="#fff"><use xlink:href="#g"/></mask><path d="M59.286 108.908c-10.529-5.038-16.308-11.886-19.524-19.363L7.777 90.96l16.33 21.955 35.18-4.007" fill="#D4EDF1" mask="url(#h)"/></g><g transform="translate(27.513 45.116)"><mask id="j" fill="#fff"><use xlink:href="#i"/></mask><path d="M145.81 40.726v.024c-16.223 21.085-39.491 39.504-64.472 49.18-22.284 8.632-41.712 8.673-55.116 1.74-1.444-.822-2.859-1.734-4.278-2.597C12.117 82.147 6.582 70.692 7.047 55.6H-.778v57.315h168.751V37.638h-19.44l-2.723 3.088z" fill-opacity=".085" fill="#000" mask="url(#j)"/></g><path d="M34.92 134.69c11.295.674 23.349.795 33.863-2.801" stroke="#394D54" stroke-width="3.4" stroke-linecap="round"/><path d="M80.423 126.598a4.232 4.232 0 1 1-8.465 0 4.232 4.232 0 0 1 8.465 0z" fill="#D4EDF1"/><path d="M75.561 123.602a1.08 1.08 0 1 0 1.486 1.452 2.645 2.645 0 1 1-1.486-1.452zM0 112.841h198.942c-4.332-1.126-13.706-2.647-12.16-8.465-7.876 9.34-26.871 6.553-31.665 1.947-5.339 7.935-36.416 4.919-38.584-1.263-6.692 8.05-27.43 8.05-34.123 0-2.169 6.182-33.246 9.198-38.585 1.263-4.794 4.606-23.787 7.394-31.665-1.947 1.546 5.818-7.827 7.34-12.16 8.465" fill="#394D54"/></g></svg>