<svg width="200" height="200" xmlns="http://www.w3.org/2000/svg" xmlns:xlink="http://www.w3.org/1999/xlink"><defs><path d="M31.884 0v36.07H14.775v18.035H.452c-.061.522-.11 1.045-.16 1.569-.896 9.826.806 18.887 4.714 26.636l1.312 2.377c.787 1.424 1.704 2.762 2.674 4.067.968 1.304 1.31 2.025 1.92 2.892 10.333 11.711 25.738 17.349 43.524 17.349 39.387 0 72.814-17.595 87.607-57.12 10.496 1.086 20.564-1.627 25.153-10.659-7.31-4.253-16.703-2.89-22.115-.147L159.42 0l-55.99 36.07H85.541V0H31.884z" id="a"/><path d="M31.884 0v36.07H14.775v18.035H.452c-.061.522-.11 1.045-.16 1.569-.896 9.826.806 18.887 4.714 26.636l1.312 2.377c.787 1.424 1.704 2.762 2.674 4.067.968 1.304 1.31 2.025 1.92 2.892 10.333 11.711 25.738 17.349 43.524 17.349 39.387 0 72.814-17.595 87.607-57.12 10.496 1.086 20.564-1.627 25.153-10.659-7.31-4.253-16.703-2.89-22.115-.147L159.42 0l-55.99 36.07H85.541V0H31.884z" id="c"/><path d="M31.884 0v36.07H14.775v18.035H.452c-.061.522-.11 1.045-.16 1.569-.896 9.826.806 18.887 4.714 26.636l1.312 2.377c.787 1.424 1.704 2.762 2.674 4.067.968 1.304 1.31 2.025 1.92 2.892 10.333 11.711 25.738 17.349 43.524 17.349 39.387 0 72.814-17.595 87.607-57.12 10.496 1.086 20.564-1.627 25.153-10.659-7.31-4.253-16.703-2.89-22.115-.147L159.42 0l-55.99 36.07H85.541V0H31.884z" id="e"/></defs><g   fill-rule="evenodd"><path d="M133.517 78.755v18.276h9.074c4.19 0 8.501-.744 12.47-2.083 1.95-.659 4.138-1.576 6.062-2.728-2.534-3.295-3.827-7.456-4.208-11.557-.517-5.578.613-12.838 4.403-17.204l1.886-2.174 2.248 1.8c5.66 4.53 10.42 10.86 11.26 18.076 6.815-1.997 14.816-1.525 20.823 1.929L200 84.506l-1.297 2.522c-5.08 9.878-15.702 12.937-26.086 12.396-15.538 38.552-49.367 56.804-90.385 56.804-21.19 0-40.633-7.892-51.704-26.62-.65-1.164-1.205-2.38-1.795-3.575-3.742-8.244-4.985-17.275-4.142-26.299l.253-2.703h15.347V78.756h17.947V60.878h35.894V43h21.537v35.756h17.948z" fill="#555"/><g transform="translate(27.513 45.116)"><mask id="b" fill="#fff"><use xlink:href="#a"/></mask><g mask="url(#b)"><path fill="#999" d="M69.102 1.42h15.41v15.54h-15.41z"/><path d="M70.994 15.665V2.714m2.311 12.95V2.715m2.334 12.95V2.715m2.336 12.95V2.715m2.335 12.95V2.715m2.31 12.95V2.715" stroke="#555" stroke-width="1.56"/><path fill="#888" d="M15.756 52.819h15.411v-15.54h-15.41z"/><path d="M17.648 38.575v12.95m2.311-12.95v12.95m2.335-12.95v12.95m2.335-12.95v12.95m2.336-12.95v12.95m2.31-12.95v12.95" stroke="#555" stroke-width="1.56"/><g><path fill="#888" d="M33.538 19.35h15.411v15.54H33.538z"/><path fill="#999" d="M33.538 37.28h15.411v15.54H33.538z"/><path d="M35.43 33.595V20.644m2.311 12.95v-12.95m2.335 12.95v-12.95m2.335 12.95v-12.95m2.336 12.95v-12.95m2.31 12.95v-12.95M35.43 51.525v-12.95m2.311 12.95v-12.95m2.335 12.95v-12.95m2.335 12.95v-12.95m2.336 12.95v-12.95m2.31 12.95v-12.95" stroke="#555" stroke-width="1.56"/><path fill="#888" d="M51.32 52.819h15.41v-15.54H51.32z"/><path fill="#999" d="M51.32 34.89h15.41V19.35H51.32z"/><path d="M53.212 38.575v12.95m2.311-12.95v12.95m2.335-12.95v12.95m2.335-12.95v12.95m2.335-12.95v12.95m2.311-12.95v12.95" stroke="#555" stroke-width="1.56"/><path d="M53.212 20.644v12.951m2.311-12.95v12.95m2.335-12.95v12.95m2.335-12.95v12.95m2.335-12.95v12.95m2.311-12.95v12.95" fill="#000" stroke="#555" stroke-width="1.56"/></g><g><path fill="#888" d="M69.102 19.35h15.41v15.54h-15.41z"/><path fill="#999" d="M69.102 37.28h15.41v15.54h-15.41z"/><path d="M70.994 33.595V20.644m2.311 12.95v-12.95m2.334 12.95v-12.95m2.336 12.95v-12.95m2.335 12.95v-12.95m2.31 12.95v-12.95" stroke="#555" stroke-width="1.56" fill="#000"/><path d="M70.994 51.525v-12.95m2.311 12.95v-12.95m2.334 12.95v-12.95m2.336 12.95v-12.95m2.335 12.95v-12.95m2.31 12.95v-12.95" stroke="#555" stroke-width="1.56"/><path fill="#888" d="M86.883 52.819h15.412v-15.54H86.883z"/><path d="M88.776 38.575v12.95m2.31-12.95v12.95m2.335-12.95v12.95m2.336-12.95v12.95m2.335-12.95v12.95m2.31-12.95v12.95" stroke="#555" stroke-width="1.56" fill="#000"/></g></g></g><g transform="translate(27.513 45.116)"><mask id="d" fill="#fff"><use xlink:href="#c"/></mask><path d="M145.087 41.073c1.193-9.343-5.742-16.683-10.043-20.167-4.955 5.777-5.725 20.919 2.05 27.294-4.34 3.886-13.483 7.409-22.845 7.409H-.778c-.91 9.854 0 57.306 0 57.306h168.751l-.767-71.688c-7.309-4.253-16.707-2.897-22.119-.154" fill="#999" mask="url(#d)"/></g><g transform="translate(27.513 45.116)"><mask id="f" fill="#fff"><use xlink:href="#e"/></mask><path d="M39.762 89.545L7.777 90.96l16.33 21.955 35.18-4.007c-10.53-5.038-16.31-11.886-19.525-19.363z" fill="#EEE" mask="url(#f)"/></g><path d="M34.92 134.69c11.295.674 23.349.795 33.863-2.801" stroke="#555" stroke-width="3.4" stroke-linecap="round"/><path d="M80.423 126.598a4.232 4.232 0 1 1-8.465 0 4.232 4.232 0 0 1 8.465 0z" fill="#EEE"/><path d="M75.02 124.537a1.08 1.08 0 0 0 2.027.517 2.645 2.645 0 1 1-1.486-1.452 1.08 1.08 0 0 0-.54.935zm123.922-11.696c-4.332-1.126-13.706-2.647-12.16-8.465-7.876 9.34-26.871 6.553-31.665 1.947-5.339 7.935-36.416 4.919-38.584-1.263-6.692 8.05-27.43 8.05-34.123 0-2.169 6.182-33.246 9.198-38.585 1.263-4.794 4.606-23.787 7.394-31.665-1.947 1.546 5.818-7.827 7.34-12.16 8.465h198.942z" fill="#555"/></g></svg>