<svg width="200" height="200" xmlns="http://www.w3.org/2000/svg"><g  ><path d="M57.83 155a3.818 3.818 0 0 1-3.038-1.511 3.892 3.892 0 0 1-.662-3.352c6.324-23.822 5.115-87.556 5.101-88.198a3.879 3.879 0 0 1 1.067-2.752 3.81 3.81 0 0 1 2.682-1.185c.027-.002.053-.002.079-.002 2.083 0 3.783 1.682 3.825 3.784.054 2.661 1.242 65.484-5.36 90.355A3.836 3.836 0 0 1 57.83 155z" fill="#0095DD"/><path d="M112.911 107c-7.788 0-14.348-3.152-14.77-3.362a3.823 3.823 0 0 1-1.942-2.198 3.74 3.74 0 0 1 .21-2.902c.955-1.876 3.277-2.639 5.19-1.705.23.112 12.19 5.747 20.227-.086a3.92 3.92 0 0 1 2.876-.705 3.88 3.88 0 0 1 2.54 1.5c.61.812.867 1.828.715 2.825a3.792 3.792 0 0 1-1.527 2.494c-4.306 3.128-9.11 4.139-13.519 4.139z" fill="#7658B1"/><path d="M128.15 144c-3.089 0-6.586-.187-10.52-.425-2.132-.13-3.754-1.95-3.623-4.066.13-2.114 1.947-3.711 4.095-3.593 8.104.493 17.284 1.055 19.495-1.618 1.61-1.948 1.27-7.282-1.011-15.853-5.597-21.028-.732-28.113 4.27-33.1.33-.318.648-.647.955-.987 3.38-3.828 14.336-9.755 16.497-10.903a3.892 3.892 0 0 1 2.944-.291 3.859 3.859 0 0 1 2.289 1.86 3.823 3.823 0 0 1-1.58 5.193c-4.864 2.585-12.525 7.148-14.33 9.192-.416.462-.847.911-1.291 1.346-2.872 2.864-7.213 7.191-2.28 25.728 3.159 11.87 3.019 18.44-.486 22.68-3.145 3.806-8.164 4.837-15.424 4.837z" fill="#FF8A12"/><path d="M121.126 200c-9.515 0-18.846-4.25-25.366-11.945-15.341-18.111-26.558-17.943-26.688-17.959-2.126.143-3.898-1.56-4.002-3.658-.105-2.099 1.451-3.89 3.544-4.035 1.503-.088 15.174-.401 33.02 20.666 6.767 7.99 16.947 11.119 26.565 8.162 18.738-5.76 32.005-32.454 36.393-73.238 3.879-36.046 6.175-72.902-11.633-92.745-10.588-11.804-27.847-17.54-52.759-17.54-53.496 0-64.512 34.897-66.764 49.902-3.392 22.593 5.298 45.997 18.594 50.09a3.852 3.852 0 0 1 2.549 4.818 3.854 3.854 0 0 1-4.813 2.548C32.8 109.846 21.834 83.01 25.819 56.464 31.13 21.108 58.934 0 100.201 0c27.224 0 46.356 6.575 58.49 20.098 19.923 22.205 17.623 60.945 13.558 98.721-6.484 60.231-28.966 75.838-41.79 79.78a31.766 31.766 0 0 1-9.333 1.401z" fill="#DB0012"/></g></svg>