<svg width="200" height="200" xmlns="http://www.w3.org/2000/svg"><g fill="#999"><path d="M57.877 156a3.882 3.882 0 0 1-3.075-1.511 3.854 3.854 0 0 1-.67-3.352c6.402-23.822 5.178-87.556 5.164-88.198a3.853 3.853 0 0 1 1.08-2.752 3.879 3.879 0 0 1 2.716-1.185c.027-.002.054-.002.08-.002a3.867 3.867 0 0 1 3.872 3.784c.055 2.661 1.257 65.484-5.426 90.355a3.876 3.876 0 0 1-3.74 2.861zm55.845-48.012c-7.793 0-14.356-3.2-14.779-3.413a3.864 3.864 0 0 1-1.942-2.232 3.848 3.848 0 0 1 .21-2.947 3.883 3.883 0 0 1 5.192-1.73c.23.113 12.197 5.834 20.238-.088a3.88 3.88 0 0 1 5.418.808 3.85 3.85 0 0 1-.811 5.4c-4.309 3.175-9.114 4.202-13.526 4.202zm15.35 37.437c-3.096 0-6.6-.188-10.543-.428a3.868 3.868 0 0 1-3.63-4.093c.13-2.128 1.95-3.735 4.103-3.617 8.121.497 17.321 1.062 19.538-1.628 1.612-1.961 1.272-7.331-1.014-15.959-5.61-21.167-.733-28.3 4.28-33.32.33-.32.65-.65.956-.993 3.389-3.854 14.368-9.82 16.533-10.975a3.885 3.885 0 0 1 2.95-.294 3.857 3.857 0 0 1 .71 7.1c-4.873 2.603-12.551 7.196-14.36 9.254-.417.465-.848.917-1.294 1.355-2.878 2.883-7.229 7.239-2.284 25.898 3.165 11.949 3.025 18.563-.487 22.83-3.153 3.832-8.183 4.87-15.458 4.87z"/><path d="M121.126 200c-9.515 0-18.846-4.25-25.366-11.945-15.341-18.111-26.558-17.943-26.688-17.959-2.126.143-3.898-1.56-4.002-3.658-.105-2.099 1.451-3.89 3.544-4.035 1.503-.088 15.174-.401 33.02 20.666 6.767 7.99 16.947 11.119 26.565 8.162 18.738-5.76 32.005-32.454 36.393-73.238 3.879-36.046 6.175-72.902-11.633-92.745-10.588-11.804-27.847-17.54-52.759-17.54-53.496 0-64.512 34.897-66.764 49.902-3.392 22.593 5.298 45.997 18.594 50.09a3.852 3.852 0 0 1 2.549 4.818 3.854 3.854 0 0 1-4.813 2.548C32.8 109.846 21.834 83.01 25.819 56.464 31.13 21.108 58.934 0 100.201 0c27.224 0 46.356 6.575 58.49 20.098 19.923 22.205 17.623 60.945 13.558 98.721-6.484 60.231-28.966 75.838-41.79 79.78a31.766 31.766 0 0 1-9.333 1.401z"/></g></svg>