<svg width="200" height="200" xmlns="http://www.w3.org/2000/svg"><g  ><path d="M24.12 31.2L15 35.733v128.634l9.12 4.533 35.932-66.17L24.12 31.2zm27.763 23.217l13.43-19.01 60.187 26.75-14.032 2.228-59.585-9.968zM41.46 147.06l14.783 20.312 69.257-29.879-13.38-2.079-70.66 11.646z" fill="#9D5025"/><path fill="#F58536" d="M44.75 163.916L23.5 168.9V31.2l21.25 4.834z"/><path d="M33.7 26.586L44.909 21l21.111 88.392-21.111 70.558-11.209-5.586V26.586zm77.407 109.156l14.175 2.179 12.968-35.993-12.968-39.35-14.175 2.23v70.934z" fill="#9D5025"/><path fill="#F58536" d="M66.85 173.813L45.6 179.95V21l21.25 6.162z"/><path d="M139.776 135.14L45.6 152.774v27.176l94.176-26.8v-18.01zm.174-69.731L45.6 47.349V21l94.35 26.976v17.433z" fill="#F58536"/><path fill="#F58536" d="M125.5 43.95l15.3 4.219v105.488l-15.3 4.193z"/><path fill="#6B3A19" d="M185 86.235l-40.824 1.915-14.426-.97 41.275-33.03z"/><path fill="#9D5025" d="M129.75 87.3l41.65-2.321V54.15l-41.65 6.665z"/><path fill="#6B3A19" d="M90.65 83.452l41.7-41.202 21.2 39.807-43.223 2.693-19.677-1.298z"/><path d="M90.65 84.436l41.939-3.56V42.25l-41.939 9.8v32.386zm38.95 29.076l55.4.953-14.013 32.335-41.387-6.693v-26.595zm-38.95 1.838l62.9 1.435L132.35 157l-41.7-9.652V115.35z" fill="#9D5025"/><path d="M90.65 115.762l41.939 3.838 21.321-2.282-43.47-2.98-19.79 1.424zM185 113.99l-40.934-2.04-14.466 1.02 41.387 2.523L185 113.99z" fill="#FBBF93"/><path d="M171.137 84.856L185 86.24V57.995l-13.863-4.2v31.061zm-16.894-1.71l-21.093-2.138V42.25l21.093 6.414v34.482zm16.894 32.973L185 114.711v28.244l-13.863 4.2V116.12zm-16.894 1.71l-21.093 2.138V158.7l21.093-6.388v-34.483z" fill="#F58536"/></g></svg>