<svg width="200" height="200" xmlns="http://www.w3.org/2000/svg"><path d="M100.485 9C49.415 9 8 50.564 8 101.837c0 41.01 26.5 75.8 63.268 88.087 4.624.855 6.312-2.012 6.312-4.473 0-2.208-.08-8.045-.127-15.79-25.725 5.607-31.16-12.448-31.16-12.448-4.196-10.726-10.267-13.58-10.267-13.58-8.405-5.757.625-5.641.625-5.641 9.284.659 14.163 9.57 14.163 9.57 8.256 14.182 21.656 10.09 26.928 7.71.833-6 3.226-10.09 5.874-12.414-20.534-2.347-42.132-10.31-42.132-45.875 0-10.137 3.607-18.425 9.527-24.92-.96-2.347-4.128-11.79.902-24.562 0 0 7.77-2.497 25.436 9.513 7.377-2.058 15.285-3.086 23.159-3.121 7.85.046 15.77 1.063 23.159 3.132 17.655-12.009 25.413-9.512 25.413-9.512 5.041 12.783 1.873 22.215.925 24.561 5.932 6.496 9.504 14.783 9.504 24.92 0 35.658-21.62 43.506-42.224 45.806 3.318 2.867 6.278 8.53 6.278 17.187 0 12.414-.116 22.424-.116 25.464 0 2.485 1.665 5.374 6.36 4.461 36.709-12.298 63.186-47.077 63.186-88.075C192.993 50.564 151.578 9 100.485 9z" fill="#5C6BC0"/></svg>