<?xml version="1.0" encoding="UTF-8"?>
<svg width="200px" height="200px" viewBox="0 0 200 200" version="1.1" xmlns="http://www.w3.org/2000/svg" xmlns:xlink="http://www.w3.org/1999/xlink">
    <!-- Generator: Sketch 48.2 (47327) - http://www.bohemiancoding.com/sketch -->
    <title>Heroku_Color</title>
    <desc>Created with Sketch.</desc>
    <defs></defs>
    <g id="Page-1" stroke="none" stroke-width="1" fill="none" fill-rule="evenodd">
        <g id="Heroku_Color" fill-rule="nonzero">
            <g id="heroku" transform="translate(33.000000, 17.000000)">
                <path d="M118.15431,166 L15.845166,166 C7.09309187,166 0,158.912691 0,150.169322 L0,15.831201 C0,7.08783211 7.09361554,0 15.8446424,0 L118.153787,0 C126.90429,0 134,7.08783211 134,15.831201 L134,150.169322 C134,158.912691 126.90429,166 118.153787,166 L118.15431,166 Z" id="Shape" fill="#6762A6"></path>
                <path d="M83.0580877,144 L83.0580877,78.3745117 C83.0580877,78.3745117 87.3570607,62.6700234 30.104917,84.7990277 C30,85.0797812 30,24.1145933 30,24.1145933 L48.7066965,24 L48.7066965,63.0612032 C48.7066965,63.0612032 101.084398,42.5776543 101.084398,78.5958851 L101.084398,144 L83.0586123,144 L83.0580877,144 Z M93.7176523,47.6405938 L73.8757541,47.6405938 C81.0179771,38.9700495 87.4834857,24.1140724 87.4834857,24.1140724 L108,24.1140724 C108,24.1140724 104.48738,33.795642 93.7181769,47.6405938 L93.7176523,47.6405938 Z M30.339931,143.886448 L30.339931,106.514454 L49.160987,125.202014 L30.339931,143.886448 Z" id="Shape" fill="#FFFFFF"></path>
            </g>
        </g>
    </g>
</svg>