<?xml version="1.0" encoding="UTF-8"?>
<svg width="200px" height="200px" viewBox="0 0 200 200" version="1.1" xmlns="http://www.w3.org/2000/svg" xmlns:xlink="http://www.w3.org/1999/xlink">
    <!-- Generator: Sketch 48.2 (47327) - http://www.bohemiancoding.com/sketch -->
    <title>Java_Gray</title>
    <desc>Created with Sketch.</desc>
    <defs></defs>
    <g id="Page-1" stroke="none" stroke-width="1" fill="none" fill-rule="evenodd">
        <g id="Java_Gray" fill="#999999" fill-rule="nonzero">
            <g transform="translate(34.000000, 10.000000)" id="Group">
                <g transform="translate(40.974747, 0.000000)">
                    <path d="M24.7666808,33.5983584 C16.4513689,39.4296812 7.02713795,46.0390277 1.977426,56.9737655 C-6.79340381,76.0511173 19.9246934,96.860448 21.0666517,97.7369513 C21.6147464,98.1579093 22.3826966,98.1421662 22.9129757,97.6991014 C23.443259,97.2563211 23.5939111,96.5056811 23.2753515,95.8935257 C23.1786945,95.7077813 13.5882135,77.1333412 13.9446142,63.808108 C14.0707955,59.1669513 20.5847727,53.9019736 27.4808087,48.3278893 C33.7969027,43.2223715 40.9565486,37.4359078 45.1454863,30.666751 C54.3416068,15.7665455 44.1205708,1.11516733 44.0161813,0.968674572 C43.6105231,0.400465837 42.8606091,0.194142193 42.2201189,0.474524374 C41.5799216,0.755792849 41.2256386,1.44650066 41.3716464,2.12870092 C41.3923837,2.22577866 43.3800026,11.9146271 37.8491147,21.8968116 C35.5708219,26.0217391 30.564342,29.5326588 24.7666808,33.5983584 Z" id="Shape"></path>
                    <path d="M59.7997384,40.1688037 C60.3856542,39.7279858 60.5574066,38.9247083 60.2027484,38.2839462 C59.8480901,37.643184 59.0749242,37.359886 58.3885465,37.6191989 C56.9759487,38.1547036 23.7972992,50.9069328 23.7972992,66.3149565 C23.7972992,76.9363821 28.3475581,82.5472648 31.6700978,86.6448564 C32.9733853,88.2520711 34.0984725,89.6398972 34.4692838,90.8248063 C35.5131792,94.2393491 33.0401665,100.41097 32.0001374,102.50112 C31.6997271,103.102646 31.8464749,103.830702 32.3566335,104.269795 C32.8667921,104.708887 33.6105675,104.747304 34.1634963,104.36312 C34.7339482,103.9678 48.1056501,94.5410962 45.7075026,83.1837022 C44.8140407,78.866722 42.6865328,75.7125718 40.8092785,72.9292095 C37.9011337,68.6167852 35.8006897,65.5018867 38.9872067,59.7487167 C42.7206263,53.038087 59.6285677,40.2963715 59.7997384,40.1688037 Z" id="Shape"></path>
                </g>
                <g transform="translate(0.000000, 94.712121)">
                    <path d="M14.4963,10.1828343 C13.93,11.8703371 14.1974,13.5442563 15.26875,15.0252185 C18.8503,19.9734852 31.53675,22.6978706 50.99255,22.6978706 L50.995,22.6978706 C53.6312,22.6978706 56.4144,22.6463225 59.26515,22.5446195 C90.3714,21.4366842 101.9088,11.793015 102.3848,11.3830685 C102.901805,10.9360796 103.039807,10.1928647 102.717458,9.59153408 C102.395108,8.99020348 101.697953,8.69033981 101.03695,8.8687067 C90.0816,11.8452596 69.62515,12.9019951 55.43615,12.9019951 C39.5591,12.9019951 31.4734,11.7637579 29.4938,10.9233154 C30.5095,9.53534867 36.7745,7.05686158 44.53785,5.53723831 C45.2788202,5.39117459 45.7876877,4.7097 45.7144421,3.96154822 C45.6411964,3.21339644 45.0097171,2.64248099 44.25435,2.64149046 C39.70365,2.64149046 16.8819,3.00511336 14.4963,10.1828343 Z M118.5842,0.250077815 C112.16835,0.250077815 106.0843,3.45023793 105.8281,3.58572578 C105.235339,3.90262034 104.934559,4.5796462 105.097951,5.2292152 C105.261344,5.8787842 105.847169,6.33495738 106.52005,6.33658174 C106.6562,6.33658174 120.20575,6.44699214 121.43285,14.150991 C122.51995,20.7972095 108.6127,31.5658807 103.16215,35.1547411 C102.583859,35.2769006 102.135506,35.732135 102.0244,36.3099529 C101.913295,36.8877709 102.161089,37.4755651 102.653208,37.8015513 C103.145327,38.1275375 103.785865,38.1281862 104.27865,37.8031975 C105.57225,37.527694 135.92075,30.8724198 132.71195,13.2886057 C130.7544,2.51227198 123.9483,0.250077815 118.5842,0.250077815 Z M97.77145,33.0029574 C97.8768494,32.4395525 97.6419461,31.8667909 97.1705,31.5376685 L89.89365,26.4654078 C89.5385936,26.2188054 89.0925153,26.1400865 88.6739,26.2501597 C88.59795,26.2693161 80.98825,28.2601863 69.94015,29.4809701 C65.55535,29.9703285 60.64415,30.2287654 55.73645,30.2287654 C44.69115,30.2287654 37.46925,28.9372772 36.4175,27.9899072 C36.2782,27.7238077 36.3223,27.6029484 36.34715,27.5357269 C36.53825,27.0070108 37.56235,26.3786816 38.22245,26.129997 C38.9549336,25.8636317 39.3504738,25.0739893 39.1232944,24.3315831 C38.896115,23.589177 38.1254493,23.1529357 37.3681,23.3380419 C30.0685,25.0910247 26.4992,27.5423446 26.7589,30.6237351 C27.2202,36.0871343 39.9364,38.8912798 50.68665,39.6324575 C52.2326,39.7376435 53.90455,39.790933 55.6549,39.790933 L55.6577,39.790933 C73.5336,39.790933 96.4502,34.2094609 96.6791,34.1526884 C97.2387428,34.0165712 97.6662298,33.5666284 97.77145,33.0029574 Z M42.9107,44.7280542 C43.4616248,44.3711522 43.7067522,43.6931431 43.5106,43.0687636 C43.31565,42.4442656 42.7287,42.0339708 42.0693,42.0426783 C41.09105,42.0684523 32.49715,42.4543663 31.8955,47.8993056 C31.7135,49.5265529 32.1818,51.0134362 33.28815,52.3178114 C36.37375,55.9568268 44.70305,58.1197561 58.7475,58.9298967 C60.40895,59.0291616 62.09665,59.0789682 63.7644,59.0789682 C81.61965,59.0789682 93.64495,53.5156076 94.1486,53.2787651 C94.6368333,53.0492147 94.9591479,52.5716067 94.9879469,52.0350149 C95.016746,51.498423 94.7473859,50.9893678 94.2865,50.7093722 L85.09025,45.1226756 C84.7712418,44.9299043 84.390772,44.8643333 84.0252,44.9391227 C83.9671,44.9513131 78.12805,46.1564235 69.3161,47.3469053 C67.6487,47.5726023 65.5606,47.6871923 63.1106,47.6871923 C54.3081,47.6871923 44.5172,46.2560367 42.63945,45.3187673 C42.61215,45.1439218 42.6468,44.9217078 42.9107,44.7280542 Z" id="Shape"></path>
                    <path d="M55.4428,75.8766741 C96.3417,75.8421927 118.29265,68.6042162 122.52135,64.049526 C124.0183,62.4383004 124.18,60.9127561 124.05295,59.9162761 C123.73865,57.4642596 121.4941,55.9630961 121.23965,55.8000928 C120.62575,55.4072129 119.80185,55.5099607 119.32305,56.0595746 C118.8453,56.6091886 118.8341,57.4123633 119.3136,57.9616289 C119.57155,58.2918152 119.72065,58.8445638 118.9664,59.5958421 C117.2759,61.1670135 100.22565,65.9362551 71.8368,67.3691523 C67.94795,67.5701201 63.86905,67.6725196 59.7142,67.6732162 C34.29615,67.6732162 15.694,64.2083498 13.25205,62.1896158 C14.1932,60.8437931 20.7732,58.6937508 27.77075,57.4774949 C28.5724603,57.3540963 29.1218516,56.6073081 28.9978499,55.8094968 C28.8738482,55.0116856 28.1234103,54.4649662 27.3217,54.5883648 C27.1243,54.6151837 26.4544,54.6548896 25.6788,54.7022581 C14.133,55.4037299 0.79065,56.9672387 0.0945,62.8872563 C-0.1169,64.6910905 0.42175,66.3287868 1.6961,67.7540213 C4.81425,71.2404822 13.7767,75.8759776 55.4414,75.8759776 L55.4428,75.8766741 Z" id="Shape"></path>
                    <path d="M130.55455,65.3330034 C129.977748,65.066925 129.294371,65.2007983 128.86195,65.6645829 C128.8021,65.729018 122.65295,72.1275967 104.16455,75.8850333 C97.0865,77.296336 83.8005,78.0120879 64.67545,78.0120879 C45.5147,78.0120879 27.28215,77.2618545 27.1005,77.2541919 C26.3389,77.2172724 25.68755,77.7682795 25.58395,78.5143333 C25.4802365,79.2599965 25.9625236,79.9621221 26.69835,80.1367045 C26.88805,80.1812866 45.9956,84.6360153 72.121,84.6360153 C84.65135,84.6360153 96.84465,83.6235137 108.3628,81.6249809 C129.83915,77.8783416 131.34275,67.2810329 131.3963,66.8317288 C131.471146,66.2035313 131.131448,65.5987045 130.55455,65.3330034 Z" id="Shape"></path>
                </g>
            </g>
        </g>
    </g>
</svg>