<svg width="200" height="200" xmlns="http://www.w3.org/2000/svg"><g fill="#81CF08"><path d="M99.68 190c-2.542 0-4.803-.563-7.063-1.972l-22.04-12.958c-3.39-1.971-1.695-2.535-.565-2.816 4.521-1.69 5.369-1.972 9.89-4.508.565-.281 1.13-.281 1.695.282l16.954 10.141c.565.282 1.412.282 1.978 0l66.118-38.028c.565-.282 1.13-1.127 1.13-1.69V62.394c0-.845-.283-1.408-1.13-1.69l-65.836-38.31c-.565-.281-1.413-.281-1.978 0L32.715 60.141c-.565.282-1.13 1.127-1.13 1.69v76.056c0 .564.282 1.409 1.13 1.69L50.799 150c9.89 4.789 15.823-.845 15.823-6.76V68.591c0-1.127.847-1.972 1.978-1.972h8.476c1.13 0 1.978.845 1.978 1.972v74.93c0 13.239-7.064 20.563-19.496 20.563-3.956 0-6.781 0-15.258-4.226L27.064 150C22.826 147.465 20 142.958 20 137.887V61.831c0-4.789 2.543-9.577 7.064-12.113L93.182 11.69c4.238-2.253 9.89-2.253 13.845 0l66.119 38.028c4.238 2.536 7.063 7.043 7.063 12.113v76.056c0 4.79-2.543 9.578-7.063 12.113l-66.401 38.31c-2.26 1.127-4.521 1.69-7.064 1.69z"/><path d="M121.026 136.283c-28.838 0-35.057-13.169-35.057-24.095 0-1.121.848-1.962 1.979-1.962h8.481c.848 0 1.697.56 1.98 1.681 1.13 8.686 5.088 12.889 22.617 12.889 13.854 0 19.79-3.082 19.79-10.367 0-4.203-1.696-7.285-23.465-9.526-18.094-1.681-29.403-5.603-29.403-20.173 0-13.168 11.309-21.013 30.251-21.013 21.204 0 31.665 7.285 33.078 22.975 0 .56-.282 1.12-.565 1.4-.283.28-.848.56-1.414.56h-8.481c-.848 0-1.697-.56-1.98-1.4-1.978-8.966-7.067-12.048-20.638-12.048-15.267 0-16.963 5.324-16.963 9.246 0 4.763 1.979 6.164 22.617 8.966 20.356 2.521 29.969 6.444 29.969 20.453 0 14.289-11.874 22.414-32.796 22.414z"/></g></svg>