<?xml version="1.0" encoding="UTF-8"?>
<svg width="200px" height="200px" viewBox="0 0 200 200" version="1.1" xmlns="http://www.w3.org/2000/svg" xmlns:xlink="http://www.w3.org/1999/xlink">
    <!-- Generator: Sketch 48.2 (47327) - http://www.bohemiancoding.com/sketch -->
    <title>NodeJS_Color</title>
    <desc>Created with Sketch.</desc>
    <defs></defs>
    <g id="Page-1" stroke="none" stroke-width="1" fill="none" fill-rule="evenodd">
        <g id="NodeJS_Color" fill="#81CF08" fill-rule="nonzero">
            <g id="NodeJs_Color" transform="translate(20.000000, 10.000000)">
                <path d="M79.6808776,180 C77.1378709,180 74.8774204,179.43662 72.61697,178.028169 L50.5775783,165.070423 C47.1869027,163.098592 48.8822405,162.535211 50.0124657,162.253521 C54.5333666,160.56338 55.3810355,160.28169 59.9019363,157.746479 C60.4670489,157.464789 61.0321616,157.464789 61.5972742,158.028169 L78.5506524,168.169014 C79.115765,168.450704 79.9634339,168.450704 80.5285465,168.169014 L146.646722,130.140845 C147.211834,129.859155 147.776947,129.014085 147.776947,128.450704 L147.776947,52.3943662 C147.776947,51.5492958 147.49439,50.9859155 146.646722,50.7042254 L80.8111028,12.3943662 C80.2459902,12.1126761 79.3983213,12.1126761 78.8332087,12.3943662 L12.7150337,50.1408451 C12.1499211,50.4225352 11.5848084,51.2676056 11.5848084,51.8309859 L11.5848084,127.887324 C11.5848084,128.450704 11.8673647,129.295775 12.7150337,129.577465 L30.7986371,140 C40.6881077,144.788732 46.6217901,139.15493 46.6217901,133.239437 L46.6217901,58.5915493 C46.6217901,57.4647887 47.469459,56.6197183 48.5996842,56.6197183 L57.0763733,56.6197183 C58.2065985,56.6197183 59.0542674,57.4647887 59.0542674,58.5915493 L59.0542674,133.521127 C59.0542674,146.760563 51.9903598,154.084507 39.5578825,154.084507 C35.6020942,154.084507 32.7765312,154.084507 24.2998421,149.859155 L7.06390759,140 C2.82556303,137.464789 0,132.957746 0,127.887324 L0,51.8309859 C0,47.0422535 2.54300673,42.2535211 7.06390759,39.7183099 L73.1820826,1.69014085 C77.4204272,-0.563380282 83.0715532,-0.563380282 87.0273415,1.69014085 L153.145516,39.7183099 C157.383861,42.2535211 160.209424,46.7605634 160.209424,51.8309859 L160.209424,127.887324 C160.209424,132.676056 157.666417,137.464789 153.145516,140 L86.7447852,178.309859 C84.4843347,179.43662 82.2238843,180 79.6808776,180 Z" id="Shape"></path>
                <path d="M101.026178,126.282723 C72.1884817,126.282723 65.9685864,113.114476 65.9685864,102.187633 C65.9685864,101.066931 66.8167539,100.226404 67.947644,100.226404 L76.4293194,100.226404 C77.2774869,100.226404 78.1256545,100.786755 78.408377,101.907457 C79.539267,110.592897 83.4973822,114.795529 101.026178,114.795529 C114.879581,114.795529 120.816754,111.713598 120.816754,104.429036 C120.816754,100.226404 119.120419,97.1444743 97.3507853,94.9030706 C79.2565445,93.2220178 67.947644,89.2995613 67.947644,74.7304372 C67.947644,61.5621905 79.2565445,53.7172775 98.1989529,53.7172775 C119.403141,53.7172775 129.863874,61.0018395 131.277487,76.6916655 C131.277487,77.2520164 130.994764,77.8123673 130.712042,78.0925428 C130.429319,78.3727183 129.863874,78.6528937 129.298429,78.6528937 L120.816754,78.6528937 C119.968586,78.6528937 119.120419,78.0925428 118.837696,77.2520164 C116.858639,68.2864016 111.769634,65.2044715 98.1989529,65.2044715 C82.9319372,65.2044715 81.2356021,70.5278053 81.2356021,74.4502618 C81.2356021,79.2132447 83.2146597,80.614122 103.853403,83.4158766 C124.209424,85.9374558 133.82199,89.8599123 133.82199,103.868685 C133.82199,118.157634 121.947644,126.282723 101.026178,126.282723 Z" id="Shape"></path>
            </g>
        </g>
    </g>
</svg>