<svg width="200" height="200" xmlns="http://www.w3.org/2000/svg"><g transform="translate(0 11)" fill="#999"><path d="M200 89.52c0-13.315-16.592-25.934-42.03-33.76 5.87-26.056 3.261-46.787-8.235-53.425-2.65-1.557-5.748-2.294-9.132-2.294v9.136c1.876 0 3.384.37 4.648 1.066 5.544 3.195 7.95 15.364 6.074 31.014-.449 3.851-1.182 7.908-2.08 12.046-7.99-1.967-16.713-3.483-25.886-4.466-5.503-7.58-11.21-14.463-16.959-20.485 13.29-12.414 25.765-19.216 34.244-19.216V0c-11.21 0-25.887 8.03-40.726 21.96C85.08 8.112 70.404.164 59.193.164V9.3c8.438 0 20.954 6.76 34.244 19.093A193.299 193.299 0 0 0 76.6 48.837c-9.213.983-17.937 2.499-25.927 4.507a124.163 124.163 0 0 1-2.12-11.882c-1.916-15.65.448-27.819 5.952-31.055 1.223-.738 2.813-1.066 4.688-1.066V.205c-3.425 0-6.523.737-9.213 2.294-11.456 6.637-14.024 27.328-8.113 53.303C16.51 63.668 0 76.246 0 89.52c0 13.316 16.592 25.935 42.03 33.76-5.87 26.057-3.261 46.788 8.235 53.426 2.65 1.557 5.748 2.294 9.172 2.294 11.211 0 25.887-8.03 40.726-21.96 14.839 13.848 29.515 21.796 40.726 21.796 3.424 0 6.522-.737 9.213-2.294 11.455-6.637 14.024-27.328 8.112-53.303C183.49 115.414 200 102.795 200 89.52zm-53.078-27.327c-1.508 5.285-3.383 10.734-5.503 16.184-1.672-3.278-3.425-6.556-5.34-9.833-1.876-3.278-3.874-6.474-5.871-9.587 5.789.86 11.374 1.925 16.714 3.236zm-18.67 43.634c-3.18 5.53-6.442 10.775-9.826 15.65-6.074.533-12.23.82-18.426.82-6.156 0-12.311-.287-18.345-.779a226.001 226.001 0 0 1-9.865-15.568 213.793 213.793 0 0 1-8.48-16.307c2.528-5.49 5.381-10.98 8.439-16.347 3.18-5.53 6.441-10.775 9.825-15.65 6.074-.533 12.23-.82 18.426-.82 6.156 0 12.311.287 18.345.778a226.001 226.001 0 0 1 9.865 15.57 213.793 213.793 0 0 1 8.48 16.306 229.816 229.816 0 0 1-8.439 16.347zm13.167-5.326a176.18 176.18 0 0 1 5.625 16.306 182.151 182.151 0 0 1-16.795 3.277c1.997-3.154 3.995-6.39 5.87-9.71 1.875-3.277 3.628-6.596 5.3-9.873zm-41.337 43.715c-3.792-3.933-7.583-8.317-11.334-13.11 3.67.163 7.42.286 11.211.286 3.832 0 7.624-.082 11.333-.286a159.701 159.701 0 0 1-11.21 13.11zm-30.33-24.132c-5.79-.86-11.375-1.925-16.715-3.236 1.508-5.285 3.384-10.734 5.504-16.184 1.671 3.278 3.424 6.556 5.34 9.833a271.592 271.592 0 0 0 5.87 9.587zm30.126-85.26c3.791 3.934 7.582 8.318 11.333 13.111-3.67-.163-7.42-.286-11.211-.286-3.832 0-7.623.082-11.333.286a159.701 159.701 0 0 1 11.21-13.11zM69.71 58.958c-1.998 3.154-3.996 6.39-5.87 9.71a231.817 231.817 0 0 0-5.3 9.832 176.18 176.18 0 0 1-5.626-16.306 197.102 197.102 0 0 1 16.796-3.236zm-36.894 51.295C18.386 104.065 9.05 95.952 9.05 89.52s9.336-14.585 23.767-20.73c3.506-1.516 7.338-2.869 11.292-4.139 2.324 8.03 5.381 16.389 9.173 24.951-3.75 8.522-6.768 16.84-9.05 24.829-4.036-1.27-7.868-2.664-11.415-4.18zm21.932 58.546c-5.544-3.195-7.95-15.364-6.074-31.014.449-3.852 1.182-7.908 2.08-12.046 7.99 1.967 16.713 3.483 25.886 4.466 5.503 7.58 11.21 14.463 16.959 20.485-13.29 12.414-25.765 19.216-34.244 19.216-1.835-.041-3.384-.41-4.607-1.107zm96.698-31.22c1.916 15.652-.448 27.82-5.952 31.056-1.223.738-2.813 1.066-4.688 1.066-8.438 0-20.954-6.76-34.244-19.093a193.299 193.299 0 0 0 16.837-20.444c9.213-.983 17.937-2.499 25.927-4.507.938 4.138 1.672 8.113 2.12 11.923zm15.695-27.326c-3.506 1.515-7.338 2.867-11.292 4.138-2.324-8.03-5.381-16.389-9.172-24.951 3.75-8.522 6.767-16.84 9.05-24.829 4.036 1.27 7.868 2.664 11.455 4.18 14.431 6.186 23.767 14.298 23.767 20.73-.04 6.433-9.376 14.586-23.808 20.732z"/><circle cx="100.5" cy="89.5" r="18.5"/></g></svg>