<svg width="200" height="200" xmlns="http://www.w3.org/2000/svg"><g fill="#E91C2C"><path d="M183.54 77H17.462a3.459 3.459 0 0 1-3.14-1.994 3.44 3.44 0 0 1 .495-3.679l39.83-47.1A3.461 3.461 0 0 1 57.294 23h86.425a3.46 3.46 0 0 1 2.645 1.226l39.822 47.101a3.441 3.441 0 0 1 .492 3.678A3.46 3.46 0 0 1 183.54 77zM24.906 70.1H176.1l-33.99-40.2H58.903L24.906 70.1z"/><path d="M100.5 178L15 76.448 20.282 72l80.218 95.277L180.718 72 186 76.448z"/><path d="M101.497 176a3.482 3.482 0 0 1-3.286-2.314L63.2 74.877a3.452 3.452 0 0 1 .479-3.208L98.69 24.33c1.31-1.775 4.298-1.775 5.612 0l35.02 47.338c.684.923.864 2.125.479 3.208l-35.02 98.809a3.478 3.478 0 0 1-3.284 2.314zM70.384 74.302l31.111 87.806 31.119-87.806-31.117-42.066-31.113 42.066z"/><path d="M60.795 26.003l8.42 47.766L62.422 75 54 27.233l6.795-1.23zM140.207 26L147 27.231 138.576 75l-6.795-1.231L140.207 26z"/></g></svg>