<svg width="200" height="200" xmlns="http://www.w3.org/2000/svg"><g fill="#999"><path d="M181.87 77.14H17.434a3.424 3.424 0 0 1-2.619-5.633l39.437-46.775a3.423 3.423 0 0 1 2.62-1.218h85.57c1.01 0 1.967.446 2.618 1.218l39.429 46.775a3.426 3.426 0 0 1-2.62 5.634zM24.805 70.29h149.698L140.85 30.365H58.464l-33.66 39.923z"/><path d="M99.652 176.67L14.814 75.922l5.241-4.412 79.597 94.523 79.597-94.523 5.242 4.412z"/><path d="M99.652 174.776a3.424 3.424 0 0 1-3.23-2.287L62 74.854a3.426 3.426 0 0 1 .47-3.17l34.423-46.776c1.288-1.754 4.225-1.754 5.517 0l34.429 46.776c.673.913.85 2.1.47 3.17l-34.428 97.635a3.42 3.42 0 0 1-3.229 2.287zM69.064 74.286l30.586 86.763 30.594-86.764L99.652 32.72 69.064 74.285z"/><path d="M60.244 26.337l8.359 46.773-6.745 1.206-8.36-46.775 6.746-1.204zm78.83-.003l6.743 1.205-8.362 46.777-6.745-1.206 8.364-46.776z"/></g></svg>