<?xml version="1.0" encoding="UTF-8"?>
<svg width="200px" height="200px" viewBox="0 0 200 200" version="1.1" xmlns="http://www.w3.org/2000/svg" xmlns:xlink="http://www.w3.org/1999/xlink">
    <!-- Generator: Sketch 48.2 (47327) - http://www.bohemiancoding.com/sketch -->
    <title>Sass_Gray</title>
    <desc>Created with Sketch.</desc>
    <defs></defs>
    <g id="Page-1" stroke="none" stroke-width="1" fill="none" fill-rule="evenodd">
        <g id="Sass_Gray" fill="#999999" fill-rule="nonzero">
            <g id="sass" transform="translate(0.000000, 25.000000)">
                <path d="M172.169587,86.5948262 C165.176789,86.6341233 159.121573,88.3238981 154.043005,90.8389118 C152.167841,87.1056883 150.292678,83.8440299 149.98015,81.4076104 C149.628557,78.57822 149.198832,76.8491481 149.628557,73.4695984 C150.058282,70.0900488 152.011578,65.2958039 152.011578,64.902833 C151.972512,64.5491592 151.581853,62.8200873 147.558064,62.7807902 C143.534275,62.7414931 140.057409,63.566732 139.66675,64.6277534 C139.276091,65.6887748 138.494773,68.1251943 137.986916,70.640208 C137.283729,74.3341344 129.939338,87.420065 125.759286,94.2970556 C124.391979,91.6248536 123.220002,89.2670282 122.985606,87.380768 C122.634013,84.5513775 122.204288,82.8223056 122.634013,79.442756 C123.063738,76.0632063 125.017033,71.2689614 125.017033,70.8759905 C124.977967,70.5223167 124.587308,68.7932448 120.56352,68.7539477 C116.539731,68.7146506 113.062865,69.5398895 112.672206,70.6009109 C112.281547,71.6619323 111.851822,74.176946 110.992371,76.6133656 C110.171987,79.0497851 100.40551,100.898967 97.8662255,106.597045 C96.5770505,109.505029 95.4441391,111.823557 94.623755,113.395441 C93.8033708,114.967324 94.5846891,113.513332 94.5065572,113.670521 C93.8033708,115.006622 93.4127117,115.753266 93.4127117,115.753266 L93.4127117,115.792563 C92.865789,116.774991 92.2798003,117.718121 92.006339,117.718121 C91.8110094,117.718121 91.4203503,115.085216 92.0844708,111.469884 C93.5299095,103.885545 97.0458414,92.0571216 97.0067755,91.6248536 C97.0067755,91.4283681 97.670896,89.3456224 94.7409527,88.284601 C91.8891412,87.2235796 90.8734275,88.9919486 90.6390321,88.9919486 C90.4046366,88.9919486 90.2093071,89.620702 90.2093071,89.620702 C90.2093071,89.620702 93.3736458,76.2989888 84.1540909,76.2989888 C78.3723362,76.2989888 70.4028904,82.6258202 66.4572334,88.4024923 C63.9570152,89.7778904 58.6440513,92.685875 53.0185602,95.790345 C50.8699351,96.9692577 48.6431782,98.2267645 46.533619,99.3663801 L46.103894,98.8948151 C34.9310436,86.9092029 14.2651769,78.4210316 15.1246269,62.3092251 C15.4371542,56.4539589 17.4685816,41.0102028 54.8155921,22.3047884 C85.4042001,6.9789237 109.898526,11.1837122 114.15671,20.5364194 C120.211926,33.8974297 101.06963,58.73319 69.269979,62.3092251 C57.1595467,63.6846232 50.7918033,58.9689726 49.190101,57.2006035 C47.5102668,55.3536404 47.2758713,55.2750462 46.6508168,55.62872 C45.6351031,56.1788792 46.2601577,57.829357 46.6508168,58.8117842 C47.5883986,61.2875008 51.4949897,65.6887748 58.1361945,67.8894118 C63.9570152,69.8149691 78.1770066,70.8759905 95.3660073,64.1954854 C114.625501,56.6897414 129.665877,35.8622842 125.251429,18.4536737 C120.758849,0.730686539 91.537548,-5.08528264 63.9179493,4.77828671 C47.4712009,10.6728501 29.6571457,19.8683689 16.843527,31.9325753 C1.60782189,46.2367157 -0.814264566,58.73319 0.201449109,63.9204058 C3.75644697,82.4293347 29.1102229,94.4935411 39.2673597,103.41398 C38.7595028,103.68906 38.2907119,103.96414 37.8609869,104.199922 C32.7824185,106.714936 13.4447928,116.892882 8.60061988,127.660284 C3.1313924,139.842382 9.46006991,148.605633 13.6791883,149.784545 C26.7272024,153.439175 40.0877438,146.876561 47.3149373,136.069861 C54.5030648,125.263162 53.6436148,111.234101 50.3230124,104.828676 L50.2058146,104.592893 L54.1905375,102.235068 C56.7688876,100.702481 59.3081718,99.2877859 61.5349287,98.0695762 C60.2848196,101.488423 59.3863036,105.536023 58.9175127,111.430586 C58.37059,118.346874 61.1833355,127.30661 64.894597,130.843348 C66.5353653,132.375935 68.4886608,132.415232 69.699704,132.415232 C73.9969542,132.415232 75.9502497,128.839197 78.0988748,124.555814 C80.7553567,119.329301 83.0993113,113.27755 83.0993113,113.27755 C83.0993113,113.27755 80.1693681,129.664436 88.1778797,129.664436 C91.107823,129.664436 94.0377663,125.852618 95.3660073,123.887764 L95.3660073,123.927061 C95.3660073,123.927061 95.4441391,123.80917 95.6004027,123.53409 C95.91293,123.062525 96.0691937,122.787445 96.0691937,122.787445 L96.0691937,122.708851 C97.241171,120.665402 99.858587,115.989049 103.765178,108.247522 C108.804681,98.2660616 113.648853,85.7695873 113.648853,85.7695873 C113.648853,85.7695873 114.117644,88.8347603 115.563083,93.8647877 C116.422533,96.8513664 118.297697,100.113025 119.743135,103.296089 C118.571158,104.946567 117.867972,105.889697 117.867972,105.889697 L117.907038,105.928994 C116.969456,107.186501 115.914676,108.522602 114.820831,109.858703 C110.836108,114.652948 106.070067,120.115243 105.445012,121.687127 C104.70276,123.53409 104.859024,124.909488 106.304462,126.009807 C107.359242,126.795748 109.234406,126.952937 111.226767,126.795748 C114.820831,126.559966 117.321049,125.656133 118.571158,125.105973 C120.524454,124.398626 122.751211,123.337604 124.899836,121.765721 C128.806427,118.857736 131.189447,114.731542 130.955052,109.229949 C130.837854,106.204074 129.861206,103.217495 128.650163,100.388104 C129.001756,99.8772423 129.353349,99.3663801 129.704943,98.8162209 C135.877357,89.7385933 140.643398,79.7571327 140.643398,79.7571327 C140.643398,79.7571327 141.112189,82.8223056 142.557627,87.852333 C143.29988,90.4066438 144.784384,93.1967371 146.112625,95.9475334 C140.33087,100.702481 136.697741,106.204074 135.447632,109.819406 C133.142743,116.499911 134.939775,119.525787 138.338509,120.233134 C139.862079,120.547511 142.04977,119.840164 143.690539,119.132816 C145.721966,118.464765 148.183118,117.32515 150.448941,115.635375 C154.355532,112.72739 158.10586,108.67979 157.91053,103.217495 C157.793332,100.702481 157.129212,98.2267645 156.230696,95.8689392 C161.153001,93.8254906 167.520744,92.6465779 175.607388,93.6290051 C192.991718,95.6724538 196.429518,106.597045 195.765397,111.155507 C195.101277,115.713969 191.468147,118.228983 190.257104,119.014925 C189.046061,119.761569 188.655402,120.036649 188.772599,120.586808 C188.928863,121.412047 189.475786,121.37275 190.530565,121.215562 C191.976004,120.979779 199.671988,117.482338 199.984516,109.072761 C200.453307,98.2660616 190.257104,86.4769349 172.169587,86.5948262 Z M38.0953824,132.061558 C32.3526935,138.38839 24.26605,140.785512 20.8282499,138.742063 C17.1169884,136.580723 18.5624271,127.267313 25.6333569,120.547511 C29.9306071,116.460614 35.5170323,112.688093 39.1892279,110.369565 C40.009612,109.858703 41.2597211,109.112058 42.7442257,108.208225 C42.9786212,108.051037 43.1348848,107.972443 43.1348848,107.972443 C43.4083462,107.815254 43.7208735,107.618769 44.0334008,107.422283 C46.6508168,117.010773 44.1505985,125.42035 38.0953824,132.061558 Z M80.0912362,103.335386 C78.0988748,108.247522 73.8797565,120.861888 71.3404723,120.15454 C69.1527813,119.565084 67.8245403,110.015891 70.9107472,100.58459 C72.4733837,95.8296421 75.7939861,90.1708613 77.7472816,87.9702243 C80.9116204,84.4334863 84.3494205,83.2545736 85.2088705,84.7085659 C86.2245842,86.5948262 81.3413454,100.270213 80.0912362,103.335386 Z M114.742699,119.997352 C113.883249,120.42962 113.101931,120.743997 112.750337,120.508214 C112.476876,120.351026 113.101931,119.761569 113.101931,119.761569 C113.101931,119.761569 117.438247,115.085216 119.157147,112.923876 C120.133795,111.666369 121.305772,110.212377 122.555881,108.561899 L122.555881,109.033464 C122.555881,114.692245 117.164785,118.464765 114.742699,119.997352 Z M141.463782,113.867006 C140.838727,113.395441 140.916859,111.941449 143.026418,107.382986 C143.846802,105.57532 145.721966,102.549444 148.964437,99.6807568 C149.355096,100.85967 149.589491,101.999285 149.550425,103.060307 C149.511359,110.133783 144.510923,112.766688 141.463782,113.867006 Z" id="Shape"></path>
            </g>
        </g>
    </g>
</svg>