<svg width="200" height="200" xmlns="http://www.w3.org/2000/svg"><path d="M177.955 91.931L146.643 37.6c-2.718-4.72-9.394-8.6-14.83-8.6H69.187c-5.421 0-12.113 3.88-14.831 8.584L23.045 91.916c-2.727 4.719-2.727 12.418 0 17.168l31.312 54.332c2.718 4.719 9.394 8.584 14.83 8.584h62.625c5.421 0 12.105-3.88 14.831-8.584l31.312-54.332c2.727-4.711 2.727-12.426 0-17.153zM93.731 59.053a6.476 6.476 0 0 1 3.161-5.792 6.447 6.447 0 0 1 6.588 0 6.476 6.476 0 0 1 3.162 5.792v38.66a6.476 6.476 0 0 1-3.162 5.793 6.447 6.447 0 0 1-6.588 0 6.476 6.476 0 0 1-3.16-5.792V59.053zm6.46 82.49c-18.859-.015-35.587-12.135-41.513-30.076-5.927-17.942.28-37.67 15.405-48.96a5.732 5.732 0 0 1 8.03 1.18 5.76 5.76 0 0 1-1.176 8.048c-12.208 9.083-16.44 25.47-10.16 39.346 6.28 13.877 21.368 21.483 36.229 18.263 14.86-3.22 25.466-16.393 25.464-31.63a32.537 32.537 0 0 0-13.112-26.025 5.774 5.774 0 0 1-1.254-8.057 5.745 5.745 0 0 1 8.039-1.257c15.206 11.244 21.496 31 15.597 48.992-5.898 17.993-22.652 30.16-41.55 30.176z" fill="#68BD45"/></svg>