<?xml version="1.0" encoding="UTF-8"?>
<svg width="226px" height="218px" viewBox="0 0 226 218" version="1.1" xmlns="http://www.w3.org/2000/svg">
    <g transform="translate(-379.000000, -169.000000)" fill="#999999">
        <path d="M491.558594,273.172852 L443.225586,225.938477 C430.330404,207.372721 430.330404,191.598307 443.225586,178.615234 C462.568359,159.140625 491.558594,178.615234 491.558594,178.615234 C491.558594,178.615234 520.160156,155.466797 542.46875,182.126953 C547.297962,187.898162 549.367529,194.24074 549.685547,200.488281 C549.791433,202.568437 550.044151,204.574157 549.685547,206.629883 C548.431365,213.819569 539.885792,224.858957 524.048828,239.748047 L491.558594,273.172852 Z" id="Path-2"></path>
        <path d="M491.373535,386.62141 L443.040527,339.387035 C430.145345,320.82128 430.145345,305.046866 443.040527,292.063793 C462.383301,272.589184 491.373535,292.063793 491.373535,292.063793 C491.373535,292.063793 519.975098,268.915356 542.283691,295.575512 C547.112903,301.346721 549.182471,307.689299 549.500488,313.93684 C549.606374,316.016996 549.859093,318.022716 549.500488,320.078442 C548.246306,327.268128 539.700733,338.307516 523.86377,353.196606 L491.373535,386.62141 Z" id="Path-2" transform="translate(491.527621, 334.681799) rotate(-180.000000) translate(-491.527621, -334.681799) "></path>
        <path d="M550.39502,328.775707 L502.062012,281.541332 C489.166829,262.975577 489.166829,247.201163 502.062012,234.21809 C521.404785,214.743481 550.39502,234.21809 550.39502,234.21809 C550.39502,234.21809 578.996582,211.069653 601.305176,237.729809 C606.134388,243.501017 608.203955,249.843596 608.521973,256.091137 C608.627858,258.171293 608.880577,260.177013 608.521973,262.232739 C607.267791,269.422425 598.722218,280.461813 582.885254,295.350903 L550.39502,328.775707 Z" id="Path-2" transform="translate(550.549106, 276.836096) rotate(-270.000000) translate(-550.549106, -276.836096) "></path>
        <path d="M431.23877,329.117504 L382.905762,281.883129 C370.010579,263.317374 370.010579,247.54296 382.905762,234.559887 C402.248535,215.085278 431.23877,234.559887 431.23877,234.559887 C431.23877,234.559887 459.840332,211.411449 482.148926,238.071606 C486.978138,243.842814 489.047705,250.185393 489.365723,256.432934 C489.471608,258.51309 489.724327,260.518809 489.365723,262.574535 C488.111541,269.764222 479.565968,280.80361 463.729004,295.692699 L431.23877,329.117504 Z" id="Path-2" transform="translate(431.392856, 277.177893) rotate(-90.000000) translate(-431.392856, -277.177893) "></path>
    </g>
</svg>