<svg width="200" height="200" xmlns="http://www.w3.org/2000/svg"><g fill="#F90"><path d="M55.852 83.647c0 2.47.409 4.53.818 5.765.409 1.647 1.227 2.882 2.045 4.94.409.413.409 1.236.409 1.648 0 .824-.41 1.235-1.227 2.059l-4.09 2.882c-.818.412-1.227.412-1.636.412-.818 0-1.227-.412-2.045-.824-.818-.823-1.636-2.058-2.454-3.294-.818-1.235-1.227-2.47-2.045-4.117-5.317 6.176-11.86 9.058-19.631 9.058-5.726 0-9.816-1.647-13.088-4.94C9.636 93.94 8 89.823 8 84.47c0-5.765 2.045-10.295 6.135-13.589 4.09-3.294 9.407-5.353 16.36-5.353 2.044 0 4.498 0 6.952.412 2.454.412 4.908.824 7.771 1.647v-4.53c0-4.94-1.227-8.646-3.272-10.705-2.045-2.059-5.726-3.294-10.634-3.294-2.454 0-4.499.412-6.952.823-2.454.412-4.908 1.236-6.953 2.47-1.227.413-2.045.824-2.454.824h-1.227c-.818 0-1.227-.823-1.227-2.058v-3.294c0-1.236 0-2.06.409-2.471.409-.412.818-.824 2.045-1.235 2.454-1.236 4.908-2.06 8.18-2.883C26.404 40.412 29.676 40 33.357 40c7.771 0 13.497 1.647 17.178 5.353 3.68 3.706 5.317 9.059 5.317 16.47v21.824zM28.858 93.941c2.045 0 4.5-.412 6.953-1.235 2.454-.824 4.5-2.059 6.135-4.118 1.227-1.235 1.636-2.47 2.454-4.117.409-1.647.818-3.706.818-5.765v-3.294l-6.135-1.236c-2.045-.411-4.09-.411-6.135-.411-4.499 0-7.77.823-9.815 2.882-2.045 1.647-3.272 4.53-3.272 7.824 0 3.294.818 5.353 2.454 7 1.227 1.647 3.272 2.47 6.543 2.47zm53.169 7c-1.227 0-2.045-.412-2.454-.823-.409-.412-.818-1.236-1.227-2.47l-15.95-51.472c-.41-1.235-.41-2.058-.41-2.882 0-1.235.41-1.647 1.636-1.647h6.544c1.227 0 2.045.412 2.454.824.41.411.818 1.235 1.227 2.47L84.89 89l10.225-44.059c.409-1.235.818-2.059 1.227-2.47.409-.412 1.227-.824 2.862-.824h5.317c1.227 0 2.045.412 2.863.824.41.411.818 1.235 1.227 2.47l10.634 44.883 11.452-44.883c.409-1.235.818-2.059 1.227-2.47.409-.412 1.227-.824 2.454-.824h6.134c1.227 0 1.636.412 1.636 1.647v1.235c0 .412-.409.824-.409 1.647l-15.95 51.471c-.41 1.235-.818 2.059-1.227 2.47-.41.412-1.227.824-2.454.824h-5.726c-1.227 0-2.045-.412-2.863-.823-.409-.412-.818-1.236-1.227-2.883l-10.225-42.411-10.224 42.823c-.41 1.235-.818 2.059-1.227 2.882-.41.412-1.636.824-2.863.824h-5.726v-.412zm85.07 2.059c-3.681 0-6.953-.412-10.225-1.235-3.272-.824-5.726-1.647-7.77-2.883-1.228-.823-1.637-1.235-2.046-2.058-.409-.824-.409-1.236-.409-2.06v-2.882c0-1.235.41-2.058 1.636-2.058.41 0 .818 0 1.227.411.41 0 .818.412 1.636.824 2.045.823 4.499 1.647 7.362 2.47 2.454.412 5.317.824 7.77.824 4.09 0 7.362-.824 9.816-2.059 2.454-1.647 3.272-3.706 3.272-6.176 0-2.06-.409-3.294-1.636-4.53-1.227-1.235-3.272-2.47-6.543-3.706L161.37 75c-4.908-1.647-8.589-3.706-10.634-6.588-2.045-2.883-3.272-6.177-3.272-9.883 0-2.882.41-5.353 1.636-7.411 1.227-2.06 2.863-4.118 4.908-5.353 2.045-1.647 4.09-2.47 6.953-3.294 2.454-.824 5.317-1.236 8.18-1.236 1.636 0 2.862 0 4.498.412 1.636 0 2.863.412 4.09.824l3.681 1.235c1.227.412 2.045.823 2.863 1.235.818.412 1.636 1.235 2.045 1.647.41.412.41 1.236.41 2.06v3.293c0 1.235-.41 2.059-1.637 2.059-.409 0-1.227-.412-2.454-.824-3.68-1.647-8.18-2.47-12.678-2.47-3.681 0-6.544.823-8.998 2.059-2.045 1.235-3.272 3.294-3.272 5.764 0 2.06.818 3.295 2.045 4.53 1.227 1.235 3.68 2.47 7.362 3.706l9.406 2.882c4.908 1.647 8.18 3.706 10.225 6.588C188.773 79.118 190 82 190 85.705c0 2.883-.409 5.354-1.636 7.824-1.227 2.471-2.863 4.118-4.908 5.765-2.045 1.647-4.499 2.882-7.362 3.706-2.454-.412-5.316 0-8.997 0zm13.59 32.327c-21.707 16.13-53.655 24.816-80.687 24.816-38.091 0-72.905-14.476-98.709-38.051-2.048-2.068-.41-4.55 2.048-2.896 28.261 16.544 63.075 26.47 98.709 26.47 24.165 0 50.788-4.962 75.363-15.716 3.686-1.24 6.963 2.895 3.276 5.377z"/><path d="M189.698 124.987c-2.867-3.723-18.43-1.655-25.394-.827-2.048.413-2.457-1.655-.41-2.896 12.698-8.685 33.177-6.203 35.225-3.308 2.457 2.895-.82 23.575-12.288 33.501-1.638 1.654-3.686.827-2.867-1.24 2.867-6.618 8.601-21.508 5.734-25.23z"/></g></svg>