<svg width="200" height="200" xmlns="http://www.w3.org/2000/svg"><g  ><path d="M24.1 31.275L15 35.8v128.4l9.1 4.525 35.85-66.05-35.85-71.4zM51.8 54.45l13.4-18.975 60.05 26.7-14 2.225-59.45-9.95zm-10.4 92.475L56.15 167.2l69.1-29.825-13.35-2.075-70.5 11.625z" fill="#4E4E4E"/><path fill="#989898" d="M45.3 163.75l-21.2 4.975V31.275L45.3 36.1z"/><path d="M34.15 26.25l11.15-5.575 21 88.225-21 70.425-11.15-5.575V26.25zm77 108.95l14.1 2.175 12.9-35.925-12.9-39.275-14.1 2.225v70.8z" fill="#4E4E4E"/><path fill="#989898" d="M67 173.2l-21.7 6.125V20.675l21.7 6.15z"/><path d="M140.025 134.6L45.3 152.2v27.125l94.725-26.75V134.6zM140.2 65L45.3 46.975v-26.3L140.2 47.6V65z" fill="#989898"/><path fill="#989898" d="M125.25 43.35l15.225 4.2v105.025l-15.225 4.175z"/><path fill="#373737" d="M185 86.125l-40.75 1.925-14.4-.975 41.2-33.2z"/><path fill="#4E4E4E" d="M129.85 87.075l41.2-2.325V53.875l-41.2 6.675z"/><path fill="#373737" d="M91.075 84.475l41.75-42.075 21.225 40.65-43.275 2.75-19.7-1.325z"/><path d="M91.075 84.475l41.75-3.55V42.4l-41.75 9.775v32.3zm38.775 29l55.15.95-13.95 32.25-41.2-6.675v-26.525zm-38.775 2.6l62.975 1.45-21.225 40.625-41.75-9.75v-32.325z" fill="#4E4E4E"/><path d="M91.075 116.075l41.75 3.575 21.225-2.125-43.275-2.775-19.7 1.325zm93.925-1.65l-40.75-1.9-14.4.95 41.2 2.35 13.95-1.4z" fill="#D3D3D3"/><path d="M171.05 84.75L185 86.125V58.05l-13.95-4.175V84.75zm-17-1.7l-21.225-2.125V42.4l21.225 6.375V83.05zm17 32.775l13.95-1.4V142.5l-13.95 4.175v-30.85zm-17 1.7l-21.225 2.125v38.5l21.225-6.35v-34.275z" fill="#989898"/></g></svg>