<svg width="200" height="200" xmlns="http://www.w3.org/2000/svg"><path d="M100.488 9C49.417 9 8 50.673 8 102.08c0 41.116 26.501 75.998 63.27 88.317 4.625.857 6.313-2.017 6.313-4.485 0-2.214-.08-8.066-.127-15.83-25.727 5.62-31.161-12.481-31.161-12.481-4.197-10.754-10.268-13.617-10.268-13.617-8.405-5.77.625-5.655.625-5.655 9.285.66 14.164 9.595 14.164 9.595 8.256 14.22 21.657 10.117 26.929 7.73.832-6.014 3.226-10.117 5.874-12.446-20.535-2.353-42.134-10.337-42.134-45.995 0-10.164 3.608-18.473 9.528-24.985-.96-2.353-4.128-11.82.901-24.626 0 0 7.77-2.503 25.438 9.537 7.377-2.063 15.285-3.094 23.16-3.129 7.85.047 15.77 1.066 23.16 3.14 17.655-12.04 25.414-9.537 25.414-9.537 5.04 12.817 1.873 22.274.925 24.626 5.931 6.513 9.504 14.822 9.504 24.985 0 35.751-21.622 43.62-42.226 45.926 3.318 2.874 6.278 8.552 6.278 17.232 0 12.446-.115 22.482-.115 25.53 0 2.491 1.665 5.389 6.359 4.473 36.71-12.33 63.189-47.2 63.189-88.305C193 50.673 151.583 9 100.488 9z" fill="#999"/></svg>