<svg width="200" height="200" xmlns="http://www.w3.org/2000/svg"><g  ><g fill="#DB380E"><path d="M98.984 37.631c-9.225 6.531-19.68 13.934-25.281 26.181-9.73 21.367 19.91 44.674 21.176 45.656.609.472 1.46.454 2.049-.042a1.655 1.655 0 0 0 .402-2.023c-.107-.208-10.747-21.012-10.351-35.936.14-5.198 7.366-11.095 15.016-17.338 7.007-5.719 14.95-12.2 19.597-19.781 10.201-16.689-1.137-33.099-1.253-33.263a1.631 1.631 0 0 0-1.993-.554 1.651 1.651 0 0 0-.941 1.853c.023.109 2.228 10.96-3.908 22.141-2.527 4.62-8.081 8.552-14.513 13.106z"/><path d="M137.848 44.99c.65-.494.841-1.393.448-2.11a1.632 1.632 0 0 0-2.013-.745c-1.567.6-38.374 14.882-38.374 32.14 0 11.896 5.048 18.18 8.734 22.77 1.445 1.8 2.693 3.354 3.105 4.681 1.158 3.825-1.586 10.737-2.74 13.078-.333.674-.17 1.49.396 1.981a1.628 1.628 0 0 0 2.005.105c.632-.443 15.466-11.001 12.806-23.722-.991-4.835-3.351-8.368-5.434-11.485-3.226-4.83-5.556-8.32-2.021-14.763 4.142-7.516 22.899-21.787 23.088-21.93z"/></g><g fill="#73A1FB"><path d="M42.186 116.772c-.632 1.886-.334 3.758.863 5.413 3.999 5.532 18.164 8.577 39.887 8.577h.003c2.944 0 6.051-.058 9.234-.171 34.732-1.239 47.615-12.019 48.146-12.477.577-.5.732-1.33.372-2.003a1.642 1.642 0 0 0-1.877-.808c-12.232 3.327-35.073 4.509-50.916 4.509-17.728 0-26.756-1.273-28.966-2.212 1.134-1.552 8.13-4.322 16.797-6.021a1.635 1.635 0 0 0 1.314-1.761 1.638 1.638 0 0 0-1.63-1.476c-5.081 0-30.563.406-33.227 8.43zm116.22-11.103c-7.163 0-13.956 3.577-14.242 3.729a1.633 1.633 0 0 0 .772 3.075c.152 0 15.281.123 16.652 8.735 1.213 7.43-14.315 19.467-20.4 23.479a1.631 1.631 0 1 0-.568 2.959 1.645 1.645 0 0 0 1.814.002c1.444-.308 35.33-7.748 31.747-27.404-2.185-12.046-9.785-14.575-15.774-14.575zm-23.238 36.613a1.632 1.632 0 0 0-.67-1.638l-8.126-5.67a1.65 1.65 0 0 0-1.362-.241c-.085.021-8.581 2.247-20.917 3.612-4.896.547-10.38.835-15.86.835-12.332 0-20.396-1.443-21.57-2.502-.156-.298-.107-.433-.08-.508.214-.591 1.358-1.293 2.095-1.571a1.632 1.632 0 0 0 1.006-2.01 1.64 1.64 0 0 0-1.96-1.111c-8.15 1.96-12.136 4.7-11.846 8.144.515 6.107 14.714 9.242 26.717 10.07a82.22 82.22 0 0 0 5.547.178h.003c19.96 0 45.548-6.24 45.803-6.303a1.632 1.632 0 0 0 1.22-1.285zm-61.255 13.106a1.63 1.63 0 0 0 .67-1.854 1.648 1.648 0 0 0-1.61-1.147c-1.092.028-10.688.46-11.36 6.546-.203 1.82.32 3.482 1.555 4.94 3.446 4.068 12.746 6.485 28.427 7.391a94.23 94.23 0 0 0 5.602.167c19.937 0 33.364-6.22 33.926-6.484a1.632 1.632 0 0 0 .154-2.872l-10.268-6.245a1.656 1.656 0 0 0-1.19-.206c-.064.014-6.584 1.361-16.423 2.692-1.862.252-4.193.38-6.929.38-9.829 0-20.76-1.6-22.857-2.647-.03-.196.008-.444.303-.66z"/><path d="M87.905 190.208c45.667-.039 70.176-8.13 74.898-13.221 1.671-1.801 1.852-3.506 1.71-4.62-.35-2.741-2.857-4.42-3.141-4.602-.686-.439-1.606-.324-2.14.29a1.61 1.61 0 0 0-.01 2.127c.287.369.454.987-.388 1.826-1.888 1.757-20.926 7.088-52.624 8.69-4.342.224-8.896.339-13.535.34-28.381 0-49.152-3.873-51.878-6.13 1.05-1.505 8.398-3.908 16.21-5.268a1.635 1.635 0 0 0 1.371-1.864 1.64 1.64 0 0 0-1.872-1.365c-.22.03-.968.074-1.834.127-12.892.784-27.79 2.532-28.566 9.15-.237 2.016.365 3.847 1.788 5.44 3.481 3.897 13.489 9.08 60.01 9.08h.001z"/><path d="M171.772 178.422a1.643 1.643 0 0 0-1.89.37c-.066.072-6.932 7.225-27.576 11.425-7.903 1.578-22.737 2.378-44.092 2.378-21.394 0-41.752-.839-41.955-.847a1.634 1.634 0 0 0-.449 3.222c.212.05 21.547 5.03 50.718 5.03 13.99 0 27.605-1.132 40.466-3.366 23.98-4.188 25.659-16.035 25.718-16.537a1.633 1.633 0 0 0-.94-1.675z"/></g></g></svg>