<svg width="200" height="200" xmlns="http://www.w3.org/2000/svg"><g fill="#999"><path d="M99.311 37.467C90.04 43.97 79.53 51.34 73.898 63.534c-9.78 21.274 20.014 44.48 21.287 45.457.612.47 1.468.452 2.06-.042.59-.494.759-1.33.403-2.014-.107-.207-10.802-20.92-10.405-35.78.14-5.175 7.405-11.046 15.095-17.262 7.043-5.694 15.027-12.146 19.699-19.695 10.255-16.616-1.143-32.954-1.26-33.118a1.649 1.649 0 0 0-2.002-.55 1.64 1.64 0 0 0-.947 1.844c.023.108 2.24 10.913-3.928 22.044-2.54 4.6-8.123 8.515-14.589 13.05z"/><path d="M138.378 44.794a1.637 1.637 0 0 0 .45-2.102 1.647 1.647 0 0 0-2.023-.741c-1.576.597-38.575 14.818-38.575 32 0 11.844 5.075 18.101 8.78 22.67 1.453 1.793 2.708 3.34 3.121 4.662 1.164 3.808-1.593 10.69-2.753 13.02a1.637 1.637 0 0 0 .397 1.973c.57.49 1.399.533 2.015.104.636-.44 15.548-10.953 12.873-23.618-.996-4.814-3.368-8.331-5.462-11.435-3.243-4.81-5.585-8.283-2.032-14.698 4.164-7.484 23.019-21.693 23.21-21.835z"/><path d="M42.166 116.973c-.632 1.882-.334 3.749.86 5.4 3.995 5.518 18.142 8.556 39.838 8.556h.003c2.94 0 6.043-.057 9.222-.17 34.688-1.236 47.554-11.99 48.085-12.447.577-.499.73-1.327.371-1.998a1.641 1.641 0 0 0-1.874-.806c-12.217 3.32-35.029 4.498-50.852 4.498-17.705 0-26.722-1.27-28.93-2.207 1.134-1.548 8.12-4.312 16.777-6.006a1.631 1.631 0 0 0 1.312-1.757 1.635 1.635 0 0 0-1.628-1.472c-5.075 0-30.524.405-33.184 8.41zm116.073-11.076c-7.155 0-13.94 3.569-14.225 3.72a1.628 1.628 0 0 0-.814 1.832 1.637 1.637 0 0 0 1.586 1.235c.151 0 15.261.123 16.63 8.714 1.212 7.412-14.297 19.42-20.375 23.423a1.627 1.627 0 1 0-.568 2.952 1.645 1.645 0 0 0 1.813.001c1.443-.307 35.286-7.729 31.707-27.337-2.183-12.017-9.772-14.54-15.754-14.54zm-23.21 36.524a1.628 1.628 0 0 0-.67-1.634l-8.114-5.656a1.65 1.65 0 0 0-1.36-.24c-.085.021-8.571 2.241-20.891 3.603-4.89.545-10.367.834-15.84.834-12.317 0-20.37-1.44-21.543-2.497-.155-.297-.106-.432-.079-.507.214-.59 1.356-1.29 2.092-1.567a1.628 1.628 0 0 0 1.004-2.006 1.639 1.639 0 0 0-1.957-1.108c-8.14 1.955-12.12 4.689-11.83 8.125.514 6.092 14.694 9.22 26.682 10.046a82.21 82.21 0 0 0 5.54.177h.004c19.934 0 45.49-6.224 45.744-6.288a1.629 1.629 0 0 0 1.219-1.282zm-61.177 13.075a1.624 1.624 0 0 0 .669-1.85 1.646 1.646 0 0 0-1.608-1.144c-1.09.029-10.674.459-11.345 6.53-.203 1.815.32 3.473 1.553 4.928 3.441 4.058 12.73 6.47 28.391 7.374a94.22 94.22 0 0 0 5.595.166c19.91 0 33.32-6.204 33.883-6.468a1.628 1.628 0 0 0 .154-2.865l-10.256-6.23a1.655 1.655 0 0 0-1.188-.205c-.064.013-6.576 1.357-16.402 2.685-1.86.251-4.188.38-6.92.38-9.816 0-20.735-1.597-22.829-2.642-.03-.195.008-.443.303-.659z"/><path d="M87.827 190.232c45.608-.039 70.087-8.11 74.802-13.19 1.67-1.796 1.85-3.497 1.708-4.609-.35-2.734-2.853-4.408-3.137-4.59-.685-.438-1.603-.323-2.137.29a1.605 1.605 0 0 0-.01 2.12c.287.369.453.985-.388 1.823-1.885 1.752-20.899 7.07-52.556 8.669-4.337.224-8.886.338-13.519.339-28.345 0-49.089-3.864-51.812-6.115 1.05-1.501 8.387-3.899 16.19-5.255a1.631 1.631 0 0 0 1.369-1.86 1.637 1.637 0 0 0-1.87-1.362c-.22.03-.966.074-1.831.127-12.876.782-27.754 2.526-28.53 9.128-.236 2.011.364 3.837 1.785 5.427 3.478 3.888 13.472 9.057 59.934 9.057h.002z"/><path d="M171.588 178.474a1.642 1.642 0 0 0-1.888.37c-.067.072-6.924 7.207-27.541 11.397-7.893 1.574-22.71 2.372-44.036 2.372-21.367 0-41.7-.837-41.902-.845a1.63 1.63 0 0 0-.448 3.214c.211.05 21.519 5.018 50.653 5.018 13.973 0 27.57-1.13 40.414-3.358 23.95-4.178 25.627-15.996 25.686-16.497a1.629 1.629 0 0 0-.938-1.671z"/></g></svg>