<?xml version="1.0" encoding="UTF-8"?>
<svg width="200px" height="200px" viewBox="0 0 200 200" version="1.1" xmlns="http://www.w3.org/2000/svg" xmlns:xlink="http://www.w3.org/1999/xlink">
    <!-- Generator: Sketch 48.2 (47327) - http://www.bohemiancoding.com/sketch -->
    <title>Java_Color</title>
    <desc>Created with Sketch.</desc>
    <defs></defs>
    <g id="Page-1" stroke="none" stroke-width="1" fill="none" fill-rule="evenodd">
        <g id="Java_Color" fill-rule="nonzero">
            <g transform="translate(33.000000, 10.000000)" id="Group">
                <g transform="translate(40.958084, 0.000000)" fill="#DB380E">
                    <path d="M24.7276535,33.8679663 C16.4254449,39.7460822 7.01606461,46.4084649 1.97430998,57.4309479 C-6.78269879,76.6613847 19.8932962,97.6376985 21.033455,98.5212353 C21.580686,98.9455712 22.3474261,98.9297019 22.8768695,98.4830817 C23.4063172,98.0367484 23.5567319,97.2800848 23.2386743,96.6630172 C23.1421696,96.4757823 13.5668013,77.7522929 13.9226403,64.3201322 C14.0486228,59.6417327 20.5523353,54.3345066 27.4375045,48.7156934 C33.7436457,43.5692067 40.8920095,37.7363099 45.0743462,30.9128344 C54.2559755,15.8930631 44.0510458,1.12411592 43.9468208,0.97644764 C43.5418018,0.403679349 42.7930695,0.195700075 42.1535886,0.478332165 C41.5144001,0.761857661 41.1606754,1.45810802 41.3064531,2.14578255 C41.3271578,2.24363928 43.3116446,12.0102353 37.7894722,22.0725212 C35.5147695,26.2305489 30.5161788,29.7696417 24.7276535,33.8679663 Z" id="Shape"></path>
                    <path d="M59.7055062,40.4911357 C60.2904987,40.0467805 60.4619805,39.2370572 60.1078811,38.5911533 C59.7537818,37.9452494 58.9818342,37.659678 58.2965381,37.9210718 C56.8861663,38.4608736 23.7597995,51.3154323 23.7597995,66.8470967 C23.7597995,77.5537532 28.3028882,83.2096601 31.6201922,87.3401326 C32.921426,88.9602443 34.0447403,90.3592069 34.4149673,91.5536243 C35.4572177,94.9955669 32.9881019,101.216711 31.9497117,103.323634 C31.6497748,103.929987 31.7962913,104.663885 32.305646,105.106501 C32.8150007,105.549117 33.5576041,105.587842 34.1096616,105.200575 C34.6792146,104.802083 48.0298454,95.2997352 45.635477,83.8512046 C44.7434229,79.499583 42.6192675,76.3201226 40.7449715,73.5144253 C37.8414093,69.1673963 35.7442752,66.0275025 38.9257708,60.2281665 C42.6533073,53.4636877 59.5346052,40.6197272 59.7055062,40.4911357 Z" id="Shape"></path>
                </g>
                <g transform="translate(0.000000, 94.850299)" fill="#73A1FB">
                    <path d="M14.5674403,10.2445953 C13.9983612,11.9423331 14.2670734,13.626405 15.3436811,15.1163495 C18.9428074,20.0946285 31.6915159,22.8355378 51.2427948,22.8355378 L51.2452569,22.8355378 C53.8943939,22.8355378 56.6912524,22.7836771 59.5559924,22.6813573 C90.8148957,21.5667022 102.408915,11.864542 102.887251,11.4521091 C103.406793,11.0024092 103.545473,10.2546865 103.221541,9.6497087 C102.89761,9.04473092 102.197033,8.74304851 101.532787,8.92249723 C90.5236735,11.9171036 69.9668339,12.9802484 55.7082017,12.9802484 C39.7532354,12.9802484 31.627855,11.8351076 29.6385402,10.9895675 C30.6592247,9.59318252 36.9549701,7.0996629 44.7564185,5.5708228 C45.501025,5.42387317 46.0123898,4.7382653 45.9387847,3.98557583 C45.8651795,3.23288635 45.2306013,2.65850818 44.4715273,2.65751164 C39.8984948,2.65751164 16.9647476,3.02333999 14.5674403,10.2445953 Z M119.166149,0.251594589 C112.718814,0.251594589 106.604906,3.47116434 106.347449,3.60747394 C105.75178,3.92629054 105.449523,4.6074227 105.613717,5.26093147 C105.777912,5.91444024 106.366612,6.3733802 107.042795,6.37501442 C107.179613,6.37501442 120.795657,6.48609448 122.028779,14.2368197 C123.121214,20.9233489 109.145714,31.7573342 103.668416,35.3679619 C103.087287,35.4908622 102.636734,35.9488577 102.525083,36.5301803 C102.413432,37.1115028 102.662442,37.7028621 103.156976,38.0308255 C103.65151,38.3587889 104.295192,38.3594415 104.790395,38.0324817 C106.090344,37.7553072 136.587778,31.0596673 133.363231,13.3692038 C131.396074,2.52750943 124.556574,0.251594589 119.166149,0.251594589 Z M98.2512613,33.2031271 C98.3571779,32.636305 98.1211219,32.0600695 97.6473621,31.728951 L90.3348011,26.6259259 C89.9780023,26.3778279 89.5297349,26.2986315 89.1090652,26.4093724 C89.0327425,26.4286449 81.3856981,28.4315902 70.2833798,29.6597782 C65.8770615,30.1521047 60.9417598,30.4121091 56.0099754,30.4121091 C44.9104708,30.4121091 37.6531295,29.1127878 36.5962181,28.1596718 C36.4562345,27.8919583 36.5005509,27.7703659 36.5255228,27.7027367 C36.7175607,27.1708139 37.7466864,26.5386738 38.4100258,26.2884808 C39.1461041,26.0205 39.5435854,25.2260682 39.3152911,24.4791592 C39.0869968,23.7322502 38.3125491,23.2933631 37.5514831,23.4795919 C30.2160605,25.2432069 26.6292442,27.7093945 26.8902187,30.8094744 C27.3537825,36.3060102 40.132387,39.1271635 50.9353936,39.8728365 C52.4889303,39.9786605 54.1690854,40.0322732 55.9280252,40.0322732 L55.930839,40.0322732 C73.8944645,40.0322732 96.9235273,34.4169483 97.1535506,34.3598314 C97.7159398,34.2228887 98.1455247,33.7702169 98.2512613,33.2031271 Z M43.1212833,44.9993391 C43.6749118,44.6402723 43.9212422,43.958151 43.7241273,43.3299845 C43.5282206,42.7016988 42.9383902,42.2889155 42.2757542,42.2976758 C41.2927034,42.3236061 32.6566291,42.7118607 32.0520265,48.1898248 C31.8691333,49.8269417 32.3397315,51.3228432 33.4515109,52.6351297 C36.5522534,56.2962165 44.9224292,58.4722644 59.0358021,59.2873187 C60.7054056,59.3871856 62.401388,59.4372943 64.0773224,59.4372943 C82.0201967,59.4372943 94.1045106,53.8401907 94.6106322,53.6019117 C95.1012615,53.3709691 95.4251579,52.8904643 95.4540982,52.3506179 C95.4830386,51.8107715 95.2123566,51.2986288 94.749209,51.016935 L85.5078286,45.396354 C85.1872548,45.2024134 84.8049179,45.1364447 84.4375518,45.2116877 C84.3791667,45.2239521 78.5114617,46.4363717 69.6562673,47.6340741 C67.9806845,47.8611399 65.8823372,47.9764249 63.4203139,47.9764249 C54.5746158,47.9764249 44.7356672,46.536589 42.8487022,45.593635 C42.8212682,45.417729 42.8560882,45.1941672 43.1212833,44.9993391 Z" id="Shape"></path>
                    <path d="M55.7148843,76.3368818 C96.8144948,76.3021912 118.873169,69.0203149 123.122621,64.4379996 C124.626917,62.8170016 124.789411,61.2822045 124.661737,60.2796806 C124.345895,57.8127922 122.09033,56.3025238 121.834631,56.1385318 C121.217718,55.743269 120.389775,55.8466401 119.908625,56.3995875 C119.428531,56.9525349 119.417276,57.7605811 119.899129,58.3131781 C120.158345,58.645367 120.308176,59.2014682 119.550225,59.9573032 C117.851429,61.538004 100.717505,66.3361721 72.1893375,67.77776 C68.2814031,67.9799468 64.182486,68.0829674 60.0072461,68.0836682 C34.4644576,68.0836682 15.771018,64.5977866 13.3170841,62.5668086 C14.2628528,61.2128232 20.875144,59.0497405 27.9070344,57.8261078 C28.712679,57.7019606 29.2647665,56.950643 29.1401562,56.1479929 C29.015546,55.3453428 28.2614253,54.7953074 27.4557806,54.9194544 C27.2574119,54.946436 26.5842244,54.9863828 25.8048182,55.0340386 C14.2023574,55.7397649 0.794530098,57.3127567 0.0949637567,63.2686804 C-0.117473684,65.0834553 0.423819729,66.7310845 1.70442357,68.1649634 C4.83787583,71.6725704 13.8443089,76.336181 55.7134775,76.336181 L55.7148843,76.3368818 Z" id="Shape"></path>
                    <path d="M131.195244,65.7292615 C130.615611,65.4615693 129.92888,65.5962546 129.494337,66.0628521 C129.434194,66.127678 123.254867,72.5650654 104.675735,76.3452916 C97.5629499,77.7651541 84.2117491,78.4852473 64.9928434,78.4852473 C45.7380624,78.4852473 27.4160366,77.7304635 27.2334951,77.7227545 C26.4681576,77.685611 25.8136111,78.2399601 25.7095027,78.9905389 C25.6052802,79.7407247 26.0899342,80.4471088 26.8293716,80.6227501 C27.0200025,80.6676026 46.2213224,85.1493502 72.4749322,85.1493502 C85.0667747,85.1493502 97.319913,84.1307075 108.894588,82.1200532 C130.476333,78.3506897 131.987312,67.6891062 132.041124,67.237077 C132.116338,66.6050693 131.774973,65.9965742 131.195244,65.7292615 Z" id="Shape"></path>
                </g>
            </g>
        </g>
    </g>
</svg>