<svg width="200" height="200" xmlns="http://www.w3.org/2000/svg"><g   fill-rule="evenodd"><path d="M170.175 96.269c0 39.544-31.34 71.6-70 71.6-38.659 0-70-32.056-70-71.6s31.341-71.6 70-71.6c38.66 0 70 32.056 70 71.6" fill="#666"/><path d="M33.028 114.003s-5.069-74.669 63.731-76.8l-4.8-8-37.331 12.531-10.668 12.27-9.332 17.865-5.334 20.8 1.6 13.865" fill="#737373"/><path d="M52.232 47.425C39.95 59.99 32.35 77.34 32.35 96.537c0 19.188 7.6 36.541 19.88 49.107 12.288 12.562 29.222 20.315 47.944 20.315 18.719 0 35.656-7.753 47.941-20.315C160.397 133.078 168 115.724 168 96.538c0-19.197-7.603-36.548-19.884-49.112-12.285-12.564-29.222-20.316-47.94-20.316-18.723 0-35.657 7.752-47.945 20.315h.001zm-3.11 101.256C36.069 135.335 28 116.885 28 96.538c0-20.352 8.069-38.8 21.122-52.15 13.05-13.354 31.112-21.628 51.054-21.625 19.938-.004 38.003 8.271 51.05 21.624 13.053 13.35 21.124 31.797 21.122 52.15.003 20.347-8.069 38.797-21.122 52.145-13.047 13.352-31.112 21.628-51.05 21.628-19.94 0-38.003-8.276-51.054-21.628v-.001z" fill="#212121"/><path fill="#DBDBDB" d="M129.64 96.666l-10.665 1.6-14.4 1.6-9.334.265-9.066-.265-6.934-2.135-6.135-6.665-4.8-13.6-1.065-2.935-6.4-2.131-3.735-6.134-2.665-8.8 2.934-7.735 6.931-2.4 5.6 2.669 2.67 5.866 3.2-.535L76.84 54l-1.066-6.134-.268-7.735 1.6-10.665-.063-6.094 4.863-7.772 8.534-6.134 14.934-6.4 16.532 2.4 14.4 10.4 6.668 10.665 4.266 7.735 1.066 19.2-3.2 16.534-5.866 14.666-5.6 7.734"/><path fill="#4A4A4A" d="M120.575 142.797l-38.134 1.6v6.4l3.2 22.4-1.6 1.869-26.666-9.07-1.869-3.2-2.665-30.13-6.135-18.135-1.33-4.265L66.705 95.6l6.67-2.669 5.865 7.2 5.065 4.535 5.87 1.865 2.665.8 3.2 13.866 2.4 2.934 6.134-2.134-4.269 8.269 23.2 10.93-2.93 1.6"/><path fill="#6B6B6B" d="M57.375 49.731l6.931-2.4 5.6 2.669 2.67 5.866 3.2-.535.8-3.2-1.6-6.131 1.6-14.669-1.335-8 4.8-5.6 10.4-8.265-2.935-4-14.665 7.2-6.135 4.8-3.465 7.465-5.335 7.2-1.6 8.535 1.07 9.065"/><path d="M68.306 24.666s4-9.866 20-14.666c16-4.8.8-3.469.8-3.469L71.776 13.2l-6.67 6.666-2.93 5.334 6.13-.534m-8 23.2s-5.6-18.67 15.735-21.335l-.8-3.2L60.575 26.8l-4.269 13.866 1.07 9.065 2.93-1.865" fill="#D9D9D9"/><path d="M68.84 72.666l3.491-3.384s1.575.184 1.844 2.05C74.441 73.2 75.241 90 86.706 99.065c1.047.828-8.53-1.335-8.53-1.335L69.64 84.4m48.27-16.8s.618-8.084 2.796-7.462c2.178.621 2.178 2.8 2.178 2.8s-5.287 3.418-4.974 4.662M140.04 38s-4.396.928-4.8 4.8c-.406 3.872 4.8.8 5.6.531m-33.065-5.065s-5.869.8-5.869 4.534c0 3.731 6.67 3.466 8.535 1.866M71.506 55.6s-10.134-6.134-11.2-.269c-1.065 5.869-3.468 10.135 1.6 16.269l-3.465-1.069-3.2-8.265-1.066-8 6.131-6.4 6.935.534 4 3.2.265 4m4.8-16.8s4.535-23.469 27.47-28c18.877-3.731 28.796.8 32.53 5.066 0 0-16.8-20-32.8-13.866-16 6.131-27.73 17.331-27.465 24.531.453 12.263.265 12.269.265 12.269m61.87-20.269s-7.735-.265-8 6.669c0 0-.004 1.066.53 2.131 0 0 6.135-6.934 9.87-3.2" fill="#E8E8E8"/><path d="M104.312 28.053s-1.334-10.64-10.406-4.453c-5.865 4-5.33 9.6-4.265 10.666 1.065 1.065.775 3.216 1.587 1.74.813-1.475.544-6.275 3.478-7.606 2.935-1.334 7.741-2.825 9.607-.347" fill="#E8E8E8"/><path d="M79.24 100.131l-25.065 11.2s10.4 41.335 5.066 54.135l-3.735-1.335-.265-15.731-6.935-29.869-2.93-8.265 26.13-17.6 7.735 7.465m2.577 22.863l3.557 4.337v16h-4.269s-.53-11.2-.53-12.531c0-1.334.53-6.134.53-6.134m.8 21.065l-12 .535 3.47 2.4 8.53 1.334" fill="#696969"/><path fill="#4A4A4A" d="M122.975 143.066l9.866-.266 2.4 24.531-10.135 1.335-2.13-25.6"/><path d="M125.64 143.066l14.935-.8s6.131-15.466 6.131-16.266c0-.8 5.335-22.4 5.335-22.4l-12-12.534-2.4-2.135-6.4 6.4v24.8l-5.6 22.935" fill="#4A4A4A"/><path d="M132.306 141.2l-9.33 1.866 1.33 7.465c3.466 1.6 9.335-2.665 9.335-2.665m-1.066-53.335L151.24 108.4l.534-6.4-14.134-13.069-5.066 5.6" fill="#696969"/><path fill="#FFF" d="M91.16 195.6l-5.52-22.403-2.746-16.528-.453-12.272 24.987-1.328 15.547-.003-1.416 28.003 2.4 21.6-.265 4-20.266 1.6L91.16 195.6"/><path d="M119.506 142.8s-1.33 27.731 2.67 47.466c0 0-8 5.068-19.735 6.4l22.4-.8 2.665-1.6-3.2-43.735-.8-9.334" fill="#D9D9D9"/><path fill="#FFF" d="M135.694 165.203l10.4-2.934 19.734-1.066 2.931-9.069-5.331-15.73-6.134-.8-8.535 2.665-8.184 3.997-4.347-.797-3.387 1.331"/><path d="M135.506 159.866s6.935-3.2 8-2.935l-2.93-14.665 3.465-1.335s2.4 13.869 2.4 15.469c0 0 14.931.8 16.265.8 0 0 3.2-6.134 2.4-12.534l2.935 8.534.265 4.8-4.265 6.4-4.8 1.066-8-.266-2.666-3.469-9.334 1.335-2.935 1.065" fill="#D9D9D9"/><path d="M125.028 140.934l-5.869-14.93-6.131-8.8s1.331-3.735 3.2-3.735h6.131l5.869 2.134-.534 9.866-2.666 15.465" fill="#FFF"/><path d="M126.175 135.866s-7.469-14.4-7.469-16.535c0 0 1.335-3.2 3.2-2.4 1.87.8 5.87 2.935 5.87 2.935V114.8l-9.07-1.869-6.13.8 10.4 24.535 2.13.265" fill="#D9D9D9"/><path fill="#FFF" d="M93.562 100.669l-7.387-.803-6.934-2.135v2.4l3.387 3.738 10.666 4.8"/><path d="M81.64 101.469s8.27 3.465 10.935 2.665l.266 3.197-7.466-1.597-4.534-3.2.8-1.065" fill="#D9D9D9"/><path d="M135.666 114.375c-4.525-.131-8.613-.669-12.19-1.678.24-1.469-.214-2.91.152-3.966.997-.718 2.669-.706 4.178-.875-1.306-.64-3.137-.894-4.644-.525-.034-1.018-.49-1.65-.768-2.447 2.547-.906 8.55-6.86 11.928-4.887 1.61.937 2.294 6.29 2.419 8.897.106 2.16-.194 4.337-1.075 5.481" fill="#666"/><path d="M135.666 114.375c-4.525-.131-8.613-.669-12.19-1.678.24-1.469-.214-2.91.152-3.966.997-.718 2.669-.706 4.178-.875-1.306-.64-3.137-.894-4.644-.525-.034-1.018-.49-1.65-.768-2.447 2.547-.906 8.55-6.86 11.928-4.887 1.61.937 2.294 6.29 2.419 8.897.106 2.16-.194 4.337-1.075 5.481z" stroke="#666" stroke-width="2"/><path d="M114.028 106.978a116.2 116.2 0 0 1-.04 1.035c-1.413.928-3.694.915-5.244 1.696 2.284.1 4.084.65 5.64 1.425l-.1 2.588c-2.59 1.772-4.956 4.412-8.002 6.075-1.444.787-6.504 2.81-8.035 2.453-.869-.203-.947-1.278-1.294-2.294-.737-2.174-2.44-5.634-2.587-8.906-.19-4.134-.607-11.06 3.847-10.21 3.593.689 7.771 2.342 10.553 3.863 1.7.928 2.684 2.079 5.262 2.275" fill="#666"/><path d="M114.028 106.978a116.2 116.2 0 0 1-.04 1.035c-1.413.928-3.694.915-5.244 1.696 2.284.1 4.084.65 5.64 1.425l-.1 2.588c-2.59 1.772-4.956 4.412-8.002 6.075-1.444.787-6.504 2.81-8.035 2.453-.869-.203-.947-1.278-1.294-2.294-.737-2.174-2.44-5.634-2.587-8.906-.19-4.134-.607-11.06 3.847-10.21 3.593.689 7.771 2.342 10.553 3.863 1.7.928 2.684 2.079 5.262 2.275z" stroke="#666" stroke-width="2"/><path d="M116.6 111.91c-.394-2.25-.853-2.894-.675-4.856 6.003-4.004 7.131 6.874.675 4.856" fill="#666"/><path d="M116.6 111.91c-.394-2.25-.853-2.894-.675-4.856 6.003-4.004 7.131 6.874.675 4.856z" stroke="#666" stroke-width="2"/><path d="M125.294 113.734s-1.87-2.665-.535-3.465c1.335-.8 2.669 0 3.469-1.335.8-1.33 0-2.13.266-3.73.265-1.6 1.6-1.87 2.934-2.135 1.331-.266 5.066-.8 5.6.534l-1.6-4.8-3.2-1.069-10.134 5.87-.535 2.93v5.87m-24.265 10.13c-.319-4.16-.66-8.316-1.038-12.475-.562-6.206 1.491-5.125 6.872-5.125.825 0 5.062.982 5.366 1.6 1.453 2.972-2.432 2.312 1.675 4.55 3.469 1.891 9.59-1.146 8.19-5.35-.784-.934-4.084-.29-5.269-.903-2.08-1.08-4.165-2.16-6.25-3.24-2.65-1.376-8.774-3.381-11.6-1.46-7.162 4.872.45 17.038 3.007 22.119" fill="#737373"/><path d="M104.312 28.053c-7.268-1.69-10.88 3.044-13.084 7.953-1.966-.478-1.184-3.153-.688-4.516 1.3-3.577 6.544-8.34 10.829-7.693 1.844.278 4.337 1.962 2.944 4.256m35.412 8.278c.112.007.228.01.344.013 1.644 3.412 3.062 7.028 5.137 10.04-1.39 3.232-10.512 6.094-10.372.288 1.976-.862 5.379-.175 7.128-1.278-1.012-2.776-2.472-5.138-2.237-9.063m-31.693.087c1.558 2.86 2.065 5.86 4.28 8.02.998.972 2.938 2.156 1.976 4.859-.226.637-1.866 2.059-2.813 2.34-3.465 1.022-11.534.21-8.8-4.109 2.863.134 6.712 1.862 8.853-.218-1.644-2.628-4.575-7.826-3.496-10.892m30.393 29.038c-5.216 3.35-11.031 6.991-19.575 6.147-1.824-1.587-2.522-5.119-.747-7.453.922 1.588.344 4.506 2.915 4.947 4.85.828 10.492-2.966 13.979-4.294 2.162-3.644-.187-4.984-2.135-7.331-3.987-4.81-9.337-10.766-9.144-17.962 1.613-1.17 1.754 1.784 1.984 2.321 2.082 4.872 7.323 11.107 11.148 15.279.937 1.024 2.484 2.012 2.656 2.69.497 1.975-1.29 4.34-1.08 5.656m-68.744-3.528c-1.635-.931-2.023-5.04-3.944-5.156-2.741-.169-2.24 5.328-2.228 8.544-1.888-1.713-2.223-6.991-.835-9.7-1.581-.776-2.288.856-3.162 1.431 1.125-8.184 11.971-3.797 10.168 4.881m72.063 6.934c-2.428 4.622-5.86 9.71-12.984 9.856-.144-1.49-.254-3.762.008-4.659 5.445-.525 8.807-3.296 12.976-5.197m-34.122 2.997c4.54 2.388 12.89 2.644 19.065 2.463.331 1.353.323 3.025.335 4.675-7.935.397-17.319-1.568-19.4-7.138m-.862 4.453c3.14 7.888 13.937 6.978 23.04 6.763-.4 1.022-1.269 2.235-2.35 2.672-2.916 1.184-10.963 2.087-15.012-.065-2.57-1.366-4.222-4.45-5.628-6.26-.682-.872-4.066-3.104-.05-3.11" fill="#212121"/><path d="M138.044 119.818c-3.685 6.313-7.213 12.8-11.588 18.37 1.834-5.394 2.62-14.417 2.897-21.294 3.834-1.797 7.122.403 8.691 2.924" fill="#A3A3A3"/><path d="M157.882 142.512c-4.128.826-7.03 4.838-11.054 4.578 2.213-3.118 6.09-4.434 11.054-4.577m1.821 6.459c-3.365.353-7.316.9-10.728.618 1.616-2.468 7.838-1.616 10.728-.618m1.166 5.566c-3.782.084-8.482.01-12.075-.294 2.124-2.282 9.622-.847 12.075.294" fill="#212121"/><path d="M130.931 169.778c.544 4.747 2.425 9.56 2.187 14.76-2.09.706-3.29 1.321-6.09 1.318-.197-4.422-.787-11.174-.612-15.387 1.378.09 3.409-.984 4.515-.69" fill="#D9D9D9"/><path d="M124.838 99.8c-1.9 1.24-3.516 2.787-5.341 4.11-4.044.2-6.25-.279-9.219-2.6.047-.188.347-.104.36-.332 4.324 1.928 9.828-.788 14.2-1.178" fill="#DBDBDB"/><path d="M102.116 129.303c1.19-5.153 5.85-7.821 10.078-10.659 4.368 5.544 7.024 12.672 9.95 19.55-6.912-2.084-13.972-5.466-20.028-8.89" fill="#A3A3A3"/><path d="M126.416 170.469c-.176 4.213.416 10.965.612 15.387 2.8.003 4-.612 6.09-1.318.238-5.2-1.643-10.013-2.187-14.76-1.106-.294-3.137.781-4.515.69zm-43.61-23.96c1.847 16.978 4.519 31.25 9.425 46.285 10.89 3.306 24.019 3.593 33.644.612-1.769-8.488-.997-18.819-2.028-27.875-.778-6.806-.384-13.653-1.45-20.597-11.663-2.424-28.147-.565-39.59 1.576v-.001zm42.347-1.468c-.096 7.29.328 14.484.885 21.784 2.8-.419 4.7-.7 7.303-1.269-.847-7.031-.744-14.938-2.463-21.156-1.99.018-3.74-.022-5.725.64zm14.206-1.175c-1.331-.304-2.877-.013-4.146.012.597 5.944 2.043 12.504 2.556 18.744 1.997.062 3.062-.881 4.706-1.197.088-5.478-.478-13.022-3.116-17.56zm21.507 19.65c4.162-1.01 6.781-6.11 5.618-11.347-.78-3.522-2.174-10.15-3.666-12.4-1.1-1.666-4.084-3.847-6.468-2.322-3.875 2.481-10.706 3.203-13.532 6.209 1.416 4.72 1.856 11.203 2.441 17.182 4.844.303 10.803-1.332 14.832.403-2.813.912-6.463.918-8.891 2.246 1.984.96 6.634.766 9.666.029zm-38.722-25.322c-2.926-6.878-5.582-14.007-9.95-19.55-4.228 2.838-8.888 5.506-10.078 10.66 6.056 3.424 13.115 6.806 20.028 8.89zm7.209-21.3c-.278 6.878-1.063 15.9-2.896 21.293 4.374-5.568 7.902-12.056 11.587-18.368-1.569-2.522-4.856-4.722-8.691-2.925zm-8.171-2.907c-1.66-.177-3.066 1.907-5.22 1.007-.493.544-.944 1.134-1.446 1.668 4.76 5.735 6.922 13.87 10.597 20.61 1.971-6.475 1.744-13.566 2.177-20.632-2.708.173-4.212-2.45-6.108-2.653zm-5.256-6.934c-.179 1.963.28 2.606.674 4.856 6.456 2.019 5.328-8.859-.675-4.856zm-7.16-2.35c-2.782-1.521-6.96-3.175-10.553-3.862-4.454-.85-4.038 6.075-3.847 10.209.147 3.272 1.85 6.732 2.587 8.906.347 1.016.425 2.091 1.294 2.294 1.531.356 6.59-1.666 8.035-2.453 3.046-1.663 5.412-4.303 8.002-6.075l.1-2.588c-1.556-.775-3.356-1.324-5.64-1.424 1.55-.782 3.831-.77 5.243-1.697.016-.347.029-.691.041-1.035-2.578-.196-3.562-1.347-5.262-2.275zm-26.572-4.828c-2.31 2.344 6.478 5.541 9.275 5.712-.016-1.484.844-2.88.669-3.946-3.32-.582-7.685-.197-9.944-1.766zm28.444 1.103c-.013.228-.312.144-.36.332 2.97 2.321 5.176 2.8 9.219 2.6 1.825-1.323 3.44-2.87 5.34-4.11-4.371.39-9.875 3.106-14.2 1.178zm26.103 7.916c-.125-2.607-.81-7.96-2.42-8.896-3.377-1.973-9.38 3.98-11.927 4.886.278.798.734 1.429.768 2.448 1.507-.37 3.338-.116 4.644.524-1.51.169-3.181.157-4.178.875-.366 1.056.088 2.497-.153 3.966 3.578 1.01 7.666 1.547 12.19 1.678.882-1.144 1.182-3.322 1.076-5.481zm-58.432-6.75c-.728-.52-5.63-6.9-6.303-6.634-8.875 3.5-17.175 9.552-24.588 15.274 7.07 15.172 9.923 33.76 10.43 51.675 8.095 3.788 15.211 9.25 26.202 9.82-1.272-8.997-2.432-17.026-3.156-25.497-2.76-1.166-6.722.05-9.307-.364-.021-3.112 3.947-1.362 4.279-3.456.25-1.584-2.184-1.706-1.39-4.2 2.018.735 3.08 2.356 5.234 2.966 1.968-4.306-.028-11.928.256-15.528.052-.675.337-3.744 1.852-3.206 1.338.478-.077 8.162.07 11.568.134 3.141-.378 6.176.89 8.148a303.077 303.077 0 0 1 32.906-2.694c-2.528-1.088-5.531-2.113-8.824-3.969-1.785-1.006-7.413-3.1-7.928-4.794-.82-2.703 2.155-4.14 2.665-6.46-5.36 2.925-6.407-2.8-7.672-6.855-1.15-3.676-1.803-6.422-2.088-8.541-4.615-2.2-9.555-4.431-13.528-7.253zm53.741-5.862c7.397-3.584 8.728 13.4 5.832 18.872.446 1.633 1.987 2.259 2.616 3.724-4.126 7.394-8.71 14.294-12.92 21.597 3.132-1.95 7.606-.35 11.29-1.806 1.348-.535 2.322-3.62 3.345-6.085 2.803-6.79 5.75-15.346 7.059-21.824.296-1.476 1.103-4.691.922-6.007-.322-2.35-3.512-4.094-5.138-5.55-2.987-2.685-4.872-5.05-7.99-7.562-1.266 1.869-3.982 3.121-5.016 4.64zM61.397 30.706c-3.522 3.878-2.784 11.141-2.36 16.31 6.37-4.006 14.822.315 14.741 7.131 3.044-.081 1.138-3.797.588-6.191-1.797-7.822 3.028-16.318.218-23.472-5.456.416-9.937 2.644-13.187 6.222zm25.213-22.5c-7.979 2.263-18.2 8.056-21.479 15.222 2.538-.368 4.3-1.646 6.803-1.806.948-.063 2.188.396 3.276.125 2.165-.537 3.993-5.397 5.628-7.203 1.593-1.766 3.51-2.522 4.821-4.131.844-.407 2.088-.379 2.135-1.641-.366-.39-.75-.69-1.184-.566zm41.521 2.125c-8.281-4.669-22.293-8.184-31.099-3.793-7.106 3.544-16.712 9.406-19.987 16.834 3.059 7.168-.907 13.738-1.16 21.016-.134 3.874 1.825 7.256 1.976 11.472-1.048 1.724-4.248 1.937-6.463 1.822-.744-3.732-2.05-7.923-5.888-8.344-5.434-.594-9.41 3.903-9.656 8.603-.29 5.528 4.244 14.688 10.675 14.053 2.488-.247 3.097-2.738 5.803-2.712 1.466 2.928-2.262 3.846-2.647 5.94-.1.54.31 2.656.547 3.647 1.169 4.825 3.772 11.072 6.338 14.747 3.252 4.66 9.644 5.362 16.518 5.818 1.229-2.644 5.754-2.428 8.7-1.734-3.531-1.4-6.816-4.79-9.54-7.794-3.126-3.447-6.291-7.14-6.454-11.644 5.91 8.197 10.79 15.356 21.535 18.963 8.128 2.725 17.625-1.25 23.869-5.638 2.593-1.821 4.14-4.715 5.984-7.362 6.894-9.915 10.11-24.072 9.403-37.787-.294-5.66-.278-11.297-2.178-15.104-1.984-3.981-8.693-7.54-12.622-3.94-.728-3.872 3.266-6.266 7.96-4.872-3.347-4.319-6.86-9.506-11.613-12.19zm15.425 127.656c6.469-3.216 18.557-8.659 22.613.01 1.497 3.197 3.253 8.597 4.028 11.897 1.093 4.653-1.187 14.434-5.972 15.996-4.222 1.379-9.153 1.294-14.24.272-.6-.496-1.269-1.368-1.735-2.272-3.634-.14-7.034.194-9.906 1.688.272 2.688-1.547 3.119-3.25 3.672-1.263 5.01 2.528 11.55 1.622 16.119-.648 3.253-4.654 3.756-7.594 4.362-.096 1.81.128 3.32.328 4.85-.672 2.478-3.69 3.888-6.547 4.235-9.41 1.131-23.69 1.64-32.74-1.616-2.525-6.19-4.516-13.725-6.619-20.797-8.822.944-15.962-3.81-22.691-6.919-2.328-1.08-5.55-1.674-6.422-3.531-.844-1.794-.5-5.235-.706-8.484-.535-8.303-.99-16.31-3.184-24.81-.982-3.816-2.7-7.18-3.897-10.856-1.106-3.406-3.038-7.616-3.54-11.013-.748-5.034 3.99-5.315 7.02-7.496 4.689-3.372 8.366-5.238 13.442-8.284 1.503-.9 6.037-3.184 6.552-4.235 1.023-2.085-1.759-5.022-2.505-6.656-1.179-2.581-1.791-4.778-1.96-7.325-4.256-.676-7.484-3.207-9.435-6.066-3.224-4.725-5.459-13.475-2.672-20.128.223-.522 1.313-1.553 1.472-2.36.32-1.584-.596-3.69-.652-5.378-.294-8.646 1.462-16.096 7.284-18.706 2.363-9.416 10.822-12.544 18.79-17.224 2.982-1.748 6.266-2.866 9.657-4.114 12.165-4.477 30.834-3.634 40.931 4 4.282 3.241 11.125 10.079 13.575 15.03 6.466 13.068 6.007 34.911 1.481 50.808-.606 2.134-1.487 5.272-2.718 7.838-.86 1.79-3.528 5.372-3.204 6.953.335 1.635 6.085 6 7.316 7.187 2.219 2.144 6.438 4.984 6.778 7.688.369 2.875-1.266 6.81-2.094 9.584-2.768 9.263-5.468 17.822-8.606 26.081z" fill="#212121"/><path d="M100.394 73.875c.35-.465 2.281-1.175 4.981.125 0 0-3.2.531-2.934 5.869l-1.335-.269s-1.378-4.838-.712-5.725" fill="#E8E8E8"/><path d="M123.775 119.731a1.467 1.467 0 0 1-2.934 0 1.468 1.468 0 0 1 2.934 0m1.465 6.8a1.467 1.467 0 1 1-2.934.003 1.467 1.467 0 0 1 2.935-.003" fill="#1A1A1A"/></g></svg>