<svg width="200" height="200" xmlns="http://www.w3.org/2000/svg"><g   fill-rule="evenodd"><path d="M170.697 96.63c0 39.714-31.44 71.91-70.225 71.91-38.784 0-70.225-32.196-70.225-71.91 0-39.716 31.442-71.91 70.225-71.91 38.784 0 70.225 32.194 70.225 71.91" fill="#D33833"/><path d="M32.854 114.607S27.79 39.418 96.539 37.269l-4.796-8.056-37.305 12.622L43.78 54.187 34.453 72.18l-5.33 20.945 1.6 13.963" fill="#EF3D3A"/><path d="M52.33 47.263C39.998 59.895 32.367 77.336 32.367 96.631c0 19.29 7.631 36.732 19.963 49.362 12.34 12.629 29.343 20.423 48.142 20.423 18.799 0 35.804-7.794 48.141-20.423 12.331-12.63 19.965-30.073 19.965-49.363 0-19.294-7.634-36.734-19.965-49.367-12.337-12.626-29.343-20.42-48.141-20.42-18.799 0-35.803 7.794-48.14 20.42h-.002zm-3.12 101.785C36.101 135.63 28 117.086 28 96.63c0-20.46 8.102-39.002 21.21-52.421 13.103-13.422 31.24-21.74 51.262-21.738 20.02-.003 38.16 8.316 51.262 21.738 13.107 13.42 21.211 31.963 21.21 52.42.001 20.456-8.103 39-21.21 52.418-13.1 13.42-31.241 21.739-51.262 21.739s-38.16-8.319-51.263-21.739z" fill="#231F20"/><path fill="#F0D6B7" d="M130.58 97.633l-10.726 1.611-14.479 1.611-9.385.269-9.116-.269-6.972-2.148-6.166-6.714-4.827-13.696-1.072-2.954-6.436-2.148-3.753-6.177-2.682-8.862 2.95-7.789 6.971-2.417 5.631 2.687 2.682 5.907 3.217-.537 1.072-1.342-1.072-6.177-.268-7.789 1.609-10.741-.063-6.136 4.889-7.829 8.58-6.177 15.016-6.445 16.623 2.417 14.48 10.473 6.703 10.742 4.29 7.788 1.072 19.336-3.217 16.651-5.9 14.77-5.63 7.788"/><path fill="#335061" d="M120.553 143.058l-38.387 1.598v6.39l3.221 22.37-1.61 1.865-26.843-9.055-1.88-3.196-2.684-30.092-6.173-18.109-1.343-4.26 21.475-14.647 6.71-2.664 5.906 7.19 5.1 4.528 5.906 1.864 2.684.799 3.221 13.848 2.416 2.93 6.175-2.131-4.295 8.256 23.354 10.918-2.953 1.598"/><path fill="#6D6B6D" d="M57.144 50.026l6.846-2.407 5.53 2.676 2.634 5.885 3.16-.536.79-3.21-1.58-6.152 1.58-14.715-1.317-8.025 4.74-5.618 10.27-8.293-2.896-4.013-14.484 7.223-6.057 4.816-3.423 7.49-5.267 7.223-1.58 8.561 1.054 9.095"/><path d="M68.09 25.235s4-9.968 20-14.818c16.001-4.85.8-3.504.8-3.504L71.558 13.65l-6.667 6.735-2.933 5.39 6.133-.54m-8 23.441s-5.6-18.861 15.734-21.555l-.8-3.233-14.667 3.503-4.267 14.01 1.067 9.16 2.932-1.885" fill="#DCD9D8"/><path d="M68.45 73.292l3.484-3.398s1.573.184 1.838 2.058c.266 1.876 1.064 18.751 12.507 27.858 1.044.832-8.515-1.34-8.515-1.34l-8.516-13.392m48.169-16.875s.62-8.119 2.793-7.495c2.172.625 2.172 2.812 2.172 2.812s-5.276 3.434-4.965 4.683M140.675 38.202s-4.44.938-4.848 4.853c-.41 3.915 4.848.809 5.656.54m-33.4-5.123s-5.926.809-5.926 4.583 6.734 3.505 8.62 1.887M71.199 55.906s-10.147-6.135-11.216-.266c-1.067 5.868-3.471 10.135 1.603 16.27l-3.471-1.066-3.205-8.27-1.067-8.001 6.14-6.403 6.944.534 4.005 3.201.267 4.001m4.806-16.804s4.54-23.472 27.505-28.007c18.907-3.733 28.838.8 32.577 5.067 0 0-16.823-20.004-32.844-13.87-16.022 6.136-27.771 17.339-27.504 24.54.455 12.265.266 12.27.266 12.27m61.951-20.273s-7.743-.266-8.01 6.67c0 0-.001 1.066.533 2.133 0 0 6.143-6.935 9.88-3.201" fill="#F7E4CD"/><path d="M104.404 27.636S103.04 17.16 93.737 23.25c-6.014 3.937-5.467 9.449-4.373 10.498 1.093 1.05.795 3.165 1.628 1.713.832-1.451.558-6.175 3.565-7.487 3.008-1.312 7.938-2.779 9.847-.34" fill="#F7E4CD"/><path d="M79.1 100.748l-25.347 11.236s10.517 41.467 5.123 54.308l-3.776-1.337-.269-15.784-7.01-29.962-2.967-8.295L71.28 93.258l7.82 7.49m2.608 22.936l3.595 4.353v16.051H80.99s-.54-11.236-.54-12.574c0-1.338.54-6.153.54-6.153m.808 21.135l-12.135.534 3.507 2.408 8.628 1.338" fill="#49728B"/><path fill="#335061" d="M123.506 142.963l9.941-.266 2.418 24.51-10.21 1.332-2.15-25.576m2.248-.266l15.253-.797s6.265-15.41 6.265-16.207c0-.797 5.448-22.317 5.448-22.317L140.462 90.89l-2.452-2.126-6.537 6.376v24.708l-5.72 22.849"/><path d="M132.973 140.894l-9.467 1.862 1.352 7.448c3.516 1.596 9.468-2.66 9.468-2.66m-1.083-53.195l18.935 13.83.541-6.383-14.336-13.032-5.14 5.585" fill="#49728B"/><path fill="#FFF" d="M91.788 196.217l-5.528-22.344-2.749-16.486-.455-12.238 25.02-1.326 15.565-.003-1.415 27.929 2.403 21.542-.267 3.99-20.291 1.595-12.283-2.66"/><path d="M118.987 143.162s-1.314 27.528 2.63 47.115c0 0-7.889 5.03-19.46 6.352l22.09-.794 2.63-1.588-3.156-43.409-.79-9.265" fill="#DCD9D8"/><path fill="#FFF" d="M136.475 165.169l10.41-2.895 19.752-1.053 2.936-8.948-5.339-15.528-6.138-.79-8.542 2.632-8.195 3.945-4.35-.787-3.391 1.314"/><path d="M135.865 160.65s6.887-3.224 7.948-2.955l-2.914-14.779 3.444-1.343s2.384 13.971 2.384 15.584c0 0 14.834.806 16.16.806 0 0 3.178-6.18 2.383-12.629l2.914 8.598.265 4.837-4.238 6.448-4.769 1.075-7.947-.269-2.649-3.492-9.272 1.343-2.914 1.075" fill="#DCD9D8"/><path d="M125.812 140.45l-6.071-14.662-6.348-8.64s1.38-3.665 3.312-3.665h6.348l6.07 2.094-.55 9.687-2.761 15.185" fill="#FFF"/><path d="M126.344 136.633s-7.727-14.535-7.727-16.688c0 0 1.379-3.23 3.311-2.423 1.932.808 6.072 2.96 6.072 2.96v-5.114l-9.383-1.885-6.347.808 10.763 24.765 2.207.27" fill="#DCD9D8"/><path fill="#FFF" d="M94.292 100.77l-7.535-.825-7.072-2.192v2.466l3.455 3.838 10.88 4.932"/><path d="M81.633 101.124s8.516 3.321 11.262 2.555l.274 3.063-7.69-1.53-4.67-3.066.824-1.022" fill="#DCD9D8"/><path d="M135.874 114.607c-4.6-.132-8.757-.663-12.396-1.66.247-1.451-.215-2.875.156-3.92 1.015-.71 2.715-.698 4.248-.865-1.326-.633-3.189-.885-4.718-.518-.036-1.007-.5-1.63-.782-2.418 2.587-.898 8.692-6.781 12.128-4.833 1.636.927 2.332 6.22 2.459 8.794.105 2.135-.2 4.289-1.094 5.42" fill="#D33833"/><path d="M135.874 114.607c-4.6-.132-8.757-.663-12.396-1.66.247-1.451-.215-2.875.156-3.92 1.015-.71 2.715-.698 4.248-.865-1.326-.633-3.189-.885-4.718-.518-.036-1.007-.5-1.63-.782-2.418 2.587-.898 8.692-6.781 12.128-4.833 1.636.927 2.332 6.22 2.459 8.794.105 2.135-.2 4.289-1.094 5.42z" stroke="#D33833" stroke-width="2.5"/><path d="M114.158 107.283c-.012.34-.027.682-.04 1.025-1.42.92-3.712.909-5.27 1.683 2.297.099 4.105.645 5.669 1.415l-.101 2.566c-2.602 1.758-4.98 4.377-8.044 6.027-1.448.78-6.532 2.787-8.074 2.431-.872-.2-.95-1.268-1.299-2.275-.743-2.156-2.452-5.588-2.601-8.834-.19-4.1-.61-10.97 3.866-10.126 3.61.68 7.81 2.322 10.606 3.83 1.708.922 2.696 2.061 5.288 2.258" fill="#D33833"/><path d="M114.158 107.283c-.012.34-.027.682-.04 1.025-1.42.92-3.712.909-5.27 1.683 2.297.099 4.105.645 5.669 1.415l-.101 2.566c-2.602 1.758-4.98 4.377-8.044 6.027-1.448.78-6.532 2.787-8.074 2.431-.872-.2-.95-1.268-1.299-2.275-.743-2.156-2.452-5.588-2.601-8.834-.19-4.1-.61-10.97 3.866-10.126 3.61.68 7.81 2.322 10.606 3.83 1.708.922 2.696 2.061 5.288 2.258z" stroke="#D33833" stroke-width="2.5"/><path d="M116.432 112.123c-.438-2.107-.944-2.708-.748-4.546 6.648-3.747 7.897 6.436.747 4.546" fill="#D33833"/><path d="M116.432 112.123c-.438-2.107-.944-2.708-.748-4.546 6.648-3.747 7.897 6.436.747 4.546z" stroke="#D33833" stroke-width="2.5"/><path d="M125.212 113.7s-1.874-2.658-.535-3.455c1.338-.797 2.676 0 3.48-1.329.802-1.33 0-2.127.267-3.721.267-1.595 1.606-1.861 2.944-2.126 1.338-.266 5.086-.798 5.62.53l-1.605-4.783-3.212-1.063-10.17 5.847-.537 2.924v5.847m-24.354 10.1a908.17 908.17 0 0 0-1.041-12.433c-.567-6.188 1.497-5.109 6.898-5.109.824 0 5.08.977 5.383 1.595 1.46 2.96-2.44 2.303 1.682 4.536 3.48 1.884 9.627-1.144 8.221-5.333-.787-.932-4.1-.29-5.288-.902l-6.272-3.23c-2.66-1.37-8.809-3.368-11.645-1.453-7.187 4.854.453 16.981 3.017 22.045" fill="#EF3D3A"/><path d="M104.103 27.89c-7.243-1.684-10.842 3.026-13.037 7.911-1.96-.474-1.18-3.135-.685-4.492 1.296-3.559 6.52-8.296 10.79-7.655 1.836.277 4.322 1.954 2.932 4.236m35.29 8.234l.343.014c1.637 3.394 3.053 6.99 5.118 9.987-1.383 3.216-10.473 6.062-10.333.287 1.966-.858 5.36-.175 7.102-1.27-1.008-2.762-2.462-5.112-2.23-9.018m-31.582.089c1.553 2.842 2.059 5.828 4.266 7.976.994.967 2.927 2.146 1.969 4.835-.224.634-1.86 2.049-2.805 2.326-3.452 1.018-11.493.21-8.77-4.085 2.854.133 6.69 1.85 8.824-.218-1.639-2.615-4.56-7.787-3.484-10.834m30.286 28.885c-5.196 3.333-10.99 6.956-19.504 6.116-1.82-1.58-2.513-5.093-.746-7.414.92 1.58.342 4.483 2.906 4.92 4.83.826 10.454-2.95 13.929-4.27 2.155-3.626-.185-4.96-2.127-7.294-3.974-4.783-9.305-10.71-9.112-17.87 1.607-1.163 1.745 1.774 1.976 2.31 2.076 4.848 7.298 11.049 11.11 15.198.935 1.022 2.476 2.002 2.648 2.679.494 1.964-1.286 4.318-1.08 5.625M69.594 61.59c-1.629-.928-2.016-5.016-3.928-5.132-2.733-.165-2.235 5.303-2.224 8.501-1.881-1.704-2.212-6.953-.83-9.65-1.575-.77-2.278.853-3.151 1.424 1.122-8.141 11.93-3.776 10.133 4.857m71.812 6.899c-2.419 4.596-5.84 9.658-12.938 9.805-.144-1.484-.255-3.743.007-4.637 5.427-.52 8.776-3.277 12.93-5.168m-34.003 2.98c4.527 2.376 12.846 2.632 18.999 2.452.33 1.345.322 3.008.335 4.649-7.909.394-17.26-1.56-19.334-7.101m-.86 4.431c3.13 7.846 13.889 6.943 22.962 6.727-.4 1.018-1.265 2.222-2.341 2.657-2.908 1.18-10.927 2.077-14.963-.063-2.56-1.358-4.205-4.428-5.607-6.227-.677-.87-4.05-3.09-.051-3.095" fill="#231F20"/><path d="M138.112 120.52c-3.574 6.464-6.994 13.104-11.236 18.806 1.778-5.52 2.54-14.758 2.808-21.801 3.72-1.838 6.905.413 8.428 2.995" fill="#81B0C4"/><path d="M158.601 142.697c-4.294.846-7.311 4.958-11.5 4.694 2.302-3.197 6.336-4.545 11.5-4.694m1.894 6.62c-3.5.364-7.61.922-11.16.635 1.68-2.529 8.155-1.657 11.16-.635m1.213 5.708c-3.933.084-8.823.006-12.561-.302 2.21-2.34 10.01-.869 12.56.302" fill="#231F20"/><path d="M131.414 169.713c.54 4.631 2.42 9.323 2.184 14.394-2.086.688-3.284 1.29-6.079 1.286-.197-4.31-.786-10.899-.61-15.008 1.374.09 3.4-.96 4.505-.672" fill="#DCD9D8"/><path d="M124.63 100c-1.905 1.342-3.527 3.018-5.357 4.45-4.057.216-6.27-.303-9.25-2.817.048-.202.348-.112.36-.36 4.341 2.089 9.862-.85 14.246-1.273" fill="#F0D6B7"/><path d="M102.157 129.516c1.201-5.034 5.906-7.642 10.179-10.415 4.41 5.416 7.092 12.38 10.046 19.101-6.979-2.035-14.109-5.338-20.225-8.686" fill="#81B0C4"/><path d="M126.422 170.727c-.177 4.221.416 10.992.615 15.42 2.816.004 4.022-.615 6.123-1.321.238-5.21-1.654-10.031-2.2-14.79-1.112-.295-3.153.783-4.538.69zM82.59 146.718c1.856 17.014 4.545 31.316 9.476 46.381 10.944 3.314 24.138 3.602 33.811.613-1.776-8.503-1-18.856-2.039-27.93-.781-6.82-.382-13.682-1.455-20.64-11.722-2.432-28.29-.569-39.793 1.576zm42.564-1.47c-.099 7.307.328 14.515.888 21.831 2.814-.421 4.724-.703 7.339-1.274-.85-7.043-.745-14.969-2.475-21.2-1.998.02-3.759-.022-5.752.643zm14.277-1.178c-1.336-.305-2.891-.011-4.167.013.6 5.957 2.055 12.529 2.567 18.781 2.008.062 3.08-.882 4.732-1.199.088-5.488-.481-13.049-3.132-17.595zm21.616 19.691c4.185-1.013 6.816-6.124 5.646-11.372-.786-3.527-2.185-10.169-3.682-12.426-1.107-1.668-4.106-3.854-6.502-2.325-3.896 2.489-10.76 3.21-13.602 6.221 1.425 4.73 1.867 11.227 2.455 17.22 4.867.303 10.857-1.335 14.905.403-2.826.912-6.493.92-8.935 2.25 1.996.96 6.668.767 9.715.03zm-38.919-25.375c-2.94-6.893-5.61-14.035-9.999-19.59-4.252 2.844-8.935 5.518-10.13 10.682 6.087 3.433 13.183 6.82 20.129 8.908zm7.246-21.344c-.278 6.893-1.067 15.935-2.91 21.338 4.396-5.581 7.94-12.079 11.646-18.406-1.58-2.527-4.88-4.731-8.736-2.932zm-8.214-2.91c-1.665-.18-3.079 1.909-5.245 1.006-.495.547-.946 1.14-1.452 1.673 4.783 5.746 6.955 13.899 10.65 20.652 1.981-6.487 1.753-13.594 2.19-20.674-2.724.173-4.235-2.456-6.143-2.658v.001zm-5.282-6.95c-.178 1.968.281 2.61.679 4.867 6.488 2.023 5.355-8.88-.679-4.868zm-7.196-2.356c-2.795-1.523-6.996-3.181-10.607-3.869-4.477-.853-4.057 6.088-3.867 10.23.15 3.278 1.859 6.746 2.602 8.923.348 1.018.427 2.097 1.3 2.299 1.541.358 6.626-1.67 8.075-2.457 3.065-1.666 5.442-4.312 8.045-6.088.034-.865.066-1.728.101-2.592-1.565-.778-3.373-1.33-5.67-1.43 1.558-.78 3.85-.77 5.27-1.7.014-.346.028-.691.04-1.034-2.592-.2-3.58-1.35-5.289-2.282zM81.977 99.99c-2.32 2.349 6.508 5.55 9.32 5.723-.016-1.486.849-2.887.675-3.954-3.34-.584-7.727-.199-9.995-1.77v.001zm28.585 1.103c-.011.23-.31.146-.36.332 2.985 2.327 5.203 2.808 9.267 2.607 1.832-1.325 3.457-2.876 5.365-4.117-4.392.39-9.922 3.11-14.272 1.178zm26.238 7.932c-.125-2.61-.813-7.975-2.43-8.915-3.396-1.976-9.432 3.99-11.989 4.9.278.798.738 1.43.772 2.451 1.513-.37 3.355-.117 4.665.525-1.515.17-3.196.158-4.198.878-.368 1.059.09 2.502-.155 3.973 3.597 1.01 7.706 1.55 12.254 1.683.885-1.147 1.186-3.33 1.08-5.495h.001zm-58.73-6.763c-.729-.518-5.658-6.913-6.333-6.648-8.92 3.508-17.261 9.572-24.714 15.308 7.106 15.203 9.974 33.828 10.481 51.78 8.141 3.796 15.29 9.268 26.337 9.84-1.278-9.017-2.445-17.062-3.17-25.551-2.776-1.167-6.757.052-9.355-.362-.022-3.12 3.967-1.366 4.299-3.465.25-1.588-2.195-1.708-1.398-4.207 2.03.736 3.096 2.36 5.261 2.971 1.98-4.316-.027-11.953.258-15.56.054-.677.34-3.752 1.861-3.213 1.347.478-.077 8.179.07 11.593.136 3.146-.38 6.189.898 8.164a305.928 305.928 0 0 1 33.07-2.701c-2.54-1.087-5.56-2.115-8.868-3.975-1.795-1.009-7.45-3.107-7.968-4.806-.826-2.707 2.168-4.149 2.68-6.47-5.388 2.93-6.44-2.808-7.714-6.873-1.155-3.682-1.812-6.432-2.095-8.556-4.642-2.206-9.605-4.44-13.6-7.27zm54.016-5.874c7.432-3.593 8.771 13.429 5.859 18.912.45 1.635 1.998 2.261 2.63 3.732-4.147 7.407-8.754 14.32-12.985 21.641 3.148-1.954 7.644-.35 11.349-1.812 1.354-.534 2.333-3.624 3.359-6.097 2.82-6.801 5.78-15.377 7.097-21.867.297-1.48 1.108-4.703.926-6.019-.324-2.356-3.531-4.104-5.162-5.562-3.006-2.691-4.899-5.06-8.034-7.578-1.27 1.872-4 3.129-5.039 4.65zm-71.012-65.71c-3.542 3.885-2.8 11.164-2.372 16.343 6.401-4.015 14.898.317 14.817 7.145 3.056-.08 1.142-3.805.589-6.204-1.806-7.837 3.044-16.352.22-23.518-5.483.414-9.987 2.646-13.254 6.234zM86.412 8.13c-8.018 2.265-18.292 8.072-21.586 15.254 2.55-.37 4.322-1.653 6.838-1.811.951-.062 2.197.397 3.29.126 2.179-.539 4.017-5.408 5.66-7.22 1.602-1.769 3.527-2.525 4.845-4.138.847-.407 2.098-.379 2.146-1.646-.367-.391-.753-.69-1.193-.565zm41.734 2.13c-8.322-4.68-22.407-8.202-31.258-3.802-7.142 3.551-16.797 9.426-20.089 16.87 3.075 7.183-.91 13.765-1.164 21.06-.135 3.88 1.832 7.267 1.983 11.492-1.052 1.731-4.267 1.944-6.492 1.825-.749-3.737-2.06-7.937-5.92-8.36-5.462-.595-9.456 3.912-9.704 8.622-.294 5.539 4.267 14.719 10.73 14.081 2.498-.246 3.11-2.742 5.832-2.716 1.474 2.933-2.275 3.854-2.66 5.952-.101.542.31 2.66.55 3.653 1.174 4.837 3.79 11.096 6.367 14.778 3.27 4.67 9.693 5.374 16.604 5.832 1.235-2.65 5.781-2.433 8.744-1.74-3.55-1.402-6.852-4.8-9.588-7.81-3.142-3.451-6.325-7.154-6.486-11.665 5.938 8.213 10.845 15.386 21.642 18.999 8.172 2.732 17.714-1.252 23.992-5.648 2.605-1.827 4.16-4.725 6.012-7.379 6.928-9.936 10.161-24.12 9.45-37.866-.292-5.67-.28-11.32-2.187-15.133-1.994-3.989-8.739-7.557-12.686-3.95-.732-3.878 3.282-6.276 7.999-4.88-3.363-4.327-6.892-9.526-11.671-12.215zm15.502 127.918c6.503-3.223 18.652-8.674 22.729.012 1.504 3.202 3.269 8.615 4.048 11.92 1.1 4.663-1.193 14.464-6.001 16.03-4.246 1.38-9.2 1.297-14.315.272-.602-.5-1.273-1.37-1.742-2.277-3.652-.141-7.072.195-9.957 1.692.274 2.693-1.553 3.125-3.265 3.68-1.27 5.019 2.54 11.573 1.628 16.15-.65 3.26-4.674 3.764-7.632 4.374-.096 1.812.13 3.325.332 4.857-.676 2.485-3.71 3.899-6.583 4.245-9.455 1.134-23.81 1.643-32.905-1.618-2.538-6.206-4.537-13.754-6.651-20.84-8.87.944-16.043-3.817-22.806-6.935-2.342-1.082-5.58-1.679-6.455-3.537-.849-1.799-.501-5.247-.712-8.504-.536-8.319-.994-16.343-3.197-24.86-.99-3.822-2.714-7.195-3.917-10.878-1.112-3.413-3.054-7.632-3.561-11.035-.751-5.045 4.014-5.326 7.06-7.511 4.71-3.382 8.407-5.251 13.507-8.302 1.511-.903 6.066-3.19 6.585-4.244 1.03-2.088-1.768-5.033-2.516-6.67-1.184-2.588-1.802-4.787-1.97-7.341-4.28-.675-7.523-3.213-9.482-6.076-3.241-4.738-5.489-13.503-2.685-20.17.22-.525 1.317-1.558 1.479-2.364.319-1.589-.601-3.7-.658-5.39-.295-8.665 1.47-16.132 7.322-18.745 2.375-9.435 10.877-12.572 18.887-17.26C83.21 5.1 86.51 3.98 89.92 2.73c12.228-4.486 30.99-3.641 41.138 4.011C135.361 9.986 142.24 16.838 144.7 21.8c6.498 13.096 6.037 34.984 1.492 50.915-.611 2.139-1.498 5.283-2.735 7.852-.862 1.794-3.545 5.384-3.218 6.968.335 1.638 6.114 6.013 7.352 7.204 2.232 2.146 6.47 4.994 6.814 7.703.369 2.881-1.274 6.823-2.106 9.605-2.782 9.28-5.496 17.86-8.65 26.133z" fill="#231F20"/><path d="M100.107 73.664c.382-.477 2.482-1.2 5.421.126 0 0-3.483.544-3.193 5.985l-1.45-.273s-1.501-4.933-.778-5.838" fill="#F7E4CD"/><path d="M124.255 119.475a1.536 1.536 0 0 1-.74 1.35c-.469.28-1.049.28-1.517 0a1.536 1.536 0 0 1-.74-1.351c.018-.832.684-1.497 1.5-1.496.815 0 1.48.665 1.497 1.497m1.498 7.087c0 .844-.672 1.528-1.5 1.528-.827 0-1.497-.685-1.497-1.53.018-.831.684-1.496 1.499-1.496.815 0 1.48.666 1.497 1.498" fill="#1D1919"/></g></svg>