<svg width="200" height="200" xmlns="http://www.w3.org/2000/svg"><g fill="#999"><path d="M99.563 189.719c-2.532 0-4.782-.563-7.032-1.969l-21.937-12.938c-3.375-1.968-1.688-2.53-.563-2.812 4.5-1.688 5.344-1.969 9.844-4.5.563-.281 1.125-.281 1.688.281l16.874 10.125c.563.281 1.407.281 1.97 0l65.812-37.969c.562-.28 1.125-1.125 1.125-1.687V62.312c0-.843-.281-1.406-1.125-1.687l-65.531-38.25c-.563-.281-1.407-.281-1.97 0L32.907 60.063c-.562.28-1.125 1.124-1.125 1.687v75.938c0 .562.282 1.406 1.125 1.687l18 10.406c9.844 4.781 15.75-.844 15.75-6.75V68.5c0-1.125.844-1.969 1.969-1.969h8.438c1.124 0 1.968.844 1.968 1.969v74.813c0 13.218-7.031 20.53-19.406 20.53-3.938 0-6.75 0-15.188-4.218l-17.156-9.844c-4.218-2.531-7.031-7.031-7.031-12.094V61.75c0-4.781 2.531-9.563 7.031-12.094l65.813-37.968c4.219-2.25 9.844-2.25 13.781 0l65.813 37.968c4.218 2.532 7.03 7.032 7.03 12.094v75.938c0 4.78-2.53 9.562-7.03 12.093l-66.094 38.25c-2.25 1.125-4.5 1.688-7.031 1.688z"/><path d="M120.094 137.406c-28.688 0-34.875-13.219-34.875-24.187 0-1.125.844-1.969 1.969-1.969h8.437c.844 0 1.688.563 1.969 1.688 1.125 8.718 5.062 12.937 22.5 12.937 13.781 0 19.687-3.094 19.687-10.406 0-4.219-1.687-7.313-23.344-9.563-18-1.687-29.25-5.625-29.25-20.25 0-13.219 11.25-21.094 30.094-21.094 21.094 0 31.5 7.313 32.906 23.063 0 .563-.28 1.125-.562 1.406-.281.281-.844.563-1.406.563h-8.438c-.844 0-1.687-.563-1.969-1.406-1.968-9-7.03-12.094-20.53-12.094-15.188 0-16.876 5.344-16.876 9.281 0 4.781 1.969 6.188 22.5 9 20.25 2.531 29.813 6.469 29.813 20.531 0 14.344-11.813 22.5-32.625 22.5z"/></g></svg>