<?xml version="1.0" encoding="UTF-8"?>
<svg width="200px" height="200px" viewBox="0 0 200 200" version="1.1" xmlns="http://www.w3.org/2000/svg" xmlns:xlink="http://www.w3.org/1999/xlink">
    <!-- Generator: Sketch 48.2 (47327) - http://www.bohemiancoding.com/sketch -->
    <title>NodeJS_Gray</title>
    <desc>Created with Sketch.</desc>
    <defs></defs>
    <g id="Page-1" stroke="none" stroke-width="1" fill="none" fill-rule="evenodd">
        <g id="NodeJS_Gray" fill="#999999" fill-rule="nonzero">
            <g id="NodeJs_Gray" transform="translate(18.000000, 10.000000)">
                <path d="M81.5625,179.71875 C79.03125,179.71875 76.78125,179.15625 74.53125,177.75 L52.59375,164.8125 C49.21875,162.84375 50.90625,162.28125 52.03125,162 C56.53125,160.3125 57.375,160.03125 61.875,157.5 C62.4375,157.21875 63,157.21875 63.5625,157.78125 L80.4375,167.90625 C81,168.1875 81.84375,168.1875 82.40625,167.90625 L148.21875,129.9375 C148.78125,129.65625 149.34375,128.8125 149.34375,128.25 L149.34375,52.3125 C149.34375,51.46875 149.0625,50.90625 148.21875,50.625 L82.6875,12.375 C82.125,12.09375 81.28125,12.09375 80.71875,12.375 L14.90625,50.0625 C14.34375,50.34375 13.78125,51.1875 13.78125,51.75 L13.78125,127.6875 C13.78125,128.25 14.0625,129.09375 14.90625,129.375 L32.90625,139.78125 C42.75,144.5625 48.65625,138.9375 48.65625,133.03125 L48.65625,58.5 C48.65625,57.375 49.5,56.53125 50.625,56.53125 L59.0625,56.53125 C60.1875,56.53125 61.03125,57.375 61.03125,58.5 L61.03125,133.3125 C61.03125,146.53125 54,153.84375 41.625,153.84375 C37.6875,153.84375 34.875,153.84375 26.4375,149.625 L9.28125,139.78125 C5.0625,137.25 2.25,132.75 2.25,127.6875 L2.25,51.75 C2.25,46.96875 4.78125,42.1875 9.28125,39.65625 L75.09375,1.6875 C79.3125,-0.5625 84.9375,-0.5625 88.875,1.6875 L154.6875,39.65625 C158.90625,42.1875 161.71875,46.6875 161.71875,51.75 L161.71875,127.6875 C161.71875,132.46875 159.1875,137.25 154.6875,139.78125 L88.59375,178.03125 C86.34375,179.15625 84.09375,179.71875 81.5625,179.71875 Z" id="Shape"></path>
                <path d="M102.09375,127.40625 C73.40625,127.40625 67.21875,114.1875 67.21875,103.21875 C67.21875,102.09375 68.0625,101.25 69.1875,101.25 L77.625,101.25 C78.46875,101.25 79.3125,101.8125 79.59375,102.9375 C80.71875,111.65625 84.65625,115.875 102.09375,115.875 C115.875,115.875 121.78125,112.78125 121.78125,105.46875 C121.78125,101.25 120.09375,98.15625 98.4375,95.90625 C80.4375,94.21875 69.1875,90.28125 69.1875,75.65625 C69.1875,62.4375 80.4375,54.5625 99.28125,54.5625 C120.375,54.5625 130.78125,61.875 132.1875,77.625 C132.1875,78.1875 131.90625,78.75 131.625,79.03125 C131.34375,79.3125 130.78125,79.59375 130.21875,79.59375 L121.78125,79.59375 C120.9375,79.59375 120.09375,79.03125 119.8125,78.1875 C117.84375,69.1875 112.78125,66.09375 99.28125,66.09375 C84.09375,66.09375 82.40625,71.4375 82.40625,75.375 C82.40625,80.15625 84.375,81.5625 104.90625,84.375 C125.15625,86.90625 134.71875,90.84375 134.71875,104.90625 C134.71875,119.25 122.90625,127.40625 102.09375,127.40625 Z" id="Shape"></path>
            </g>
        </g>
    </g>
</svg>