<svg width="200" height="200" xmlns="http://www.w3.org/2000/svg"><path d="M177.955 91.747l-31.312-54.172C143.925 32.869 137.25 29 131.813 29H69.187c-5.421 0-12.113 3.87-14.831 8.56L23.045 91.731c-2.727 4.705-2.727 12.382 0 17.118l31.312 54.172c2.718 4.706 9.394 8.56 14.83 8.56h62.625c5.421 0 12.105-3.87 14.831-8.56l31.312-54.172c2.727-4.698 2.727-12.39 0-17.103zM93.731 58.965a6.453 6.453 0 0 1 3.161-5.775 6.463 6.463 0 0 1 6.588 0 6.453 6.453 0 0 1 3.162 5.775v38.547a6.453 6.453 0 0 1-3.162 5.776 6.463 6.463 0 0 1-6.588 0 6.453 6.453 0 0 1-3.16-5.776V58.965zm6.46 82.25c-18.859-.016-35.587-12.1-41.513-29.99-5.927-17.889.28-37.56 15.405-48.816a5.743 5.743 0 0 1 8.03 1.176 5.732 5.732 0 0 1-1.176 8.025c-12.208 9.056-16.44 25.395-10.16 39.231 6.28 13.836 21.368 21.42 36.229 18.21 14.86-3.21 25.466-16.346 25.464-31.539a32.41 32.41 0 0 0-13.112-25.948 5.746 5.746 0 0 1-1.254-8.033 5.756 5.756 0 0 1 8.039-1.254c15.206 11.212 21.496 30.909 15.597 48.849-5.898 17.94-22.652 30.072-41.55 30.088z" fill="#999"/></svg>