<svg width="200" height="200" xmlns="http://www.w3.org/2000/svg"><g><path d="M172.975 69.88C179.345 78.848 183 89.104 183 100.005s-3.655 21.22-10.089 30.203c-1.807 10.893-6.49 20.759-14.221 28.49-7.597 7.59-17.343 12.423-28.555 14.262-8.966 6.37-19.23 10.041-30.131 10.041s-21.181-3.639-30.14-10.041c-11.21-1.84-20.957-6.673-28.554-14.261-7.731-7.732-12.414-17.598-14.213-28.491C20.663 121.217 17 110.929 17 100.004s3.663-21.229 10.097-30.203c1.791-10.893 6.458-20.759 14.213-28.49 7.597-7.597 17.343-12.423 28.555-14.262C78.823 20.639 89.095 17 100.004 17c10.909 0 21.141 3.639 30.131 10.049 11.212 1.84 20.958 6.665 28.555 14.261 7.596 7.597 12.453 17.423 14.285 28.57zm7.835 30.124a48.573 48.573 0 0 0-7.23-25.202 70.71 70.71 0 0 1-.454 15.471 82.255 82.255 0 0 1-1.99 9.81 74.54 74.54 0 0 1 2.388 25.227 48.573 48.573 0 0 0 7.278-25.306h.008zm-9.874-10.025a66.091 66.091 0 0 0-.063-19.27 68.75 68.75 0 0 0-18.45-17.12 95.625 95.625 0 0 1 7.899 21.428 95.29 95.29 0 0 1 9.555 20.783 67.729 67.729 0 0 0 1.06-5.821zm-.103 39.36a68.878 68.878 0 0 0-.94-25.02 95.036 95.036 0 0 1-9.595 20.704 95.951 95.951 0 0 1-7.883 21.364 69.077 69.077 0 0 0 18.426-17.048h-.008zm-1.967-29.287A90.083 90.083 0 0 0 161.7 81.96a107.665 107.665 0 0 1 0 36.2 89.804 89.804 0 0 0 7.174-18.108h-.008zm1.067-34.057a47.777 47.777 0 0 0-35.928-35.928 74.388 74.388 0 0 1 16.276 19.652 74.524 74.524 0 0 1 19.652 16.284v-.008zm-12.796 91.142a48.613 48.613 0 0 0 12.74-23.092 74.683 74.683 0 0 1-19.596 16.212 74.5 74.5 0 0 1-16.268 19.644 48.485 48.485 0 0 0 23.124-12.764zm-.725-88.037a89.98 89.98 0 0 0-7.716-17.788 90.123 90.123 0 0 0-17.733-7.7 109.385 109.385 0 0 1 13.768 11.665c4.274 4.273 8.179 8.9 11.673 13.831l.008-.008zm-7.716 79.58a90.13 90.13 0 0 0 7.7-17.749 108.684 108.684 0 0 1-25.44 25.481 90.41 90.41 0 0 0 17.732-7.724l.008-.008zM146.42 47.553a68.886 68.886 0 0 0-17.104-18.442 62.994 62.994 0 0 0-9.69-.748 73.879 73.879 0 0 0-15.36 1.68 94.614 94.614 0 0 1 20.806 9.635 95.824 95.824 0 0 1 21.34 7.907l.008-.032zm-17.112 123.312a68.759 68.759 0 0 0 17.096-18.442 95.649 95.649 0 0 1-21.34 7.875 94.924 94.924 0 0 1-20.807 9.635 73.87 73.87 0 0 0 15.36 1.672 63.002 63.002 0 0 0 9.691-.74zm2.771-52.427c11.658-13.593 7.167-37.067 3.185-52.164-5.04 8.958-16.427 15.328-25.99 16.944-8.982 1.537-18.8-.852-27.177 1.76-19.111 5.964-20.281 28.22-10.352 33.882l.478.39c.08 0 17.518-1.895 26.07-4.427 12.502-3.719 26.612-13.943 31.851-26.556-3.185 13.266-15.575 25.417-27.535 30.6-6.37 2.764-11.084 3.576-21.571 6.005a20.902 20.902 0 0 0-6.944 3.185c11.849-7.549 43.628 7.095 57.993-9.627l-.008.008zm-12.462-92.241c1.895 0 3.75.08 5.574.23a47.53 47.53 0 0 0-50.38 0 67.476 67.476 0 0 1 5.574-.23c6.623.034 13.215.92 19.612 2.636a77.16 77.16 0 0 1 19.62-2.636zm5.574 147.375a68.63 68.63 0 0 1-5.574.239 77.454 77.454 0 0 1-19.612-2.636 77.542 77.542 0 0 1-19.612 2.636c-1.895 0-3.75-.08-5.574-.231a47.506 47.506 0 0 0 50.38 0l-.008-.008zm-7.023-135.28a89.072 89.072 0 0 0-18.171-7.166 88.92 88.92 0 0 0-18.171 7.166 107.8 107.8 0 0 1 36.334 0h.008zm-18.163 130.63a89.072 89.072 0 0 0 18.171-7.167 107.8 107.8 0 0 1-36.334 0 88.92 88.92 0 0 0 18.163 7.167zm-4.26-138.855a73.815 73.815 0 0 0-15.352-1.68c-3.245-.001-6.485.25-9.691.748a68.774 68.774 0 0 0-17.112 18.45 95.768 95.768 0 0 1 21.372-7.883 94.614 94.614 0 0 1 20.783-9.635zm-15.36 141.538a73.807 73.807 0 0 0 15.352-1.672 94.757 94.757 0 0 1-20.775-9.635 95.824 95.824 0 0 1-21.348-7.875 68.886 68.886 0 0 0 17.104 18.442c3.198.495 6.43.742 9.667.74zm-14.85-41.844a4.993 4.993 0 1 0-5.081-4.913 4.977 4.977 0 0 0 5.08 4.913zm3.51-86.15a89.98 89.98 0 0 0-17.724 7.7 89.98 89.98 0 0 0-7.724 17.79 108.58 108.58 0 0 1 25.48-25.481l-.031-.008zm-17.732 105.11a90.346 90.346 0 0 0 17.733 7.7 109.472 109.472 0 0 1-13.768-11.666 107.935 107.935 0 0 1-11.681-13.84 90.035 90.035 0 0 0 7.724 17.773l-.008.032zm-1.593-99.002a74.651 74.651 0 0 1 16.268-19.644 47.641 47.641 0 0 0-35.832 35.832A74.516 74.516 0 0 1 49.719 49.72zm16.268 120.238a74.755 74.755 0 0 1-16.268-19.676 74.651 74.651 0 0 1-19.588-16.212A47.641 47.641 0 0 0 65.963 169.9l.024.056zM39.71 75.049a95.64 95.64 0 0 1 7.907-21.428 68.655 68.655 0 0 0-18.45 17.04 68.854 68.854 0 0 0 .948 25.09 95.848 95.848 0 0 1 9.563-20.734l.032.032zm7.907 71.394a95.64 95.64 0 0 1-7.907-21.428 95.848 95.848 0 0 1-9.555-20.703 68.846 68.846 0 0 0-.948 25.09 68.767 68.767 0 0 0 18.378 17.009l.032.032zM36.74 100.004c0-6.047.512-12.083 1.529-18.044a90.139 90.139 0 0 0-7.103 18.044 90.139 90.139 0 0 0 7.126 18.044 107.426 107.426 0 0 1-1.552-18.044zm-7.852 0A74.563 74.563 0 0 1 26.5 74.69a47.538 47.538 0 0 0 0 50.628 74.563 74.563 0 0 1 2.388-25.314z" fill="#999"/><path d="M134.71 66c3.983 14.953 8.492 38.122-3.188 51.556-14.341 16.527-46.172 2.046-58.011 9.444a21.037 21.037 0 0 1 6.947-3.148c10.494-2.361 15.218-3.203 21.584-5.934 11.952-5.123 24.35-17.133 27.552-30.244-5.259 12.466-19.369 22.579-31.87 26.246-8.525 2.503-25.998 4.376-26.086 4.376l-.478-.386c-9.951-5.587-8.764-27.584 10.358-33.486 8.382-2.582 18.206-.22 27.193-1.74 9.57-1.542 20.963-7.838 25.998-16.684z" fill="#FFF"/></g></svg>