<svg version="1" xmlns="http://www.w3.org/2000/svg" width="100" height="100"><g fill="#999"><path d="M39.4 47c0 .6.1 1.1.2 1.4.1.4.3.7.5 1.2.1.1.1.3.1.4 0 .2-.1.3-.3.5l-1 .7c-.2.1-.3.1-.4.1-.2 0-.3-.1-.5-.2-.2-.2-.4-.5-.6-.8-.2-.3-.3-.6-.5-1-1.3 1.5-2.9 2.2-4.8 2.2-1.4 0-2.4-.4-3.2-1.2-.8-.8-1.2-1.8-1.2-3.1 0-1.4.5-2.5 1.5-3.3 1-.8 2.3-1.3 4-1.3.5 0 1.1 0 1.7.1.6.1 1.2.2 1.9.4V42c0-1.2-.3-2.1-.8-2.6s-1.4-.8-2.6-.8c-.6 0-1.1.1-1.7.2-.6.1-1.2.3-1.7.6-.3.1-.5.2-.6.2h-.3c-.2 0-.3-.2-.3-.5v-.8c0-.3 0-.5.1-.6.1-.1.2-.2.5-.3.6-.3 1.2-.5 2-.7.8-.2 1.6-.3 2.5-.3 1.9 0 3.3.4 4.2 1.3.9.9 1.3 2.2 1.3 4V47zm-6.6 2.5c.5 0 1.1-.1 1.7-.3.6-.2 1.1-.5 1.5-1 .3-.3.4-.6.6-1 .1-.4.2-.9.2-1.4V45l-1.5-.3c-.5-.1-1-.1-1.5-.1-1.1 0-1.9.2-2.4.7-.5.4-.8 1.1-.8 1.9 0 .8.2 1.3.6 1.7.3.4.8.6 1.6.6zm13 1.7c-.3 0-.5-.1-.6-.2-.1-.1-.2-.3-.3-.6L41 37.9c-.1-.3-.1-.5-.1-.7 0-.3.1-.4.4-.4h1.6c.3 0 .5.1.6.2.1.1.2.3.3.6l2.7 10.7L49 37.6c.1-.3.2-.5.3-.6.1-.1.3-.2.7-.2h1.3c.3 0 .5.1.7.2.1.1.2.3.3.6l2.6 10.9 2.8-10.9c.1-.3.2-.5.3-.6.1-.1.3-.2.6-.2h1.5c.3 0 .4.1.4.4v.3c0 .1-.1.2-.1.4l-3.9 12.5c-.1.3-.2.5-.3.6-.1.1-.3.2-.6.2h-1.4c-.3 0-.5-.1-.7-.2-.1-.1-.2-.3-.3-.7L50.7 40l-2.5 10.4c-.1.3-.2.5-.3.7-.1.1-.4.2-.7.2h-1.4zm20.8.5c-.9 0-1.7-.1-2.5-.3-.8-.2-1.4-.4-1.9-.7-.3-.2-.4-.3-.5-.5-.1-.2-.1-.3-.1-.5V49c0-.3.1-.5.4-.5.1 0 .2 0 .3.1.1 0 .2.1.4.2.5.2 1.1.4 1.8.6.6.1 1.3.2 1.9.2 1 0 1.8-.2 2.4-.5.6-.4.8-.9.8-1.5 0-.5-.1-.8-.4-1.1-.3-.3-.8-.6-1.6-.9l-2.4-.7c-1.2-.4-2.1-.9-2.6-1.6-.5-.7-.8-1.5-.8-2.4 0-.7.1-1.3.4-1.8.3-.5.7-1 1.2-1.3.5-.4 1-.6 1.7-.8.6-.2 1.3-.3 2-.3.4 0 .7 0 1.1.1.4 0 .7.1 1 .2l.9.3c.3.1.5.2.7.3.2.1.4.3.5.4.1.1.1.3.1.5v.8c0 .3-.1.5-.4.5-.1 0-.3-.1-.6-.2-.9-.4-2-.6-3.1-.6-.9 0-1.6.2-2.2.5-.5.3-.8.8-.8 1.4 0 .5.2.8.5 1.1.3.3.9.6 1.8.9l2.3.7c1.2.4 2 .9 2.5 1.6.5.7.8 1.4.8 2.3 0 .7-.1 1.3-.4 1.9-.3.6-.7 1-1.2 1.4-.5.4-1.1.7-1.8.9-.6-.1-1.3 0-2.2 0z"/><g fill-rule="evenodd" clip-rule="evenodd"><path d="M69.7 59.5c-5.3 3.9-13.1 6-19.7 6-9.3 0-17.8-3.5-24.1-9.2-.5-.5-.1-1.1.5-.7 6.9 4 15.4 6.4 24.1 6.4 5.9 0 12.4-1.2 18.4-3.8.9-.3 1.7.7.8 1.3z"/><path d="M71.9 57c-.7-.9-4.5-.4-6.2-.2-.5.1-.6-.4-.1-.7 3.1-2.1 8.1-1.5 8.6-.8.6.7-.2 5.7-3 8.1-.4.4-.9.2-.7-.3.7-1.6 2.1-5.2 1.4-6.1z"/></g></g></svg>