<?xml version="1.0" encoding="UTF-8"?>
<svg width="279px" height="279px" viewBox="0 0 279 279" version="1.1" xmlns="http://www.w3.org/2000/svg" xmlns:xlink="http://www.w3.org/1999/xlink">
    <!-- Generator: Sketch 48.2 (47327) - http://www.bohemiancoding.com/sketch -->
    <title>Letter</title>
    <desc>Created with Sketch.</desc>
    <defs></defs>
    <g id="Letter" stroke="none" stroke-width="1" fill="none" fill-rule="evenodd" transform="translate(-35.000000, -34.000000)">
        <path d="M55.3844005,118.300712 C58.65053,116.462201 59.381776,115.134751 57.5781387,114.318359 C55.7689674,113.499463 62.3654284,112.296577 59.8645378,111.529297 C56.5511344,110.512735 54.7003549,109.386702 59.8645378,108.345041 C60.5691155,108.202921 54.0891982,108.502501 55.3844005,108.345041 C56.918417,108.158547 58.4117961,107.981829 59.8645378,107.814887 C162.393589,96.032771 230.346834,99.5280457 263.724272,118.300712 C295.862345,136.376315 270.787177,169.438217 201.731009,216.5 C170.452586,237.816247 136.184182,256.842289 98.9257949,273.578125 C81.7091581,280.197796 82.490497,276.617978 101.269812,262.838671 C161.651018,218.534009 191.425656,184.559974 186.284455,158.557574 C182.016386,136.971172 129.628986,124.516516 50.8865118,124.424565 C47.5317253,124.050495 54.9256842,121.674057 52.8945449,121.548828 C48.6380284,121.286395 49.4679803,120.203689 55.3844005,118.300712 Z" id="Path" fill="#D0021B"></path>
        <circle id="Oval" stroke="#D0021B" stroke-width="9" cx="174.5" cy="173.5" r="130.5"></circle>
    </g>
</svg>