<svg xmlns="http://www.w3.org/2000/svg" width="241.067" height="332.8" viewBox="0 0 180.8 249.6"><path d="M177.719 120.336c0 49.43-39.176 89.5-87.5 89.5s-87.5-40.07-87.5-89.5 39.176-89.5 87.5-89.5 87.5 40.07 87.5 89.5" fill-rule="evenodd" fill="#666"/><path d="M6.285 142.504s-6.336-93.336 79.664-96l-6-10-46.664 15.664L19.95 67.504 8.285 89.836l-6.668 26 2 17.332" fill="#737373"/><path d="M30.29 59.281C14.937 74.988 5.437 96.676 5.437 120.671c0 23.985 9.5 45.677 24.851 61.384 15.36 15.703 36.527 25.394 59.93 25.394 23.398 0 44.57-9.691 59.926-25.394C165.496 166.348 175 144.656 175 120.672c0-23.996-9.504-45.684-24.855-61.39-15.356-15.704-36.528-25.395-59.926-25.395-23.403 0-44.57 9.691-59.93 25.394zm-3.888 126.57C10.086 169.169 0 146.106 0 120.672c0-25.44 10.086-48.5 26.402-65.187C42.715 38.793 65.293 28.45 90.22 28.454c24.922-.005 47.504 10.339 63.812 27.03 16.317 16.688 26.406 39.746 26.403 65.188.004 25.433-10.086 48.496-26.403 65.18-16.308 16.691-38.89 27.035-63.812 27.035-24.926 0-47.504-10.344-63.817-27.035" fill="#212121"/><path d="M127.05 120.832l-13.331 2-18 2-11.668.332-11.332-.332-8.668-2.668-7.668-8.332-6-17-1.332-3.668-8-2.664-4.668-7.668-3.332-11 3.668-9.668 8.664-3 7 3.336 3.336 7.332 4-.668L61.05 67.5l-1.332-7.668-.336-9.668 2-13.332-.078-7.617 6.078-9.715 10.668-7.668 18.668-8 20.664 3 18 13 8.336 13.332 5.332 9.668 1.332 24-4 20.668-7.332 18.332-7 9.668" fill-rule="evenodd" fill="#dbdbdb"/><path d="M115.719 178.496l-47.668 2v8l4 28-2 2.336-33.332-11.336-2.336-4-3.332-37.664-7.668-22.668-1.664-5.332L48.383 119.5l8.336-3.336 7.332 9 6.332 5.668 7.336 2.332 3.332 1 4 17.332 3 3.668 7.668-2.668-5.336 10.336 29 13.664-3.664 2" fill-rule="evenodd" fill="#4a4a4a"/><path d="M36.719 62.164l8.664-3 7 3.336 3.336 7.332 4-.668 1-4-2-7.664 2-18.336-1.668-10 6-7 13-10.332-3.668-5-18.332 9-7.668 6-4.332 9.332-6.668 9-2 10.668 1.336 11.332" fill-rule="evenodd" fill="#6b6b6b"/><path d="M50.383 30.832s5-12.332 25-18.332 1-4.336 1-4.336L54.719 16.5l-8.336 8.332-3.664 6.668 7.664-.668m-10 29s-7-23.336 19.668-26.668l-1-4L40.719 33.5l-5.336 17.332 1.336 11.332 3.664-2.332" fill-rule="evenodd" fill="#d9d9d9"/><path d="M51.05 90.832l4.364-4.23s1.969.23 2.305 2.562c.332 2.336 1.332 23.336 15.664 34.668 1.308 1.035-10.664-1.668-10.664-1.668L52.05 105.5m60.337-21s.773-10.105 3.496-9.328c2.722.777 2.722 3.5 2.722 3.5s-6.609 4.273-6.218 5.828" fill-rule="evenodd" fill="#e8e8e8"/><path d="M140.05 47.5s-5.495 1.16-6 6c-.507 4.84 6 1 7 .664m-41.331-6.332s-7.336 1-7.336 5.668c0 4.664 8.336 4.332 10.668 2.332" fill="#e8e8e8"/><path d="M54.383 69.5s-12.668-7.668-14-.336c-1.332 7.336-4.336 12.668 2 20.336l-4.332-1.336-4-10.332-1.332-10 7.664-8 8.668.668 5 4 .332 5m6-21s5.668-29.336 34.336-35c23.597-4.664 35.996 1 40.664 6.332 0 0-21-25-41-17.332-20 7.664-34.664 21.664-34.332 30.664.566 15.328.332 15.336.332 15.336m77.336-25.336s-9.668-.332-10 8.336c0 0-.004 1.332.664 2.664 0 0 7.668-8.668 12.336-4" fill-rule="evenodd" fill="#e8e8e8"/><path d="M95.39 35.066s-1.667-13.3-13.007-5.566c-7.332 5-6.664 12-5.332 13.332 1.332 1.332.969 4.02 1.984 2.176 1.016-1.844.68-7.844 4.348-9.508 3.668-1.668 9.676-3.531 12.008-.434" fill-rule="evenodd" fill="#e8e8e8"/><path d="M64.05 125.164l-31.331 14s13 51.668 6.332 67.668l-4.668-1.668-.332-19.664-8.668-37.336-3.664-10.332 32.664-22 9.668 9.332m3.222 28.578l4.446 5.422v20h-5.336s-.664-14-.664-15.664c0-1.668.664-7.668.664-7.668m1 26.332l-15 .668 4.336 3 10.664 1.668" fill-rule="evenodd" fill="#696969"/><path d="M118.719 178.832l12.332-.332 3 30.664-12.668 1.668-2.664-32" fill-rule="evenodd" fill="#4a4a4a"/><path d="M122.05 178.832l18.669-1s7.664-19.332 7.664-20.332 6.668-28 6.668-28l-15-15.668-3-2.668-8 8v31l-7 28.668" fill-rule="evenodd" fill="#4a4a4a"/><path d="M130.383 176.5l-11.664 2.332 1.664 9.332c4.332 2 11.668-3.332 11.668-3.332m-1.332-66.668L154.05 135.5l.668-8-17.668-16.336-6.332 7" fill-rule="evenodd" fill="#696969"/><path d="M78.95 244.5l-6.9-28.004-3.433-20.66-.566-15.34 31.234-1.66 19.434-.004-1.77 35.004 3 27-.332 5-25.332 2L78.95 244.5" fill-rule="evenodd" fill="#fff"/><path d="M114.383 178.5s-1.664 34.664 3.336 59.332c0 0-10 6.336-24.668 8l28-1 3.332-2-4-54.668-1-11.668" fill-rule="evenodd" fill="#d9d9d9"/><path d="M134.617 206.504l13-3.668 24.668-1.332 3.664-11.336-6.664-19.664-7.668-1-10.668 3.332-10.23 4.996-5.434-.996-4.234 1.664" fill-rule="evenodd" fill="#fff"/><path d="M134.383 199.832s8.668-4 10-3.668l-3.664-18.332 4.332-1.668s3 17.336 3 19.336c0 0 18.664 1 20.332 1 0 0 4-7.668 3-15.668l3.668 10.668.332 6-5.332 8-6 1.332-10-.332-3.332-4.336-11.668 1.668-3.668 1.332" fill-rule="evenodd" fill="#d9d9d9"/><path d="M121.285 176.168l-7.336-18.664-7.664-11s1.664-4.668 4-4.668h7.664l7.336 2.668-.668 12.332-3.332 19.332" fill="#fff"/><path d="M122.719 169.832s-9.336-18-9.336-20.668c0 0 1.668-4 4-3 2.336 1 7.336 3.668 7.336 3.668V143.5l-11.336-2.336-7.664 1 13 30.668 2.664.332" fill-rule="evenodd" fill="#d9d9d9"/><path d="M81.953 125.836l-9.234-1.004-8.668-2.668v3l4.234 4.672 13.332 6" fill="#fff"/><path d="M67.05 126.836s10.337 4.332 13.669 3.332l.332 3.996-9.332-1.996-5.668-4 1-1.332" fill-rule="evenodd" fill="#d9d9d9"/><path d="M134.582 142.969c-5.656-.164-10.766-.836-15.238-2.098.3-1.836-.266-3.637.191-4.957 1.246-.898 3.336-.883 5.223-1.094-1.633-.8-3.922-1.117-5.805-.656-.043-1.273-.613-2.062-.96-3.059 3.183-1.132 10.687-8.574 14.91-6.109 2.011 1.172 2.867 7.863 3.023 11.121.133 2.7-.242 5.422-1.344 6.852" fill-rule="evenodd" fill="#666"/><path d="M134.582 142.969c-5.656-.164-10.766-.836-15.238-2.098.3-1.836-.266-3.637.191-4.957 1.246-.898 3.336-.883 5.223-1.094-1.633-.8-3.922-1.117-5.805-.656-.043-1.273-.613-2.062-.96-3.059 3.183-1.132 10.687-8.574 14.91-6.109 2.011 1.172 2.867 7.863 3.023 11.121.133 2.7-.242 5.422-1.344 6.852zm0 0" fill="none" stroke-width="2" stroke="#666"/><path d="M107.535 133.723c-.015.43-.031.859-.05 1.293-1.766 1.16-4.618 1.144-6.555 2.12 2.855.126 5.105.813 7.05 1.782-.043 1.078-.082 2.156-.125 3.234-3.238 2.215-6.195 5.516-10.003 7.594-1.805.984-8.13 3.512-10.043 3.066-1.086-.253-1.184-1.597-1.618-2.867-.921-2.718-3.05-7.043-3.234-11.132-.238-5.168-.758-13.825 4.809-12.762 4.492.86 9.714 2.926 13.191 4.828 2.125 1.16 3.356 2.598 6.578 2.844" fill-rule="evenodd" fill="#666"/><path d="M107.535 133.723c-.015.43-.031.859-.05 1.293-1.766 1.16-4.618 1.144-6.555 2.12 2.855.126 5.105.813 7.05 1.782-.043 1.078-.082 2.156-.125 3.234-3.238 2.215-6.195 5.516-10.003 7.594-1.805.984-8.13 3.512-10.043 3.066-1.086-.253-1.184-1.597-1.618-2.867-.921-2.718-3.05-7.043-3.234-11.132-.238-5.168-.758-13.825 4.809-12.762 4.492.86 9.714 2.926 13.191 4.828 2.125 1.16 3.356 2.598 6.578 2.844zm0 0" fill="none" stroke-width="2" stroke="#666"/><path d="M110.75 139.887c-.492-2.813-1.066-3.617-.844-6.07 7.504-5.005 8.914 8.593.844 6.07" fill-rule="evenodd" fill="#666"/><path d="M110.75 139.887c-.492-2.813-1.066-3.617-.844-6.07 7.504-5.004 8.914 8.593.844 6.07zm0 0" fill="none" stroke-width="2" stroke="#666"/><path d="M121.617 142.168s-2.336-3.332-.668-4.332c1.668-1 3.336 0 4.336-1.668 1-1.664 0-2.664.332-4.664.332-2 2-2.336 3.668-2.668 1.664-.332 6.332-1 7 .668l-2-6-4-1.336-12.668 7.336-.668 3.664v7.336m-30.332 12.664c-.398-5.2-.824-10.395-1.297-15.594-.703-7.758 1.864-6.406 8.59-6.406 1.031 0 6.328 1.227 6.707 2 1.817 3.715-3.039 2.89 2.094 5.687 4.336 2.364 11.988-1.433 10.238-6.687-.98-1.168-5.105-.363-6.586-1.129-2.601-1.351-5.207-2.7-7.812-4.05-3.313-1.72-10.969-4.227-14.5-1.825-8.953 6.09.562 21.297 3.758 27.648" fill-rule="evenodd" fill="#737373"/><path d="M95.39 35.066c-9.085-2.113-13.6 3.805-16.355 9.942-2.457-.598-1.48-3.942-.86-5.645 1.626-4.472 8.18-10.425 13.536-9.617 2.305.348 5.422 2.453 3.68 5.32m44.265 10.348c.14.008.285.012.43.016 2.055 4.265 3.828 8.785 6.422 12.55-1.738 4.04-13.14 7.618-12.965.36 2.469-1.078 6.723-.219 8.91-1.598-1.266-3.469-3.09-6.422-2.797-11.328m-39.616.109c1.948 3.575 2.581 7.325 5.35 10.024 1.247 1.215 3.672 2.695 2.47 6.074-.282.797-2.333 2.574-3.516 2.926-4.332 1.277-14.418.262-11-5.137 3.578.168 8.39 2.328 11.066-.273-2.055-3.285-5.719-9.782-4.37-13.614m37.991 36.297c-6.52 4.188-13.789 8.739-24.469 7.684-2.28-1.984-3.152-6.399-.933-9.317 1.152 1.985.43 5.633 3.644 6.184 6.063 1.035 13.114-3.707 17.473-5.367 2.703-4.555-.234-6.23-2.668-9.164-4.984-6.012-11.672-13.457-11.43-22.453 2.016-1.461 2.192 2.23 2.48 2.902 2.602 6.09 9.153 13.883 13.934 19.098 1.172 1.281 3.106 2.515 3.32 3.363.622 2.469-1.612 5.426-1.35 7.07m-85.93-4.41c-2.043-1.164-2.528-6.3-4.93-6.445-3.426-.211-2.8 6.66-2.785 10.68-2.36-2.141-2.778-8.739-1.043-12.125-1.977-.97-2.86 1.07-3.953 1.789 1.406-10.23 14.964-4.746 12.71 6.101m90.079 8.668c-3.035 5.777-7.325 12.137-16.23 12.32-.18-1.863-.317-4.703.01-5.824 6.806-.656 11.009-4.12 16.22-6.496m-42.653 3.746c5.676 2.985 16.114 3.305 23.832 3.078.414 1.692.403 3.782.418 5.844-9.918.496-21.648-1.96-24.25-8.922M98.45 95.39c3.925 9.86 17.421 8.723 28.8 8.454-.5 1.277-1.586 2.793-2.938 3.34-3.644 1.48-13.703 2.609-18.765-.082-3.211-1.707-5.277-5.563-7.035-7.825-.852-1.09-5.082-3.879-.063-3.886" fill-rule="evenodd" fill="#212121"/><path d="M137.555 149.773c-4.606 7.891-9.016 16-14.485 22.961 2.293-6.742 3.274-18.02 3.621-26.617 4.793-2.246 8.903.504 10.864 3.656" fill-rule="evenodd" fill="#a3a3a3"/><path d="M162.352 178.14c-5.16 1.032-8.786 6.048-13.817 5.723 2.766-3.898 7.613-5.543 13.817-5.722m2.277 8.074c-4.207.441-9.145 1.125-13.41.773 2.02-3.086 9.797-2.02 13.41-.773m1.457 6.957c-4.727.105-10.602.012-15.094-.367 2.656-2.852 12.028-1.059 15.094.367" fill-rule="evenodd" fill="#212121"/><path d="M128.664 212.223c.68 5.933 3.031 11.949 2.734 18.449-2.613.883-4.113 1.652-7.613 1.648-.246-5.527-.984-13.968-.765-19.234 1.722.113 4.261-1.23 5.644-.863" fill-rule="evenodd" fill="#d9d9d9"/><path d="M121.047 124.75c-2.375 1.55-4.395 3.484-6.676 5.137-5.055.25-7.812-.348-11.523-3.25.058-.235.433-.13.449-.414 5.406 2.41 12.285-.985 17.75-1.473" fill-rule="evenodd" fill="#dbdbdb"/><path d="M92.645 161.629c1.488-6.441 7.312-9.777 12.597-13.324 5.461 6.93 8.781 15.84 12.438 24.437-8.64-2.605-17.465-6.832-25.035-11.113" fill-rule="evenodd" fill="#a3a3a3"/><path d="M123.02 213.086c-.22 5.266.52 13.707.765 19.234 3.5.004 5-.765 7.613-1.648.297-6.5-2.054-12.516-2.734-18.45-1.383-.367-3.922.977-5.644.864zm-54.512-29.95c2.308 21.223 5.648 39.063 11.781 57.856 13.613 4.133 30.023 4.492 42.055.766-2.211-10.61-1.246-23.524-2.535-34.844-.973-8.508-.48-17.066-1.813-25.746-14.578-3.031-35.183-.707-49.488 1.969zm52.933-1.835c-.12 9.113.41 18.105 1.106 27.23 3.5-.523 5.875-.875 9.129-1.586-1.059-8.789-.93-18.672-3.078-26.445-2.489.023-4.676-.027-7.157.8zm17.758-1.469c-1.664-.379-3.597-.016-5.183.016.746 7.43 2.554 15.629 3.195 23.43 2.496.077 3.828-1.102 5.883-1.497.11-6.847-.598-16.277-3.895-21.949zm26.883 24.563c5.203-1.262 8.477-7.637 7.023-14.184-.976-4.402-2.718-12.688-4.582-15.5-1.375-2.082-5.105-4.809-8.085-2.902-4.844 3.101-13.383 4.004-16.915 7.761 1.77 5.899 2.32 14.004 3.051 21.477 6.055.379 13.504-1.664 18.54.504-3.516 1.14-8.079 1.148-11.114 2.808 2.48 1.2 8.293.957 12.082.036zm-48.402-31.653c-3.657-8.597-6.977-17.508-12.438-24.437-5.285 3.547-11.11 6.882-12.597 13.324 7.57 4.281 16.394 8.508 25.035 11.113zm9.011-26.625c-.347 8.598-1.328 19.875-3.62 26.617 5.468-6.96 9.878-15.07 14.484-22.96-1.961-3.153-6.07-5.903-10.864-3.657zm-10.214-3.633c-2.075-.222-3.832 2.383-6.524 1.258-.617.68-1.18 1.418-1.808 2.086 5.949 7.168 8.652 17.336 13.246 25.762 2.464-8.094 2.18-16.957 2.722-25.79-3.386.216-5.265-3.062-7.636-3.316zm-6.57-8.668c-.223 2.454.35 3.258.843 6.07 8.07 2.524 6.66-11.073-.844-6.07zm-8.95-2.937c-3.477-1.902-8.7-3.969-13.191-4.828-5.567-1.063-5.047 7.594-4.809 12.761.184 4.09 2.313 8.415 3.234 11.133.434 1.27.532 2.614 1.618 2.868 1.914.445 8.238-2.083 10.043-3.067 3.808-2.078 6.765-5.379 10.003-7.594.043-1.078.082-2.156.125-3.234-1.945-.969-4.195-1.656-7.05-1.781 1.937-.977 4.789-.961 6.554-2.121.02-.434.036-.864.051-1.293-3.222-.246-4.453-1.684-6.578-2.844zm-33.215-6.035c-2.887 2.93 8.098 6.926 11.594 7.14-.02-1.855 1.055-3.601.836-4.933-4.149-.727-9.606-.246-12.43-2.207zm35.555 1.379c-.016.285-.39.18-.45.414 3.712 2.902 6.47 3.5 11.524 3.25 2.281-1.653 4.3-3.586 6.676-5.137-5.465.488-12.344 3.883-17.75 1.473zm32.629 9.894c-.156-3.258-1.012-9.949-3.024-11.12-4.222-2.466-11.726 4.976-14.91 6.108.348.997.918 1.786.961 3.06 1.883-.462 4.172-.145 5.805.655-1.887.211-3.977.196-5.223 1.094-.457 1.32.11 3.121-.191 4.957 4.472 1.262 9.582 1.934 15.238 2.098 1.102-1.43 1.477-4.153 1.344-6.852zm-73.04-8.437c-.91-.649-7.038-8.625-7.878-8.293-11.094 4.375-21.469 11.941-30.735 19.093 8.836 18.965 12.403 42.2 13.036 64.594 10.12 4.735 19.015 11.563 32.754 12.274-1.59-11.246-3.04-21.282-3.946-31.871-3.449-1.457-8.402.062-11.633-.454-.027-3.89 4.934-1.703 5.348-4.32.313-1.98-2.73-2.133-1.738-5.25 2.523.918 3.851 2.945 6.543 3.707 2.46-5.383-.035-14.91.32-19.41.066-.844.422-4.68 2.316-4.008 1.672.598-.097 10.203.086 14.461.168 3.926-.472 7.719 1.114 10.184 13.277-1.805 26.765-2.977 41.132-3.367-3.16-1.36-6.914-2.641-11.03-4.961-2.231-1.258-9.266-3.875-9.91-5.993-1.024-3.379 2.694-5.175 3.331-8.074-6.7 3.656-8.008-3.5-9.59-8.57-1.437-4.594-2.254-8.027-2.61-10.676-5.769-2.75-11.944-5.539-16.91-9.066zm67.177-7.328c9.246-4.48 10.91 16.75 7.289 23.59.558 2.042 2.484 2.824 3.27 4.656-5.157 9.242-10.888 17.867-16.15 26.996 3.915-2.438 9.508-.438 14.114-2.258 1.684-.668 2.902-4.524 4.18-7.606 3.504-8.488 7.187-19.183 8.824-27.28.37-1.845 1.379-5.864 1.152-7.509-.402-2.937-4.39-5.117-6.422-6.937-3.734-3.356-6.09-6.313-9.988-9.453-1.582 2.336-4.977 3.902-6.27 5.8zm-88.317-81.97c-4.402 4.848-3.48 13.927-2.95 20.388 7.962-5.008 18.528.394 18.427 8.914 3.804-.102 1.422-4.746.734-7.739-2.246-9.777 3.785-20.398.273-29.34-6.82.52-12.421 3.305-16.484 7.778zm31.516-28.124c-9.973 2.828-22.75 10.07-26.848 19.027 3.172-.46 5.375-2.058 8.504-2.258 1.184-.078 2.734.496 4.094.157 2.707-.672 4.992-6.747 7.035-9.004 1.992-2.207 4.387-3.153 6.027-5.164 1.055-.508 2.61-.473 2.668-2.051-.457-.488-.937-.863-1.48-.707zm51.902 2.656C114.812 7.078 97.297 2.684 86.29 8.172c-8.883 4.43-20.89 11.758-24.984 21.043 3.824 8.96-1.133 17.172-1.45 26.27-.167 4.843 2.282 9.07 2.47 14.34-1.31 2.155-5.31 2.421-8.079 2.277-.93-4.665-2.562-9.903-7.36-10.43-6.792-.742-11.761 4.879-12.07 10.754-.363 6.91 5.305 18.36 13.344 17.566 3.11-.308 3.871-3.422 7.254-3.39 1.832 3.66-2.828 4.808-3.309 7.425-.125.676.387 3.32.684 4.559 1.461 6.031 4.715 13.84 7.922 18.434 4.066 5.824 12.055 6.703 20.648 7.273 1.536-3.305 7.192-3.035 10.875-2.168-4.414-1.75-8.52-5.988-11.925-9.742-3.907-4.309-7.864-8.926-8.067-14.555 7.387 10.246 13.488 19.195 26.918 23.703 10.16 3.406 22.031-1.562 29.836-7.047 3.242-2.277 5.176-5.894 7.48-9.203 8.618-12.394 12.637-30.09 11.754-47.234-.367-7.074-.347-14.121-2.722-18.879-2.48-4.977-10.867-9.426-15.778-4.926-.91-4.84 4.083-7.832 9.95-6.09-4.184-5.398-8.575-11.882-14.516-15.238zm19.281 159.57c8.086-4.02 23.196-10.824 28.266.012 1.871 3.996 4.066 10.746 5.035 14.871 1.367 5.817-1.484 18.043-7.465 19.996-5.277 1.723-11.441 1.617-17.8.34-.75-.621-1.586-1.71-2.168-2.84-4.543-.175-8.793.242-12.383 2.11.34 3.359-1.934 3.898-4.063 4.59-1.578 6.261 3.16 14.437 2.028 20.148-.81 4.066-5.817 4.695-9.493 5.453-.12 2.262.16 4.149.41 6.063-.84 3.097-4.613 4.859-8.183 5.293-11.762 1.414-29.613 2.05-40.926-2.02-3.156-7.738-5.644-17.156-8.273-25.996-11.028 1.18-19.953-4.762-28.364-8.649-2.91-1.351-6.937-2.093-8.027-4.414-1.055-2.242-.625-6.543-.883-10.605-.668-10.379-1.238-20.387-3.98-31.012-1.227-4.77-3.375-8.976-4.871-13.57-1.383-4.258-3.797-9.52-4.426-13.766-.934-6.293 4.988-6.644 8.777-9.37 5.86-4.216 10.457-6.548 16.801-10.356 1.879-1.125 7.547-3.98 8.191-5.293 1.278-2.606-2.199-6.278-3.132-8.32-1.473-3.227-2.239-5.973-2.45-9.157-5.32-.844-9.355-4.008-11.793-7.582-4.03-5.906-6.824-16.844-3.34-25.16.278-.652 1.641-1.941 1.84-2.95.399-1.98-.746-4.612-.816-6.722-.367-10.808 1.828-20.121 9.105-23.383 2.954-11.77 13.528-15.68 23.489-21.53 3.726-2.185 7.832-3.583 12.07-5.142 15.207-5.597 38.543-4.543 51.164 5 5.352 4.051 13.906 12.598 16.969 18.786 8.082 16.336 7.508 43.64 1.851 63.511-.757 2.668-1.859 6.59-3.398 9.797-1.074 2.238-4.41 6.715-4.004 8.692.418 2.043 7.606 7.5 9.145 8.984 2.773 2.68 8.047 6.23 8.472 9.61.461 3.593-1.582 8.511-2.617 11.98-3.46 11.578-6.836 22.277-10.758 32.601" fill-rule="evenodd" fill="#212121"/><path d="M90.492 92.344c.438-.582 2.852-1.469 6.227.156 0 0-4 .664-3.668 7.336l-1.668-.336s-1.723-6.047-.89-7.156" fill-rule="evenodd" fill="#e8e8e8"/><path d="M119.719 149.664a1.833 1.833 0 1 1-3.668 0 1.835 1.835 0 0 1 3.668 0m1.831 8.5a1.834 1.834 0 1 1-3.667.004 1.834 1.834 0 0 1 3.668-.004" fill-rule="evenodd" fill="#1a1a1a"/></svg>