<svg height="128" width="128" xmlns="http://www.w3.org/2000/svg" fill="#999"><path d="M112.005 50.192h-96a1.999 1.999 0 0 1-1.529-3.289L37.5 19.595c.38-.451.939-.711 1.529-.711h49.957c.59 0 1.149.26 1.529.711l23.019 27.308a2 2 0 0 1-1.529 3.289zm-91.697-4h87.396L88.057 22.884H39.959L20.308 46.192z"/><path d="M64.005 108.299L14.475 49.48l3.06-2.576 46.47 55.184 46.47-55.184 3.06 2.576z"/><path d="M64.005 107.193a1.999 1.999 0 0 1-1.886-1.335L42.023 48.857a2 2 0 0 1 .275-1.851l20.096-27.308c.752-1.024 2.467-1.024 3.221 0l20.1 27.308c.393.533.496 1.226.275 1.851l-20.1 57.001a1.997 1.997 0 0 1-1.885 1.335zM46.147 48.525l17.857 50.654 17.861-50.654-17.86-24.267-17.858 24.267z"/><path d="M40.998 20.532l4.88 27.307-3.938.704-4.88-27.308zm46.022-.002l3.937.704-4.882 27.309-3.938-.704z"/></svg>